<?xml version="1.0" encoding="UTF-8"?>
<svg xmlns="http://www.w3.org/2000/svg" width="300px" height="300px" viewBox="0 0 300 300">
  <defs>
    <style>.a{fill:none;}.b{fill:#fff;}</style>
  </defs>
  <title>site-icon</title>
  <rect class="a" width="300" height="300"></rect>
  <path class="b" d="M160.56,169.79v-3.63l.25-7v-5.45l-.91-1.51a78.09,78.09,0,0,0-4.3-7.55c-3-4.21-7-8.72-9.79-13.26-2.15-3.33-3.66-6.06-5.81-9.36h0c-2.15-3.33-3-6.63-4.61-9.36-.9-1.51-2.72-2.09-4-4.21a29.09,29.09,0,0,1-2.15-3.33c-4-6.06-8.88-13.57-12.54-19a100,100,0,0,0-7-8.72c-1.85-2.73-3.36-6.33-5.21-9.09-.91-1.51-2.12-2.12-3.36-3.6L97,59.09c-1.55-2.42-2.76-5.42-4.3-7.84s-3-3.91-4.58-6.06c-.9-1.52-1.24-3-2.15-4.24-.3-.61-1.51-.91-1.81-1.52-.91-1.51-.64-2.42-1.85-3.93-.3-.31-1.52-1.21-1.82-1.52s-.3-1.51-.3-1.81c-1.55-2.43-3-3.61-4.57-6.06C75,24.9,74,23.69,73.43,22.47s-1.7-2.57-2.46-3.9a22.4,22.4,0,0,1-1.24-3c-1.85-2.73-3.36-3.61-5.18-6.06L61.79,5.82c-.6-.61-.9-1.52-1.51-2.12L57.58,0V17.26l.31.61C59.1,19.69,60,21.2,61.25,23c2.45,3.6,4.91,7.54,7.36,11.14C72,39.25,75.94,42.86,79.6,48s7.67,11.75,11.63,17.17l5.52,7.3c2.15,2.72,4,5.72,6,8.75s4,4.21,5.82,6.63c2.15,3,3.69,7.24,5.81,10.27,4.28,6.06,8.58,11.15,12.85,17.18a40.69,40.69,0,0,0,3,3.9c3,4.21,4.3,7.24,7.66,11.75h0c2.15,3,4.57,6.33,6.72,9.09,3,3.91,6.06,7.84,9.09,12.12a37.7,37.7,0,0,0,3.36,4.51,12.4,12.4,0,0,1-.27,3.33,77.4,77.4,0,0,0-.24,8.48c-.28,3.94,0,7.57,0,11.51s-.25,8.78-.22,13v5.76a53.91,53.91,0,0,1-.24,7v6.06c0,2.42-.27,4.85-.24,7,0,4.84-.24,9.69-.21,14.54v11.51h0v7.26c.16,3.23.16,6.47,0,9.7v4.54a1.12,1.12,0,0,0-.91.3c-.91.31-2.42.34-3.33.64-2.12.91-3.34,2.15-5.42,3s-3.64,1.54-5.43,2.45c-.91.3-1.51,0-2.72.64-.31,0-.91,1.21-1.21,1.21l-4.55,1.85c-4.54,1.84-9.08,2.78-13.6,4.63-.6.3-1.51,1.51-2.12,1.82-5.72,2.45-11.78,4.63-17.5,7.39-.91.3-11.78,4.63-11.78,4.63h0c0,.3.6.61.6.61a27.7,27.7,0,0,1,4.88,3.3A6.52,6.52,0,0,1,94.44,300c.31,0,.31-.3.61-.3a7.22,7.22,0,0,0,1.51-.91c2.73-1.24,5.73-2.76,8.46-4,1.21-.61,2.42-1.24,3.93-1.85,4.24-1.84,8.15-4,12.39-5.84s8.75-4.3,13.3-6.45,6.63-4,10.87-6.06a10.44,10.44,0,0,1,3-.64l7.24-3.69c1.81-.91,2.42-1.24,2.42-1.85h0l1.06-63v-1.82c.27-4.84.55-10,.52-14.84.27-3.33.81-7.45.78-11.39Z" transform="translate(0 0)"></path>
  <path class="b" d="M105.47,62.67a1,1,0,0,1,.61-.31l8.75-5.81,3,2.09,5.72-4-1.21-1.82-2.73-.57c-.3,0-.9-.31-1.21-.31h-.27a1.1,1.1,0,0,0-.91.31l-.3.3c-.61.3,0,.91-.61,1.21a6.82,6.82,0,0,0-1.51.91c-.3.3-.91,0-1.21.3a.28.28,0,0,0-.31.24v.07l-1.81.9c-.61.31-1.52,1.22-2.12,1.52h-.91l-.3.3h0c-.61.3-.91.91-1.22,1.21s-.91,0-1.21.31h-.6a1.61,1.61,0,0,1-1.22.6c.61.91,1.25,2.42,1.55,2.42" transform="translate(0 0)"></path>
  <path class="b" d="M122.92,48.91h0a8.14,8.14,0,0,0,1.3,2.34c.6-.31.91-.61,1.51-.91l9.66-5.82,22.42-.75.63,6.36,14.54-.7-.6-1.82-10.3.37-2.79-7.24a3,3,0,0,0-.6-2.12h-1.16c-3.22.16-6.46.16-9.69,0-.3,0-1.82.91-2.12.91s-1.21-.61-1.51-.61h-7c-1.51.91-4.54,1.85-5.42,3a9.72,9.72,0,0,1-3.6,2.75A14.68,14.68,0,0,1,124,47.46a.66.66,0,0,0-.61.61c-.3.3-.3.3-.3.6Z" transform="translate(0 0)"></path>
  <path class="b" d="M212.87,47.67c.3,0,.3.31.61.31a1.91,1.91,0,0,0,.6-2.12c-.3,0-.3-.31-.6-.31h0A5.13,5.13,0,0,0,212,45c0-.61-.3-1.82-.3-2.12-1.21-.61-2.73-.88-3.64-1.49s-.9-.3-1.21-.6-.91-.31-1.51-.61l-5.36-2.39c-.31,0-.31-.3-.61-.3a3.38,3.38,0,0,0-2.42-.88H195.7c-1.21,0-2.12.3-3.33.33a6.33,6.33,0,0,0-3.34.33,10,10,0,0,1-4.24.34,36,36,0,0,0-6,.33,6.65,6.65,0,0,0-2.43.33H174.8v3.33l23.93-.78Z" transform="translate(0 0)"></path>
  <polygon class="b" points="211.69 50.4 213.48 48.28 197.39 41.74 173.77 42.49 173.8 45.83 196.79 44.46 211.69 50.4"></polygon>
  <path class="b" d="M215.93,51.25h0v2.12a1.07,1.07,0,0,0,.6.3l5.15,1.79,3-3.37,9.42,3.28v1.21l5.45,2.09-.3-2.12H239l-.31-.31h0c-.6-.3-1.51-.9-2.12-1.21h0v-.6c-.3-.31,0-.91-.3-1.21s-.6-.61-.91-.61-.6-.3-.91-.3c-1.21-.31-2.12-.91-3.33-1.18a1.92,1.92,0,0,0-1.21-.31c-.91-.3-1.82-.3-2.42-.88a17.48,17.48,0,0,0-3.64-1.48c-.3,0-.6-.3-.9-.3h0l-1.22.6c-.3,0-.3.91-.6.91h-.61l-.3.3-2.73-.57c-.3,0-.3,0-.6.3h0c-.31,0-.31,0-.61.31s-.3.3-.6.3v.6c.3,0,.3,0,.3.31Z" transform="translate(0 0)"></path>
  <polygon class="b" points="211.69 51.61 212.32 55.24 223.26 58.82 223.23 56.7 215.02 53.09 213.81 51.31 211.69 51.61"></polygon>
  <path class="b" d="M207.85,49.14c-1.52-.61-3.7-1.35-5.22-2a49.13,49.13,0,0,0-5.85-2.26h-1.27a14.86,14.86,0,0,0-3.65.25c-2.12,0-3.74.55-6.16.58-3.63.34-7.55.56-11.18.56l-.59,0c0,1.52.29,2.52.29,3.74,0,0-7.57,1-8.17,1-1.82,0-3.34-.57-5.15-.57-.61,0-2.73.63-3.34.33s-.3-1.51-.3-1.82c0-1.21-.33-2.42-.33-3.63h-.3c-3,.33-6.36.33-9.39.67s-6.06-.28-9.09-.25c-.91,0-1.82-.3-2.42.34-1.52.91-2.12,1.81-3.61,2.75-.91.61-2.42,1.25-3.33,1.85a9.75,9.75,0,0,1-2.72.94c-.31.3-.61.3-.91.61l-.61.3a3,3,0,0,0,.61,1.51c.3.31.3.61.6.91s.31.3,0,.3-.6.31-.91.61-.9.61-1.21.91,0,0-.91.3a27.11,27.11,0,0,0-3.3,2.76h-.3a.26.26,0,0,1-.3-.24.06.06,0,0,1,0-.06,3.13,3.13,0,0,1-1.82,0c-.3-.31-.91-.61-1.21-.91-.91-.31-1.82.91-2.43,1.24s-1.21,1.51-1.81,1.82a20.72,20.72,0,0,0-3.64,1.84c-.3.31-.6.31-.6.61a1.07,1.07,0,0,0-.61.3s0,.61.3.61c.61.6.91,1.51,1.52,2.12a.27.27,0,0,0,.24.3h.67c.91,1.51,1.24,3.33,2.15,4.85a1,1,0,0,0,.91.91c.6-.31.9-.61,1.51-.91s.3-.31.61-.31c4.21-2.45,8.45-4.9,13-7.36,1.21-.9,2.73-1.54,3.91-2.45a2.29,2.29,0,0,1,1.21-.61h4.54c6.36-.33,13-.39,19.39-.75,3,0,6.36-.34,9.38-.37l16.36-.72c5.15-.34,10.3-.37,15.75-.73a15.24,15.24,0,0,1,3,.88c3,1.18,6.06,2.09,8.81,3.27,3.64,1.18,7.3,2.66,10.63,3.88,5.46,2.09,11.24,4.15,16.69,6.24.3.3.91.3,1.21.6V72.33c0-.61.31-1.21-.3-1.82S237,69.9,237,69.3v-.61a1.14,1.14,0,0,1,.3-.91c.3-.3.91-.6,1.21-.9s.61-.61.61-.91h0c.3-1.52.57-3,.88-4.85a1.28,1.28,0,0,0-.58-1.7h-.33a.87.87,0,0,1-.61-.3l-.06-.42c-1.13-.41-2.24-.88-3.33-1.4-.61-.3-1.21-.3-1.21-.9a2.25,2.25,0,0,0-.61-.91c-1.21-.31-2.72-.28-3.93-.58-.61-.3-.91-.91-1.22-1.21a14.71,14.71,0,0,0-2.12-.91h-.6c-.3,0-.3.3-.61.3-.6.61-1.21,1.52-1.81,2.12.6.61,1.21.91,1.51,1.82,0,.3-.58,2.73-.27,2.73a30.85,30.85,0,0,1-10.94-3.55,1.14,1.14,0,0,1-.91-.3,1.91,1.91,0,0,1-.3-1.21c-.3-.91-.3-1.82-.63-2.73.05-.62-.38-.77-.63-1.34Z" transform="translate(0 0)"></path>
  <path class="b" d="M234.56,73l-.61-.3L230,71.78,224.56,70c-.6-.3-1.21-.3-1.82-.6s-.91-.61-1.51-.91A17,17,0,0,0,217.59,67l-1.21-.31-4.33-1.45-14.23-4.91-7,.37-2.42.33H170.56l-7.57.36-5.76.34h-.6a26.2,26.2,0,0,0-4.85.33h-.91c-.3,0-.6.3-.91.3a15.15,15.15,0,0,1-6.36,0,17.3,17.3,0,0,0-3.94,0l-7.57.37c-3.9,2.45-3.6,2.45-7.54,4.6l-6.06,3.36-6.63,3.7.91,1.81,8.15-4.6a61.24,61.24,0,0,1,6.33-3l1.51-1.21.91-.61L133,64.91h9.09l5.45-.34c5.15-.33,10.6-.36,15.75-.72s10,0,15.14-.73l18.78-.73s5.15,1.79,5.45,1.79c1.52.61,3.33.88,4.85,1.48,4.24,1.49,8.21,3.27,12.45,4.76,2.42.88,4.84,1.48,7.3,2.36a132.3,132.3,0,0,0,14.26,5.36,5.11,5.11,0,0,1,.3-2.12c-1.51-.6-3.33-1.18-4.84-1.78Z" transform="translate(0 0)"></path>
  <path class="b" d="M118.55,74.39a6.07,6.07,0,0,0-2.72,1.54c-1.52,1.21-2.12,1.21-2.12,1.21l2.75,3.61,3-1.55c.31-.3.91-.6,1.21-.91,1.22-.6,2.43-.63,3.34-1.54l1.21-1.21c.6-.31,1.21-.31,1.51-.61,2.12-.91,3.64-2.15,5.73-3,.9-.3,2.12-.91,3-1.24l9.7-.36h7L157,70s-.61.31,1.51,0q4.69-.4,9.39-.36c3.33,0,2.12-.3,5.45-.33H177a8.36,8.36,0,0,1,2.73-.34,7.77,7.77,0,0,0,2.72,0h1.82c1.51-.6.91,0,2.42,0a14.4,14.4,0,0,0,3.64-.33,26.15,26.15,0,0,0,4.84-.33l46.46,15.42.28-4.55L198.45,63.36a25.45,25.45,0,0,0-3-.27c-.9,0-2.72.33-10,.67a13.69,13.69,0,0,0-3.94,0,185.26,185.26,0,0,1-22.71,1.06c-1.22,0-2.12.3-3.34.33H150.6a14.78,14.78,0,0,0-3.64,0h-1.81a49.28,49.28,0,0,0-5.15.33c-2.12,0-6.67.37-6.67.37a18.87,18.87,0,0,0-5.42,3l-.66.55a1.14,1.14,0,0,1-.91.3,9.56,9.56,0,0,0-2.43,1.55h-.6c-.3,0-.61.3-.91.3l-1.82.91s-.3.3,0,.3l-.3.3a14.09,14.09,0,0,1-1.82,1.22" transform="translate(0 0)"></path>
  <polygon class="b" points="195.15 68.69 136.12 71.54 116.8 81.35 117.4 83.47 136.73 73.36 195.18 71.12 240.7 86.23 241.31 83.81 195.15 68.69"></polygon>
  <path class="b" d="M156.2,86.23c-.6.3-.91.6-1.51.6a6.39,6.39,0,0,0-1.82,1.22l-1.51,1.51a6.42,6.42,0,0,0-1.22,1.52c-.3.9-.9,1.51-1.18,2.42a9.73,9.73,0,0,0-.88,2.72v.61a46.56,46.56,0,0,0,5.76.88h1.21c0,.91-.3,2.12-.27,3a14.71,14.71,0,0,1-.27,3.63v.3h-1.22a5.08,5.08,0,0,0-2.12-.3,2.44,2.44,0,0,0-1.21.3V108a16.71,16.71,0,0,0,.34,3.93v8.48h0c0,.91-.31,1.82-.28,3v5.45a4.93,4.93,0,0,0,.31,2.12v.31h2.72c0,.3.3.3.61.3h0v.3h9.93a12.38,12.38,0,0,1,3.33,0c1.21,0,2.12.31,3.33.28h.61a8.43,8.43,0,0,0,2.73-.34.87.87,0,0,0,.6-.3h0a8.42,8.42,0,0,0,2.73-.33,1.07,1.07,0,0,1,.3-.61V117.88c.3-.61,0-1.82,0-2.42a17.35,17.35,0,0,1,.27-3.94v-4.85c-.3,0-.3,0-.6-.3a2.61,2.61,0,0,0-2.12,0c-.31,0-.31,0-.31.3h-1.78a1.9,1.9,0,0,0-1.21.31v-4.55a5,5,0,0,1,.3-2.12h0c.61,0,1.51.31,2.12,0h3.94a2.22,2.22,0,0,0,1.51-.3V99.1a17.29,17.29,0,0,0-1.24-3.63c-.61-.91-.91-2.12-1.55-3a8,8,0,0,1-.9-1.52,7.14,7.14,0,0,0-2.12-2.12s-1.22-.6-1.22-.9a4.79,4.79,0,0,0-2.42-1.49,5.8,5.8,0,0,0-2.12-.6,1.15,1.15,0,0,1-.91-.31h-.6a11.61,11.61,0,0,0-4.55,0,15.8,15.8,0,0,0-3.33.64h0a13,13,0,0,0-1.51.3.27.27,0,0,0-.24-.3h-.07Zm2.18,42.92h-1.21l.67-33.32h.91Zm3.64,0h-.91l-.55-35.5h1.21Zm3.63,0h-.91l-.6-35.5h1.21Zm3.33,0h-.91l.37-32.71h.91Z" transform="translate(0 0)"></path>
  <path class="b" d="M170.86,144.9h6.36c.61,0,.61-.31.91-.61V144a6.68,6.68,0,0,0-.33-2.43v-.3a.28.28,0,0,0-.24-.3h-2.79a2.67,2.67,0,0,0-1.52.3h-7a29.53,29.53,0,0,0-5.15,0c-.3,0-.61,0-.61-.3s-.3-.3-.6-.3h-1.82a.66.66,0,0,0-.61.6v.3a6.69,6.69,0,0,1,.34,2.43v.91h.6a8.38,8.38,0,0,1,2.73.27h1.21a17.35,17.35,0,0,1,3.94.27,8.52,8.52,0,0,1,4.54-.63" transform="translate(0 0)"></path>
  <path class="b" d="M230.22,110.55c.61.3,3.64,1.18,3.64,1.18v-6.36s-3.33-1.48-3.64-.88a6.83,6.83,0,0,0-.27,3.64c-.3.91-.3,2.12.34,2.42" transform="translate(0 0)"></path>
  <path class="b" d="M227.2,111.19a2.73,2.73,0,0,0-.28,2.42c.31.91,0,1.82.61,2.12s0,.3,1.51.61a11.76,11.76,0,0,1,3.34.87c.3,0,1.21.91,1.51.61a26.19,26.19,0,0,0,0-4.85s-3-1.18-4.24-1.48-2.12-.91-2.42-.27" transform="translate(0 0)"></path>
  <path class="b" d="M225.8,122.09a2,2,0,0,0,0,1.82c0,.91.61.3.91.6a3.05,3.05,0,0,1,.91,1.82c.3,1.21.3.3,1.51,1.21a15.2,15.2,0,0,0,2.43,1.49,7.36,7.36,0,0,0,2.12.6c.6,0,.27-6.06.27-6.06l-1.51-.9a13.59,13.59,0,0,1-2.12-.61c-.61-.3-1.22,0-1.82,0a4.71,4.71,0,0,1-1.82-.3c-.6-.91-.6-.31-.91.3" transform="translate(0 0)"></path>
  <path class="b" d="M230.71,130c0,.61.3.61.3,1.22a6.13,6.13,0,0,0,.31,2.12,2.2,2.2,0,0,0,.6,1.81c.3.61,2.42.28,2.42.28l-.33-5.15s-1.51,0-1.82-.31a.85.85,0,0,0-1.14-.37.83.83,0,0,0-.37.37" transform="translate(0 0)"></path>
  <path class="b" d="M228.65,92.07s-.61-.3,0,.91.61,1.52,1.51,1.82h1.52c.91.3,1.21.61,1.51.61h.31V93.29Z" transform="translate(0 0)"></path>
  <path class="b" d="M230.22,99a32.18,32.18,0,0,0,3.34.88V96.68a11.44,11.44,0,0,1-1.82-.61,2.43,2.43,0,0,0-2.42.34c-.91.6,0,.6,0,1.21a1.35,1.35,0,0,0,.9,1.51" transform="translate(0 0)"></path>
  <path class="b" d="M171.19,193.36a16.92,16.92,0,0,0,.31-2.12v-2.73a3.45,3.45,0,0,0-2.12-.3,16.5,16.5,0,0,1-3.64.33h-1.51a3.37,3.37,0,0,0-1.21.3v4.24c0,.31,0,.31,1.81.31h3.34c.9,0,3,.27,3,0" transform="translate(0 0)"></path>
  <path class="b" d="M168.47,194.87s-.3-.3-1.52-.3H163v5.75a9.05,9.05,0,0,0,2.42-.33c1.21,0,2.42.58,2.42,0a2.64,2.64,0,0,0,.31-2.12,3.68,3.68,0,0,1-.31-1.82c.61-.91.61-1.21.61-1.21" transform="translate(0 0)"></path>
  <path class="b" d="M166.62,185.21c-.61,0-.91-.3-1.51-.3s-.91-.31-1.52-.31H163s-.31,1.52,0,1.82a4.57,4.57,0,0,0,3.33.58c1.21-.31,1.81,0,1.81-.31s.31-.6-.3-1.21-.6-.3-1.21-.3" transform="translate(0 0)"></path>
  <path class="b" d="M182.49,121.18H187c1.52,0,1.22-.6,1.22-1.21a2.3,2.3,0,0,0-.61-2.12c-.91-1.21-1.51-1.21-2.42-.88h-5.76l-.91-.6v4.54a1.1,1.1,0,0,0,.61.3,12.38,12.38,0,0,1,3.33,0" transform="translate(0 0)"></path>
  <path class="b" d="M182.88,90.89a5.88,5.88,0,0,0-1.81.31c-.61.3,0,.91,0,1.81v1.52c0,.3.3.6,1.21.6s.91,1.22.91,1.22H192s2.73.27,3.64.27,1.51-1.21,1.51-2.12a4.73,4.73,0,0,0-.64-2.43,34.85,34.85,0,0,0-4.84-1.18Z" transform="translate(0 0)"></path>
  <path class="b" d="M186.22,89.65H195c.3,0,2.12.3,2.73.27s3,.28,3.63.28.3-.61.3-1.82-.6-1.51-.6-1.51a13.77,13.77,0,0,1-2.43-1.49,26.41,26.41,0,0,0-5.75-1.48h-1.51c-.61,0-5.76.33-5.76.33V87c.3,1.51,0,2.72.64,2.72" transform="translate(0 0)"></path>
  <path class="b" d="M144.15,94.19a18.64,18.64,0,0,0-3.64-.57,15.24,15.24,0,0,1-2.12.3,25.24,25.24,0,0,1-4.24.64h-.6a3.27,3.27,0,0,0-1.22.3c-.6.3,0,.61.31,1.21s0,.91.3,1.21.3.31.91.31a1.14,1.14,0,0,1,.91.6l6.66-.66h2.73c.6,0,.91-.91.91-1.82a7.56,7.56,0,0,0-.91-1.52" transform="translate(0 0)"></path>
  <path class="b" d="M147.15,91.74c.3,0,.3-.6,0-1.51a1.3,1.3,0,0,0-.61-1.21l-1.82-.91a28.64,28.64,0,0,0-4.24-.58h-.91a40.56,40.56,0,0,1-4.24.94l.31.61c.3.6,0,.9.3,1.51s0,1.52.3,1.52,4.85-.64,5.15-.64h3.33a6.67,6.67,0,0,0,2.43.27" transform="translate(0 0)"></path>
  <path class="b" d="M240.73,90.8v-3h0l-5.45-2.09-3-.87-3-.58L225,82.14l-4.24-.88-7-3-3.33-.88L206,75.48l-11.23-3.85-5.45.64c-2.12,0-3.94-.58-6.06-.58-3.64.33-8.79,1.27-12.42,1.3-4.54,0-9.69.37-14.23.4H144.48l-7.57.66-7.85,4-3.9,2.45-7,3.58,1.21,1.51c.61.61.91,1.52,1.52,2.12s.3.91.9.91a6.43,6.43,0,0,0,3-1.24c2.12-1.21,4.55-1.85,6.33-3a28.73,28.73,0,0,1,3-1.54l.61-.31c.91-.6,2.12-.9,3-1.54a9.08,9.08,0,0,1,2.42-1.24h5.18l2.42.27c.91,0,1.52-.3,2.43-.33,3.33,0,6.66.24,10,0,2.12-.31,3.94-.34,6.06-.64a40.92,40.92,0,0,1,6.06.27h1.81c.91,0,1.82.31,3,.28s2.12-.31,3-.34,2.12.31,3.33.28,1.52-.31,2.42-.34h1.82a11,11,0,0,0,3-.33h3a33.49,33.49,0,0,0,5.75,2.09A79.33,79.33,0,0,0,207.51,83a36,36,0,0,1,5.75.88,53.29,53.29,0,0,1,6.39,2.39c2.58.91,5.09,2,7.58,3,1.51.6,3.33.88,5.15,1.48a3.75,3.75,0,0,0,1.81.31,2.59,2.59,0,0,1,1.52.3V93.2c0,.9.3,2.12.33,3v7.27h0l1.51-.3h0v-.3a3.68,3.68,0,0,0,.31-1.82c0-.91.3-1.51.27-2.42V98h.3c.31,0,.31-.3.61-.3h0a.27.27,0,0,0,.3-.24v-.06c.3,0,.3-.31.61-.31s.6-.3.91-.6h0a.28.28,0,0,0,.3-.24v-.07a1.93,1.93,0,0,1,.3-1.21v-.6a2.31,2.31,0,0,1,.3-1.52V91.68c-.9.3-.9-.3-.9-.91" transform="translate(0 0)"></path>
  <path class="b" d="M191.4,221.68a8.22,8.22,0,0,0,2.42.27v-.61c0-.6-.33-4.24-.33-4.24a3.78,3.78,0,0,0-1.52-.3,1.53,1.53,0,0,0-1.51,1.21,4.65,4.65,0,0,0-.31,2.12c0,1.52.61,1.21,1.22,1.52" transform="translate(0 0)"></path>
  <path class="b" d="M186.55,222.31c0,.61-.3.61-.3,1.52a6.63,6.63,0,0,0,.33,2.42c.3.91,0,1.21.3,1.51s.61.31,2.12.61h4.24a15.21,15.21,0,0,0,.28-2.42v-2.06a3.38,3.38,0,0,0-.31-1.21,10.33,10.33,0,0,0-2.42-.28c-1.21,0-2.12-.3-2.73-.27s-1.21,0-1.51.3" transform="translate(0 0)"></path>
  <path class="b" d="M193.88,229.94a1.07,1.07,0,0,0-.61-.3c-.3,0-.3,0-.9.3s-.31.61-.61,1.22a4.51,4.51,0,0,0-.3,2.12,5.91,5.91,0,0,0,.6,2.12c.31.6,1.21.6,1.82.6s.3-.3.3-.91v-1.81a17,17,0,0,0-.3-3.34" transform="translate(0 0)"></path>
  <path class="b" d="M178.34,134.24v-3a.28.28,0,0,0-.24-.31h-1.27a7.44,7.44,0,0,0-2.43.34,5.08,5.08,0,0,1-2.12.3,1.93,1.93,0,0,0-1.21.3H169a41,41,0,0,0-5.75.34h-.61a63.74,63.74,0,0,0-7.57.36c-.3,0-.91,0-.91-.3s-.3-.31-.6-.31h-2.73c-.61,0-.91.31-.91.61V133a10,10,0,0,1,.33,3V137h6.67a39.53,39.53,0,0,0,5.75-.33c1.82,0,3.94-.34,5.76-.34a33.17,33.17,0,0,0,5.45-.33h.6a11,11,0,0,0,3-.33c.61,0,.91-.3,1.22-.91a.28.28,0,0,1-.31-.24v-.06" transform="translate(0 0)"></path>
  <path class="b" d="M182.4,105.13H183c.3.3.6.3,1.21.3s.91-.3,1.21-.91h0c0-.91.3-1.81.27-2.72s-.3-.91-1.21-.91h-2.73c-.9,0-.9,0-1.21-.61h-1.81a6.08,6.08,0,0,0-2.43.34h-3.63a23,23,0,0,0-.27,4.54c0,.3,0,.3.3.6.91,0,3.63-.33,4.54-.33h0a1.91,1.91,0,0,1,1.21.3c.31,0,.61.31,1.21.31.61-.91,1.52-.91,2.73-.94" transform="translate(0 0)"></path>
  <path class="b" d="M146.93,102.74c.31,0,.31,0,.61.3a3,3,0,0,0,1.82.6h2.12a19.15,19.15,0,0,0,2.72.28h.31v-.31c0-.9.3-1.81.27-2.72V99.07c0-.3-.3-.3-.3-.6s-2.43-.28-2.43-.58a10.18,10.18,0,0,0-4.24-.58h-.91c-.91,0-1.21.31-1.21.91v.31a6.4,6.4,0,0,0,.64,3.33c-.31.6,0,.91.6.91" transform="translate(0 0)"></path>
  <path class="b" d="M234.4,137.48a10,10,0,0,0-2.12-.31c-.9,0,0,0-1.21-.6A3,3,0,0,0,229,136c-.91,0-.91,0-1.21.3a7,7,0,0,0-.27,2.73,9.41,9.41,0,0,0,.33,3c.3.6.91.6,1.82.91s4.84,1.18,4.84,1.18a5.65,5.65,0,0,0-.3-1.82c0-.91.3-1.82.27-2.42a6.16,6.16,0,0,0,0-2.42" transform="translate(0 0)"></path>
  <path class="b" d="M234.13,184.12a8.26,8.26,0,0,0,2.42.27v-.6c0-.61-.33-4.24-.33-4.24a3.75,3.75,0,0,0-1.51-.31c-.91,0-1.21.31-1.52,1.21a4.66,4.66,0,0,0-.3,2.12c0,1.22.61.91,1.21,1.52" transform="translate(0 0)"></path>
  <path class="b" d="M229.59,184.76c0,.6-.3.6-.3,1.51a6.42,6.42,0,0,0,.33,2.42c.3.91,0,1.21.3,1.52s.61.3,2.12.6h4.24a15.19,15.19,0,0,0,.27-2.42v-2.12a3.17,3.17,0,0,0-.3-1.21,10.38,10.38,0,0,0-2.42-.27c-1.21,0-2.12-.31-2.73-.28s-1.51-.3-1.51.31" transform="translate(0 0)"></path>
  <path class="b" d="M236.92,192a1.1,1.1,0,0,0-.61-.3c-.3,0-.3,0-.91.3s-.3.61-.6,1.22a4.49,4.49,0,0,0-.3,2.12,5.91,5.91,0,0,0,.6,2.12c0,.3.91.3,1.52.3s.3-.3.3-.91V192" transform="translate(0 0)"></path>
  <path class="b" d="M235.74,198.05c-1.21,0-.61,0-1.21.3s-1.22.91-1.82,1.22-.61,1.51.6,1.51a31.78,31.78,0,0,1,4.24.58V198h-1.81" transform="translate(0 0)"></path>
  <path class="b" d="M184.79,177.21a5.88,5.88,0,0,0-1.81.31c-.61.3,0,.91,0,1.81v1.52c0,.3.3.6,1.21.6s.91,1.22.91,1.22h8.78s2.73.27,3.63.27,1.52-1.21,1.52-2.12a4.93,4.93,0,0,0-.64-2.43c.31-.6-4.24-1.48-4.24-1.48h-9.36Z" transform="translate(0 0)"></path>
  <path class="b" d="M203,173.73a13.72,13.72,0,0,1-2.43-1.48,26.43,26.43,0,0,0-5.75-1.49h-1.52c-.6,0-5.75.34-5.75.34v2.72c0,.91-.3,2.12,0,2.12h8.78c.31,0,2.12.3,2.73.27s3,.28,3.63.28.31-.61.31-1.82c.6-.61,0-.91,0-.91" transform="translate(0 0)"></path>
  <path class="b" d="M211.05,177.91h-1.81c-.31,0-.91-.3-1.22,0V180c0,.61,0,.91.61,1.21a6.38,6.38,0,0,0,2.42.27c.61,0,1.21-2.12,1.18-2.72s-.3-.91-1.21-.91" transform="translate(0 0)"></path>
  <path class="b" d="M208,174.61c1.22.3,4.24.57,5.15.88s1.52.6,1.82.3a3,3,0,0,0,.61-1.51,3.79,3.79,0,0,0-.31-1.52c-.3-.91,0-.6-.6-1.21a4.42,4.42,0,0,0-3-.58h-4.24l-.3.61a2.59,2.59,0,0,0,0,1.82c.6.3-.31.91.9,1.21" transform="translate(0 0)"></path>
  <path class="b" d="M219.87,178.46c1.21-.31,1.51.3,1.51-.61s.3-1.51-.61-1.51h-2.12a1,1,0,0,0-.6.3.84.84,0,0,0,0,1.2h0c.6.61.6.91,1.82.61" transform="translate(0 0)"></path>
  <polygon class="b" points="228.04 180.21 231.38 180.21 231.68 179.3 231.65 174.76 228.01 174.49 228.04 180.21"></polygon>
  <path class="b" d="M236.52,222.28s-3.33-1.48-3.63-.88a6.74,6.74,0,0,0-.27,3.64c.3,1.21,0,2.42.63,2.72s3.64,1.18,3.64,1.18V224.1a5.11,5.11,0,0,1-.3-1.82" transform="translate(0 0)"></path>
  <path class="b" d="M232.31,228.37c-1.21-.3-2.12-.61-2.42-.27a2.76,2.76,0,0,0-.27,2.42c.3.91,0,1.82.6,2.12s0,.3,1.52.61a11.61,11.61,0,0,1,3.33.87c.3,0,1.21.91,1.52.61a26.19,26.19,0,0,0,0-4.85,30.54,30.54,0,0,0-4.25-1.48" transform="translate(0 0)"></path>
  <path class="b" d="M234.8,236.82c-.3-.3-1.21,0-1.52.3s.31.61.31,1.21a6.33,6.33,0,0,0,.3,2.12,2.22,2.22,0,0,0,.61,1.82c.3.61,2.42.27,2.42.27V237.4a14.25,14.25,0,0,1-2.12-.61" transform="translate(0 0)"></path>
  <path class="b" d="M237.28,244.66a10.73,10.73,0,0,0-2.12-.3c-.91,0,0,0-1.21-.6a3.48,3.48,0,0,0-2.12-.61c-.61,0-.91,0-1.21.3a6.81,6.81,0,0,0-.27,2.73,9.14,9.14,0,0,0,.33,3c.3.6.91.6,1.82.91s4.84,1.18,4.84,1.18a6.25,6.25,0,0,0-.3-1.82c0-.91.3-1.82.27-2.73v-2.12" transform="translate(0 0)"></path>
  <path class="b" d="M181.76,146.93c0,.3.31.6,1.22.6s.9,1.21.9,1.21h8.79s2.72.28,3.63.28,1.52-1.22,1.52-2.12a4.93,4.93,0,0,0-.64-2.43,33.3,33.3,0,0,0-4.85-1.18H183a6.25,6.25,0,0,0-1.82.3c-.61.31,0,.91,0,1.82.6.61.3.91.6,1.52" transform="translate(0 0)"></path>
  <path class="b" d="M202,141.35c0-1.21-.61-1.51-.61-1.51a13.34,13.34,0,0,1-2.42-1.49,27.24,27.24,0,0,0-5.76-1.48h-1.51c-.61,0-5.76.33-5.76.33v2.73c0,.91-.3,2.12,0,2.12h8.79c.3,0,2.12.3,2.72.27s3,.27,3.64.27c.91.61.91.31.91-1.21" transform="translate(0 0)"></path>
  <path class="b" d="M182.19,246.88v1.51c0,.3.3.61,1.21.61s.91,1.21.91,1.21h8.78s2.73.27,3.64.27,1.51-1.21,1.51-2.12a4.67,4.67,0,0,0-.64-2.42,32.23,32.23,0,0,0-4.84-1.18h-9.39a5.93,5.93,0,0,0-1.82.3c-.3.3.31.91.61,1.82" transform="translate(0 0)"></path>
  <path class="b" d="M187,243.82h8.79c.3,0,2.12.3,2.72.27s3,.27,3.64.27.3-.6.3-1.82-.6-1.51-.6-1.51a13.37,13.37,0,0,1-2.43-1.48,26.73,26.73,0,0,0-5.75-1.49h-1.52c-.6,0-5.75.33-5.75.33v2.73c.6,1.52.33,2.73.63,2.73" transform="translate(0 0)"></path>
  <path class="b" d="M227.74,265.05c-1.21.3-2.72,1.24-3.94,1.54s-2.12,0-3.63.34c-.3,0-.61.3-1.21.3s-.91.6-1.52.6a6.63,6.63,0,0,0-2.42.34c-1.51.3-2.73,1.24-4.24,1.54s-2.42,0-3.63.34a57.87,57.87,0,0,1-13.63,1.3c-.91,0-1.52-.31-2.12-.31l-1.52-.3-3.33-.88-3-.87-3.33-.88-2.73-.28-3-1.18-.9-.3-1.82.3-3.33-1.48-2.43-.58-5.14-1.33V269l6.66.84,2.42,1.18,5.76.58,2.42.88,1.21.3.61-.3,1.21.6,1.82.31H185l1.51.91,1.51.3,4.85.27,3.94,1.49a7.75,7.75,0,0,0,4.54-.34l4.85-1.24,4.84-1.85,3.33-.33,4.55-1.54,3.63-.34h.31l3.93-1.24,3.94-.94,1.51-.91,4.85-.63v-4.55a32.68,32.68,0,0,1-6.33,2.46,11,11,0,0,0-3,.33" transform="translate(0 0)"></path>
  <path class="b" d="M241.25,163.77a.27.27,0,0,1-.3-.24.09.09,0,0,1,0-.07h-.61a13.61,13.61,0,0,0-3-1.18L234,161.4c-1.51-.3-3-.27-4.54-.57a33.4,33.4,0,0,0-5.15-.88H224a10.22,10.22,0,0,0,3-.33,1.08,1.08,0,0,0,.61-.31l.3-.3a2.56,2.56,0,0,0-.3-1.51,2.08,2.08,0,0,0-1.51-1.22,2.66,2.66,0,0,0-1.52.31,8,8,0,0,0-1.82,1.51l-.9.91v.61a2.46,2.46,0,0,1-1.22-.31,2.36,2.36,0,0,0,1.22-1.21c.3-.6.3-1.21-.31-1.51h-.42c0-.91,0-1.21-.61-1.52a4.31,4.31,0,0,0-1.81-.6h-3c-.31,0-.61,0-.61.3v.91a.27.27,0,0,0,.24.3h1.88a1,1,0,0,1,.61.3h-2.12c-.31,0-.31.31-.31.91s.31.61.61.91c-.61-.3-1.21-.3-1.82-.6s-.6,0-.6-.31h.3c.3,0,.61-.3.61-.91v-.9c0-.61,0-.91-.61-1.22h-.61a.27.27,0,0,0,.31-.23v-.07c0-1.21-.31-2.12-1.25-2.42-.3,0-.6-.3-.9-.3-.91,0-1.82-.31-2.73-.28h-.91a3.69,3.69,0,0,1-1.82-.3h-.3c-.3,0-.3,0-.3.3a3.29,3.29,0,0,0,0,2.43.66.66,0,0,0,.6.6h3a4.64,4.64,0,0,1,2.12.3h-3.33c-.6-.3-.91,0-1.21.31s-.3.3-.61.3c0,.61,0,.91.31,1.21-.61,0-1.52-.3-2.12-.3h0c-.91-.3-1.82-.3-3-.58a17,17,0,0,1-3.94-.57,11.2,11.2,0,0,0-1.51-.3,3.87,3.87,0,0,0-1.79,0,6.59,6.59,0,0,1-2.42-.28c-1.22,0-2.12.31-3.34.34H163l-.25,9.08h6.91a12.4,12.4,0,0,1,3.33.27h4.24c.61,0,1.21-.3,2.12-.3H183c.6,0,1.21.3,1.81.3h3.64c1.21,0,2.12.31,3.33.28a6.43,6.43,0,0,0,2.42-.34,2.2,2.2,0,0,0,1.52-.3h1.51c.61,0,1.82.3,3,.27.3,0,.61.31.91.31.91.3,1.82.3,2.72.57h0l4.24.88,5.46.88a8.32,8.32,0,0,1,2.72.27c.61,0,1.52.3,2.12.3s1.82.31,2.43.28a5.81,5.81,0,0,1,2.42,0,19.84,19.84,0,0,0,4.54,1.18,22.65,22.65,0,0,0,4.24.88c1.21,0,2.12.3,3,.27h2.73l.36,7.27s3.27-9.42,3.88-10.63c.6-.61.6-.91-.91-2.12" transform="translate(0 0)"></path>
  <path class="b" d="M203.78,261.56c.31,0,.31,0,.61.31s.91.3,1.51.6h2.73a4.42,4.42,0,0,0,.39-2.24V256.9a20.21,20.21,0,0,0-4.24-.57h-.6c-.91,0-1.21.3-1.21.9v.31a5.25,5.25,0,0,0,.63,3c-.6.3-.3.6.3.9" transform="translate(0 0)"></path>
  <path class="b" d="M226.89,232.34c-1.21.3-2.42.33-3.93.63a8.24,8.24,0,0,1-3.94.34h-.91a37,37,0,0,1-5.76.63c-.3,0-.3.91-.6,1.21v.31a14.7,14.7,0,0,0,3.63,0,3.29,3.29,0,0,1,2.43,0h1.51a80.11,80.11,0,0,0,7.88-2.21.28.28,0,0,0,.3-.24v-.07c0-.6-.3-.6-.61-.6" transform="translate(0 0)"></path>
  <path class="b" d="M225.74,198.72h-.91c-.6,0-.91,0-1.21.3h-.3a.26.26,0,0,1-.24.3.06.06,0,0,1-.06,0v5.15h.6c.3,0,.61-.3.91-.3H226a3.69,3.69,0,0,0,1.82.3c.31,0,.61,0,.61.31h.91s1.51-.31,1.81-.31.61-.3.61-.91v-.3c0-.6,0-1.51-.61-1.82v-.6c0-.61,0-.91-.6-.91h-.37c-.3.3-.3-.91-.6-1.52a1.13,1.13,0,0,0-.91-.3h-.91c0,.3-1.82.61-2.12.61" transform="translate(0 0)"></path>
  <path class="b" d="M206.87,186.12h0c-.6.6-1.21.91-1.51,1.51s-.91,1.52-1.21,2.12-.31.91-.61,1.21a10.85,10.85,0,0,1-1.18,2.73,2.56,2.56,0,0,0-.3,1.51v1.43c.6.3,1.21-.3,1.81-.3h.31c.3,0,.3.3.6.3a1.36,1.36,0,0,1,.91,1.21v.91a2.64,2.64,0,0,1-.3,1.51,4.78,4.78,0,0,1-1.79,2.43v5.75c.33,2.42,0,4.54.37,7v14.84h2.42c.3.3.6.3.91.6a2.45,2.45,0,0,1,1.21.31h2.12a3.81,3.81,0,0,0,1.82-.31h3.33c.91,0,4.24-.33,4.84-.33h2.43a6.27,6.27,0,0,0,3.33,0c0-.3.3-.91.3-1.21v-2.73c-.3-.6,0-1.21,0-1.51v-7.88h0v-5.42a26.08,26.08,0,0,1,0-4.84V206c-.3,0-.6-.31-.91-.31s-1.21-.3-1.81-.3h-.31c-.6,0-.91,0-1.21.3v-4.24h0a13,13,0,0,0-.3-1.51v-.61h2.72c.31,0,.91-.3,1.22-.3s.3,0,.3-.3v-.91a7.88,7.88,0,0,0-.33-2.73c-.31-.91.3-1.21-.31-2.12s-.6-1.81-1.24-2.72c.61-1.52.61-1.52,0-2.12s-.61-.61-.91-.61a4,4,0,0,0-1.21-.91,11.31,11.31,0,0,0-3.33-1.48,7.26,7.26,0,0,0-2.42-.58,5.11,5.11,0,0,0-2.12-.3h-.61a14.15,14.15,0,0,0-5.15.94,2.48,2.48,0,0,0-1.82.91m3.34,41.76h-.91l-.34-35.7c.31-.31.61-.91.91-1.22h.3Zm2.72,0-1.18-38.16H213l.88,38.16Zm3.64,0-.94-37.31h1.21l.88,37.25Zm3.33,0-.85-33.61H220v.3l1.15,33.31Z" transform="translate(0 0)"></path>
  <path class="b" d="M205.18,200.38c0-.3.3-.6.3-.9v-1.82a.67.67,0,0,0-.61-.61c-.6,0-.9-.3-1.51,0a6.38,6.38,0,0,1-3.33.64h-.31c-.3,0-.6.3-.6.91a6,6,0,0,0,.33,2.42c.31.61.31.61.91.61a2.61,2.61,0,0,1,1.52.3c.3,0,.6.3,1.21.3H204c.3-.6.9-1.21,1.21-1.82" transform="translate(0 0)"></path>
  <path class="b" d="M207.81,230.94a12.4,12.4,0,0,0-3.33-.27l-.61.61v.3a8.74,8.74,0,0,0,0,3.94.66.66,0,0,0,.61.6h2.73c.6,0,.6,0,.6-.6V231h0" transform="translate(0 0)"></path>
  <path class="b" d="M216,139.72a2.61,2.61,0,0,0-1.52.3h-.3c-.3,0-.3.61-.3.91v.3a3.54,3.54,0,0,0,.6,2.12,3.28,3.28,0,0,0,3.64.58.27.27,0,0,0,.3-.24v-.07a2.53,2.53,0,0,0,0-2.12c-.3-.6-.6-.9-.91-1.51h1.22c.6,0,.6-.3.6-.91a6.56,6.56,0,0,0,0-2.42,1.57,1.57,0,0,0-.6-1.21,1.11,1.11,0,0,0-.91-.31h-.91a.68.68,0,0,0-.61.61,15.52,15.52,0,0,0-.6,2.12,2.12,2.12,0,0,0,.6,1.51c.61.31,0,.31-.3.31" transform="translate(0 0)"></path>
  <path class="b" d="M210,150.08h0a2.59,2.59,0,0,1,1.52.3,5.62,5.62,0,0,1,2.42.57h.61a1.12,1.12,0,0,0,1.21-1h0v-.18a3.27,3.27,0,0,1,.3-1.51c0-.61.3-.91.3-1.52s.91-1.51,0-1.81c-.3,0-.3-.31-.6-.31a13.17,13.17,0,0,0-1.52-.3h-4.27a.27.27,0,0,0-.3.24v.61c0,.91-.3,1.51-.27,2.42v.61c-.31,1.21,0,1.51.6,1.81" transform="translate(0 0)"></path>
  <polyline class="b" points="216.9 146.08 216.9 146.08 216.9 146.08 216.9 146.08"></polyline>
  <polyline class="b" points="216.9 146.08 216.9 146.08 216.9 146.08 216.9 146.08"></polyline>
  <path class="b" d="M223.62,155.13h3.58a.27.27,0,0,0,.3-.23v-.07a6.27,6.27,0,0,0,0-3.33,1.1,1.1,0,0,0-.3-.61c-.31-.6-.61-.91-.91-1.51a4,4,0,0,0-.91-1.21,1.06,1.06,0,0,1-.61-.31,1.15,1.15,0,0,0-.91.31,2.85,2.85,0,0,0-1.21,1.81c0,.61-.3.91-.3,1.52a4.25,4.25,0,0,0,0,2.73c.3.6.61.9,1.21.9" transform="translate(0 0)"></path>
  <path class="b" d="M212.32,143.08h0c.61-.61.91-1.21.61-1.82a1.36,1.36,0,0,0-.91-1.21h-5.45c-.61,0-1.21,1.21-.61,2.12s.61.91,1.22.91,1.21.3,1.81.3h.91a3.15,3.15,0,0,0,2.42-.33" transform="translate(0 0)"></path>
  <path class="b" d="M221.14,147.56c0-.6-.3-.91-.61-.91h-.3c-.91,0-1.51.31-2.42.34-.31,0-.31.3-.61.6s-.3.31-.3.61h0c-.3.91-.3,1.51-.58,2.42v.91c0,.3,0,.61.31.61l.9.9c.31.31.61.31.91.61a1.12,1.12,0,0,0,.91-.3,3,3,0,0,0,1.21-1.52,1.92,1.92,0,0,0,.31-1.21v-1.51a3.34,3.34,0,0,0,.3-1.52" transform="translate(0 0)"></path>
  <path class="b" d="M231.5,155.68h-2.43c-.3,0-.3.3-.3.6s-.3,1.52-.3,2.12,0,1.22.91,1.22h3.33c.3,0,.91-.31,1.21-.31l.3-.3v-2.12c0-.61,0-.91-.6-.91a1.92,1.92,0,0,0-2.12-.3" transform="translate(0 0)"></path>
  <path class="b" d="M227.8,144.81a1.61,1.61,0,0,0-.6-1.22,4.4,4.4,0,0,0-1.82-.6h-.61a2.2,2.2,0,0,0-.57,2.42,3,3,0,0,0,1.21,1.52c.3,0,.6.3.91.3s.6.3.91.3.3,0,.6-.3a1,1,0,0,0,.3-.61c-.3-.3-.3-1.21-.3-1.81" transform="translate(0 0)"></path>
  <path class="b" d="M222.65,145.74c.31,0,.61-.3.91-.3s.3-.3.3-.91,0-.91-.3-1.21a1.12,1.12,0,0,0-.91-.3c-.6,0-.91-.3-1.51-.3h-.61c-.3,0-.6,0-.6.3s-.31.6-.31.91-.3.6-.3.91a1.22,1.22,0,0,0,.61,1.21,13,13,0,0,1,1.51.3,2.37,2.37,0,0,1,1.21-.61" transform="translate(0 0)"></path>
  <path class="b" d="M221.14,141.81a1.12,1.12,0,0,0,.91.3c.3,0,.6-.3.91-.3s.3-.31.3-.61c0-.91,0-1.51-.61-1.51s-.91-.31-1.51-.31-.61.31-.91.61v.3c0,.31,0,.31.3.61s.31.6.61.91" transform="translate(0 0)"></path>
  <path class="b" d="M204.66,128.9v-2.72a1.1,1.1,0,0,0-.3-.61,1.13,1.13,0,0,0-.91-.3c-.91-.3-2.12-.3-3-.58a7.6,7.6,0,0,0-2.42-.27c-1.21-.3-2.12-.3-3.33-.57h-.79c0,2.12-.27,4.24-.27,6.36a1.12,1.12,0,0,0,.91.3c1.81,0,3.63.27,5.14.27a14.78,14.78,0,0,0,3.64,0,1.9,1.9,0,0,0,1.51-1.81" transform="translate(0 0)"></path>
  <path class="b" d="M192.21,123.24h-2.72A4.44,4.44,0,0,0,187.7,126v3.33c0,.6.3.91.91,1.21a.56.56,0,0,0,.81,0h0a6,6,0,0,1,2.12-.61c.6,0,.6-.3.6-.6v-2.73a6.13,6.13,0,0,1,.31-2.12h0v-.91c.3-.3.3-.3-.31-.3" transform="translate(0 0)"></path>
</svg>
