<?xml version="1.0" encoding="utf-8"?>
<!-- Generator: Adobe Illustrator 16.0.0, SVG Export Plug-In . SVG Version: 6.00 Build 0)  -->
<!DOCTYPE svg PUBLIC "-//W3C//DTD SVG 1.1//EN" "http://www.w3.org/Graphics/SVG/1.1/DTD/svg11.dtd">
<svg version="1.1" id="Layer_1" xmlns="http://www.w3.org/2000/svg" xmlns:xlink="http://www.w3.org/1999/xlink" x="0px" y="0px"
	 width="79.99px" height="69px" viewBox="0 0 79.99 69" enable-background="new 0 0 79.99 69" xml:space="preserve">
<g>
	<g>
		<defs>
			<rect id="SVGID_1_" x="18.153" y="12.675" width="43.688" height="43.674"/>
		</defs>
		<clipPath id="SVGID_2_">
			<use xlink:href="#SVGID_1_"  overflow="visible"/>
		</clipPath>
		<path clip-path="url(#SVGID_2_)" fill="#5e292a" d="M40.051,50.636c-9.651,0-16.129-6.476-16.129-16.124
			c0-9.649,6.478-16.124,16.129-16.124S56.18,24.863,56.18,34.512C56.18,44.16,49.702,50.636,40.051,50.636 M39.997,12.676
			c-12.064,0-21.843,9.776-21.843,21.836c0,12.06,9.779,21.836,21.843,21.836c12.064,0,21.844-9.776,21.844-21.836
			C61.841,22.452,52.062,12.676,39.997,12.676"/>
	</g>
	<polygon fill="#5e292a" points="56.321,23.14 28.621,50.83 23.673,45.885 51.373,18.193 	"/>
</g>
</svg>
