<?xml version="1.0" encoding="utf-8"?>
<!-- Generator: Adobe Illustrator 16.0.0, SVG Export Plug-In . SVG Version: 6.00 Build 0)  -->
<!DOCTYPE svg PUBLIC "-//W3C//DTD SVG 1.1//EN" "http://www.w3.org/Graphics/SVG/1.1/DTD/svg11.dtd">
<svg version="1.1" id="Layer_1" xmlns="http://www.w3.org/2000/svg" xmlns:xlink="http://www.w3.org/1999/xlink" x="0px" y="0px"
	 width="79.99px" height="69px" viewBox="0 0 79.99 69" enable-background="new 0 0 79.99 69" xml:space="preserve">
<g>
	<defs>
		<rect id="SVGID_1_" x="18.223" y="12.745" width="43.549" height="43.535"/>
	</defs>
	<clipPath id="SVGID_2_">
		<use xlink:href="#SVGID_1_"  overflow="visible"/>
	</clipPath>
	<path clip-path="url(#SVGID_2_)" fill="#5e292a" d="M56.933,56.279c2.673,0,4.839-2.167,4.839-4.839V17.599
		c0-2.673-2.166-4.854-4.839-4.854H23.062c-2.671,0-4.839,2.153-4.839,4.824V51.44c0,2.672,2.167,4.839,4.839,4.839H56.933z"/>
	<path clip-path="url(#SVGID_2_)" fill="#FFFFFF" d="M30.399,33.73c3.653,0,3.653-2.61,3.653-3.654c0-2.284-1.272-3.23-4.305-3.23
		h-2.651v6.884H30.399z M27.097,46.223h-4.893V22.801h9.468c4.534,0,7.274,2.903,7.274,7.502c0,2.122-1.174,7.472-7.47,7.472h-4.379
		V46.223z"/>
	<path clip-path="url(#SVGID_2_)" fill="#FFFFFF" d="M49.812,33.73c3.654,0,3.654-2.61,3.654-3.654c0-2.284-1.272-3.23-4.306-3.23
		h-2.651v6.884H49.812z M46.509,46.223h-4.893V22.801h9.468c4.535,0,7.274,2.903,7.274,7.502c0,2.122-1.174,7.472-7.472,7.472
		h-4.378V46.223z"/>
</g>
</svg>
