<?xml version="1.0" encoding="utf-8"?>
<!-- Generator: Adobe Illustrator 16.0.0, SVG Export Plug-In . SVG Version: 6.00 Build 0)  -->
<!DOCTYPE svg PUBLIC "-//W3C//DTD SVG 1.1//EN" "http://www.w3.org/Graphics/SVG/1.1/DTD/svg11.dtd">
<svg version="1.1" id="Layer_1" xmlns="http://www.w3.org/2000/svg" xmlns:xlink="http://www.w3.org/1999/xlink" x="0px" y="0px"
	 width="79.99px" height="69px" viewBox="0 0 79.99 69" enable-background="new 0 0 79.99 69" xml:space="preserve">
<g>
	<g>
		<defs>
			<rect id="SVGID_1_" x="18.257" y="12.762" width="43.48" height="43.48"/>
		</defs>
		<clipPath id="SVGID_2_">
			<use xlink:href="#SVGID_1_"  overflow="visible"/>
		</clipPath>
		<path clip-path="url(#SVGID_2_)" fill="none" stroke="#5e292a" stroke-width="3" d="M39.997,54.824
			c11.206,0,20.322-9.116,20.322-20.323c0-11.206-9.116-20.322-20.322-20.322c-11.206,0-20.322,9.116-20.322,20.322
			C19.675,45.708,28.792,54.824,39.997,54.824z"/>
	</g>
	<polygon fill="#5e292a" points="37.58,32.605 42.938,35.394 48.325,18.22 	"/>
	<polygon fill="#5e292a" points="42.414,36.398 37.057,33.61 31.669,50.784 	"/>
	<g>
		<defs>
			<rect id="SVGID_3_" x="18.257" y="12.762" width="43.48" height="43.48"/>
		</defs>
		<clipPath id="SVGID_4_">
			<use xlink:href="#SVGID_3_"  overflow="visible"/>
		</clipPath>
		<path clip-path="url(#SVGID_4_)" fill="#5e292a" d="M38.239,37.879c1.515,0.789,3.383,0.2,4.172-1.315
			c0.79-1.515,0.199-3.384-1.315-4.173c-1.516-0.788-3.383-0.199-4.172,1.316C36.135,35.222,36.724,37.089,38.239,37.879"/>
		<circle clip-path="url(#SVGID_4_)" fill="none" stroke="#FFFFFF" cx="39.667" cy="35.135" r="3.094"/>
	</g>
</g>
</svg>
