<?xml version="1.0" encoding="utf-8"?>
<!-- Generator: Adobe Illustrator 19.0.0, SVG Export Plug-In . SVG Version: 6.00 Build 0)  -->
<svg version="1.1" id="Layer_3" xmlns="http://www.w3.org/2000/svg" xmlns:xlink="http://www.w3.org/1999/xlink" x="0px" y="0px"
	 viewBox="-145 347 320 100" style="enable-background:new -145 347 320 100;" xml:space="preserve">
<style type="text/css">
	.st0{fill:#672E2A;}
	.st1{fill:none;}
	.st2{fill:#2929B7;}
</style>
<g>
	<g>
		<polygon class="st0" points="-31.7,418.4 -31.7,393.3 -35.7,393.3 -35.7,421.9 -25.6,421.9 -25.6,418.4 		"/>
		<path class="st0" d="M-75.3,410h2.6v6.6c0,0.9-0.1,2.6-2,2.6s-2-1.6-2-3.5v-16.5c0-1.4-0.1-3.2,1.8-3.2c1.7,0,1.7,1.3,1.7,2.9v3.1
			h3.5v-2.9c0-2.1,0.1-6.3-5.1-6.3c-1.2,0-3.2,0.2-4.6,2.4c-1.1,1.6-0.9,3.3-0.9,5.8v14.2c0,2.1-0.1,7.2,5.1,7.2
			c2.1,0,2.9-1.2,3.4-1.8l0.3,1.3h2.2v-15.4h-6.2v3.5L-75.3,410L-75.3,410z"/>
		<path class="st0" d="M-44.9,393c-1.8,0-3.6,0.7-4.8,2c-1.3,1.5-1.5,3.4-1.5,6v14.4c0,1.4,0,2.8,0.7,4.1c1.4,2.8,4.4,2.8,5.2,2.8
			c6.2,0,6.4-4.6,6.4-6.8v-13.6c0-3.5-0.1-5.5-1.7-7.2C-41.7,393.3-43.3,393-44.9,393z M-42.7,415.1c0,2,0,3.9-2.3,3.9
			c-2.1,0-2.1-1.6-2.1-3v-15.4c0-1.8-0.1-2.4,0.2-3c0.5-1.4,1.8-1.4,2.1-1.4c2.2,0,2.2,1.9,2.2,4.4v14.5H-42.7z"/>
		<path class="st0" d="M-62.4,393.3l-4,28.6h3.7l0.7-5.3h4.3l0.7,5.3h3.7l-4.4-28.6C-57.8,393.3-62.4,393.3-62.4,393.3z
			 M-61.7,413.1l1.2-9.9c0.1-0.5,0.1-0.7,0.2-4.6h0.3c0,2.2,0.1,3.5,0.2,4.6l1.4,10C-58.3,413.1-61.7,413.1-61.7,413.1z"/>
	</g>
	<g>
		<path class="st0" d="M-65.6,389.1v-10.3c0-1.2-0.3-2.3-2.5-2.3h-3.6v15.4h3.8C-66.3,391.9-65.6,391.2-65.6,389.1z M-67.8,389.1
			c0,0.5-0.1,0.7-0.7,0.7H-70v-11.4h1.4c0.8,0,0.9,0.4,0.9,1v9.7L-67.8,389.1L-67.8,389.1z"/>
		<rect x="-42.3" y="376.5" class="st0" width="1.8" height="15.4"/>
		<path class="st0" d="M-48.5,388.9h2.3l0.4,3.1h2l-2.4-15.4h-2.5l-2.2,15.4h2L-48.5,388.9z M-47.6,381.7c0-0.3,0-0.4,0.1-2.6h0.2
			c0,1.3,0,1.9,0.1,2.5l0.8,5.4h-1.8L-47.6,381.7z"/>
		<polygon class="st0" points="-25.6,389.7 -28.7,389.7 -28.7,384.9 -26,384.9 -26,382.7 -28.7,382.7 -28.7,378.3 -25.6,378.3 
			-25.6,376.5 -30.4,376.5 -30.4,391.9 -25.6,391.9 		"/>
		<polygon class="st0" points="-55.1,376.5 -57.3,376.5 -57.3,391.9 -52,391.9 -52,389.7 -55.1,389.7 		"/>
		<path class="st0" d="M-32.6,389.1v-10.3c0-1.2,0-2.3-2.2-2.3h-3.5v15.4h3.7C-33,391.9-32.6,391.2-32.6,389.1z M-35.2,389.7h-1.4
			v-11.4h1.2c0.8,0,1,0.4,1,1v9.7C-34.4,389.6-34.6,389.7-35.2,389.7z"/>
		<path class="st0" d="M-78,388.9h2.3l0.4,3.1h2l-2.4-15.4h-2.5l-2.2,15.4h2L-78,388.9z M-77.2,381.7c0-0.3,0-0.4,0.1-2.6h0.2
			c0,1.3,0,1.9,0.1,2.5l0.8,5.4h-1.8L-77.2,381.7z"/>
		<polygon class="st0" points="-59,389.7 -62.1,389.7 -62.1,384.9 -59,384.9 -59,382.7 -62.1,382.7 -62.1,378.3 -59,378.3 
			-59,376.5 -63.9,376.5 -63.9,391.9 -59,391.9 		"/>
	</g>
	<g>
		<path class="st0" d="M-85.4,400.1c-0.3-0.3-9.6-1.9-9.8-2c-0.2,0-6.8,0-6.8,0v1.9c0,0,5.8,0,7.3,0.1s8.7,1.4,8.7,1.4l0.1,1.6
			c0,0,0.7-2,0.8-2.3C-85.1,400.5-85.1,400.4-85.4,400.1z"/>
		<line class="st1" x1="-94.5" y1="377.8" x2="-108.6" y2="378.3"/>
		<line class="st1" x1="-94.6" y1="373.9" x2="-99.5" y2="374"/>
		<line class="st1" x1="-94.9" y1="372.8" x2="-99.5" y2="373.1"/>
		<path class="st0" d="M-86.8,394.4c0,0-0.3-0.1-0.5-0.1s0,0-0.2-0.1s-0.3-0.1-0.4-0.1s-0.2,0-0.2,0.1c-0.1,0.1-0.1,0.4-0.1,0.6
			s0,0.5,0.1,0.6c0.1,0.2,0.2,0.1,0.4,0.2s1,0.3,1,0.3s0-0.2-0.1-0.4c0-0.2,0.1-0.4,0.1-0.6C-86.8,394.8-86.8,394.4-86.8,394.4z"/>
		<path class="st0" d="M-86.9,404.4c0.1,0.1,0.6,0,0.6,0v-0.1c0-0.1-0.1-0.9-0.1-0.9s-0.2-0.1-0.3-0.1s-0.3,0.1-0.4,0.3
			c-0.1,0.2,0,0.2,0,0.5C-87.2,404.4-87,404.3-86.9,404.4z"/>
		<path class="st0" d="M-88,404.6c0,0.1-0.1,0.1,0,0.3c0,0.2,0,0.3,0.1,0.5s0,0.3,0.1,0.3s0.2,0.2,0.4,0.2c0.3,0,0.4,0.1,0.5,0.1
			h0.3h0.1c0,0,0.1-0.4,0.1-0.6s0-0.4,0-0.5s0-0.3,0-0.3s-0.2-0.1-0.5-0.1s-0.4-0.1-0.6-0.1C-87.8,404.5-87.9,404.4-88,404.6z"/>
		<path class="st0" d="M-86.4,406.7c0-0.2,0-0.6,0-0.6s0-0.1-0.1-0.1s-0.1,0-0.2,0s-0.1,0.1-0.2,0.2s0,0.3,0,0.4
			c0,0.2,0.1,0.3,0.1,0.5c0,0.1,0.2,0.1,0.4,0.1c0.2,0,0.1-0.1,0.1-0.2C-86.4,407-86.4,406.9-86.4,406.7z"/>
		<path class="st0" d="M-86.3,408c0-0.2,0-0.5,0-0.5s-0.2,0-0.4,0c-0.2,0-0.1,0-0.3,0.1c-0.1,0.1-0.3,0.2-0.4,0.3
			c-0.1,0.1-0.1,0.3,0.2,0.3c0.3,0,0.9,0.1,0.9,0.1L-86.3,408L-86.3,408z"/>
		<path class="st0" d="M-97.5,402.9c0,0-0.2,0-0.4,0c-0.2,0.1,0,0.2,0,0.4c0,0.2,0,0.2,0,0.3c0,0.1,0.1,0.1,0.3,0.1
			c0.2,0,0.2,0.2,0.2,0.2h1.9c0,0,0.6,0.1,0.8,0.1c0.2,0,0.3-0.2,0.3-0.5c0-0.2-0.1-0.5-0.2-0.6s-1-0.3-1-0.3s-0.4,0-0.6,0.1
			c-0.2,0-1.2,0.1-1.2,0.1L-97.5,402.9L-97.5,402.9z"/>
		<path class="st0" d="M-93.6,402.2c0,0-0.4-0.2-0.5-0.3c-0.1-0.1-1.2-0.3-1.2-0.3s-0.2,0-0.3,0c-0.2,0-1.2,0.1-1.2,0.1v0.2
			c0,0.2,0,0.3,0,0.5s-0.1,0.4,0,0.4s1.4,0,1.5,0s0.2,0,0.3,0c0.1,0,0.4,0.1,0.6,0.1s0.6,0.1,0.8,0.1s0.1-0.1,0.1-0.4
			C-93.5,402.3-93.6,402.2-93.6,402.2z"/>
		<path class="st0" d="M-91.9,403.1h-0.4c-0.1,0-0.2,0-0.2,0s0,0.3,0,0.4c0,0.2,0,0.2,0.1,0.2s0.4,0.1,0.5,0.1s0.3-0.5,0.2-0.6
			C-91.7,403.1-91.7,403.1-91.9,403.1z"/>
		<path class="st0" d="M-92.5,402.4c0.3,0.1,0.9,0.2,1.1,0.2s0.3,0.1,0.4,0s0.2-0.2,0.2-0.3c0-0.1,0-0.1,0-0.3
			c-0.1-0.2,0-0.2-0.1-0.3c-0.1-0.1-0.4-0.1-0.6-0.1s-0.5,0-0.6,0h-0.3v0.1c0,0,0,0.1,0,0.3C-92.6,402.2-92.8,402.3-92.5,402.4z"/>
		<path class="st2" d="M-90.7,401.1c-0.1,0-0.4,0-0.5,0s-0.1,0-0.3,0"/>
		<path class="st0" d="M-100.5,406.4c0-0.1,0-0.3,0-0.5s0-0.6,0-0.6s-0.3-0.1-0.5-0.1s-0.7,0.1-0.8,0.1c-0.1,0-0.2,0-0.3,0
			c-0.1,0-0.3,0-0.3,0s0,0.9,0,1s0,0.2,0.4,0.2h0.7C-100.9,406.5-100.5,406.5-100.5,406.4z"/>
		<path class="st0" d="M-101,406.6c0,0-0.1-0.1-0.3-0.1h-0.5h-0.4c0,0,0,0.5,0,0.8v0.5c0,0,0.3,0,0.5,0s0.5,0.1,0.5,0
			s0.1-0.3,0.1-0.5c-0.1-0.1-0.1-0.3,0-0.4C-101,406.7-101,406.6-101,406.6z"/>
		<path class="st0" d="M-92.8,414.6l-0.1,0.3l-0.1,1.3h4.4v-1.4l-0.2-0.3c0,0,0.1-2.4,0.1-6.2c0-3.7-1.6-4.1-2.2-4.2
			c-0.6,0-1.8,0.6-1.9,2.1C-92.8,407.7-92.8,414.6-92.8,414.6z"/>
		<polygon class="st0" points="-88.5,408 -87.8,408 -87.7,407.8 -87.7,406.8 -88.5,406.7 		"/>
		<polygon class="st0" points="-94.2,406.8 -94.2,408 -93,408 -93,406.8 		"/>
		<path class="st0" d="M-86.3,414v-0.6c0-0.2-0.1-0.3-0.1-0.5c0-0.1-0.1-0.4-0.1-0.4s-0.7-0.3-0.8-0.2c-0.1,0.1-0.2,0.5-0.1,0.8
			c0.1,0.2,0.1,0.5,0.2,0.6S-86.3,414-86.3,414z"/>
		<path class="st0" d="M-87.9,413.9c-0.1,0.1-0.2,0.3-0.1,0.5s0,0.4,0.2,0.5c0.1,0.1,0,0.1,0.3,0.2c0.4,0.1,0.6,0.2,0.7,0.2
			s0.2,0.2,0.3,0.1c0.1-0.1,0-1,0-1s-0.6-0.3-0.9-0.3C-87.7,413.9-87.8,413.8-87.9,413.9z"/>
		<path class="st0" d="M-87,416.5c0,0.1,0,0.2,0.1,0.4c0.1,0.1,0.5,0.1,0.5,0.1l-0.1-1.1c0,0-0.3,0-0.4-0.1s-0.3,0-0.3,0.1
			s0.1,0.2,0.1,0.2C-87.1,416.2-87.1,416.4-87,416.5z"/>
		<path class="st0" d="M-86.4,417.4c0,0-0.3-0.1-0.5-0.1s0,0-0.2-0.1s-0.3-0.1-0.4-0.1c-0.2,0-0.2,0-0.2,0.1
			c-0.1,0.1-0.1,0.4-0.1,0.6s0,0.5,0.1,0.6c0.1,0.2,0.2,0.1,0.4,0.2c0.2,0.1,1,0.3,1,0.3s0-0.2-0.1-0.4c0-0.2,0.1-0.4,0.1-0.6
			C-86.4,417.8-86.4,417.4-86.4,417.4z"/>
		<path class="st0" d="M-98.1,396.4c0,0.1,0.1,0.1,0.3,0.1c0.2,0,0.2,0.2,0.2,0.2h1.9c0,0,0.6,0.1,0.8,0.1s0.3-0.2,0.3-0.5
			c0-0.2-0.1-0.5-0.2-0.5c-0.1-0.1-1-0.3-1-0.3s-0.4-0.1-0.6,0c-0.2,0-1.2-0.1-1.2-0.1h-0.2c0,0-0.2,0.1-0.4,0.1
			c-0.2,0.1,0,0.2,0,0.4C-98.1,396.2-98.2,396.3-98.1,396.4z"/>
		<path class="st0" d="M-93.8,395.3c0-0.3-0.1-0.3-0.1-0.3s-0.4-0.2-0.5-0.3c-0.1-0.1-1.2-0.3-1.2-0.3s-0.2,0-0.3,0
			c-0.2,0-1.2,0.1-1.2,0.1v0.2c0,0.2,0,0.3,0,0.5s-0.1,0.4,0,0.4s1.4,0,1.5,0s0.2,0,0.3,0c0.1,0,0.4,0.1,0.6,0.1s0.6,0.1,0.8,0.1
			C-93.8,395.7-93.8,395.5-93.8,395.3z"/>
		<path class="st0" d="M-98.2,417.8c0,0.2,0,0.2,0,0.3c0,0.1,0.1,0.1,0.3,0.1c0.2,0,0.2,0.2,0.2,0.2h1.9c0,0,0.6,0.1,0.8,0.1
			c0.2,0,0.3-0.2,0.3-0.5c0-0.2-0.1-0.5-0.2-0.5c-0.1-0.1-1-0.3-1-0.3s-0.4,0.1-0.6,0.1s-1.2,0.1-1.2,0.1h-0.2c0,0-0.2-0.1-0.4,0
			C-98.3,417.5-98.2,417.6-98.2,417.8z"/>
		<path class="st0" d="M-97.1,417.1c0.1,0,1.4,0,1.5,0s0.2,0,0.3,0c0.1,0,0.4,0.1,0.6,0.1s0.6,0.1,0.8,0.1c0.1,0,0.1-0.1,0.1-0.4
			s-0.1-0.3-0.1-0.3s-0.4-0.2-0.5-0.3c-0.1-0.1-1.2-0.3-1.2-0.3s-0.2,0-0.3,0c-0.2,0-1.2,0.1-1.2,0.1v0.2c0,0.2,0,0.3,0,0.5
			C-97.2,416.9-97.2,417.1-97.1,417.1z"/>
		<polygon class="st0" points="-107.9,374.4 -103.1,374.3 -103,375.6 -99.9,375.5 -100,375.2 -102.2,375.3 -102.9,373.4 
			-107.5,373.4 -110.5,375.4 -110.2,375.9 		"/>
		<polygon class="st0" points="-95.1,379.7 -107.8,380.2 -111.9,382.3 -111.8,382.7 -107.6,380.6 -95.1,380.2 -85.4,383.5 
			-85.3,383 		"/>
		<polygon class="st0" points="-86.6,387.2 -86.3,387.2 -86.2,386.2 -85.5,385.9 -85.4,383.8 -95.2,380.4 -107.6,380.8 
			-111.7,382.9 -111,383.9 -107.3,382.1 -95,381.9 -86.7,384.6 		"/>
		<polygon class="st0" points="-85.9,379.3 -85.7,377.7 -86.9,377.2 -86.9,377 -88.8,376.3 -89.3,376.9 -88.9,377.2 -89,377.9 
			-91.6,377 -91.8,375.8 -94.9,374.6 -99.7,374.9 -99.6,375.8 -103.2,375.9 -103.3,374.6 -107.8,374.7 -110.4,376.1 -110.1,376.7 
			-111.6,377.7 -112.2,377.3 -114.1,378.6 -112.9,380.5 -108.6,378.1 -94.5,377.6 -85.9,380.8 -85.9,380.1 -86.3,379.9 -86.3,379.6 
					"/>
		<polygon class="st0" points="-108.3,378.9 -112.6,381.4 -112,382.2 -107.9,380 -95.1,379.5 -85.2,382.9 -85.2,381.9 -94.6,378.4 
					"/>
		<polygon class="st0" points="-112.3,377 -111.6,377.4 -110.4,376.6 -110.6,376.2 -111.6,376 -114.3,377.7 -114.5,377.9 
			-114.3,378.3 		"/>
		<polygon class="st0" points="-89.4,376.8 -88.8,376.1 -86.8,376.8 -86.8,377 -85.6,377.5 -85.6,377 -86.3,376.6 -86.3,376.3 
			-89.3,375.1 -90.7,375.7 -90.6,376.4 		"/>
		<path class="st0" d="M-99.1,388.9L-99.1,388.9v-1.8h0.4c0,0-0.5-2.4-2.9-2.5s-3.1,2.5-3.1,2.5h0.8v2.2h-0.4v4.5l1.3,2.1h4v-7
			L-99.1,388.9L-99.1,388.9z"/>
		<path class="st0" d="M-87.6,388.7c0.1,0.1,0.9,0.3,0.9,0.3v-0.5c0-0.2-0.1-0.3-0.1-0.5c0-0.1-0.1-0.4-0.1-0.4s-0.7-0.3-0.8-0.2
			c-0.1,0.1-0.1,0.5-0.1,0.8C-87.7,388.4-87.8,388.6-87.6,388.7z"/>
		<path class="st0" d="M-88.3,388.8c-0.1,0.1-0.2,0.3-0.1,0.5s0,0.4,0.2,0.5s0,0.1,0.3,0.2c0.4,0.1,0.6,0.2,0.7,0.2s0.2,0.2,0.3,0.1
			c0.1-0.1,0-1,0-1s-0.6-0.3-0.9-0.3C-88.1,388.8-88.2,388.7-88.3,388.8z"/>
		<path class="st0" d="M-88.7,391.1c-0.1,0.1-0.1,0.2,0,0.4c0,0.2,0.1,0.1,0.2,0.1s0.1,0.2,0.2,0.4c0.1,0.2,0.1,0.1,0.3,0.2
			c0.2,0.2,0.3,0.2,0.5,0.3c0.2,0.1,0.3,0.2,0.5,0.1c0.2,0,0.1-1.3,0.1-1.3l-0.3-0.2c0,0-0.3-0.1-0.5-0.2c-0.1-0.1-0.2,0-0.4,0
			c-0.2,0-0.2,0-0.4-0.1C-88.6,390.9-88.6,391-88.7,391.1z"/>
		<path class="st0" d="M-87.7,386.2c0.1,0.1,0.7,0.2,0.7,0.2v-0.7c0,0-0.2-0.1-0.4-0.1c-0.1-0.1-0.3-0.1-0.5,0.1s0,0.2,0,0.3
			C-87.8,386.1-87.8,386.1-87.7,386.2z"/>
		<path class="st0" d="M-97.9,391.1h0.9c0.3,0,0.3-0.3,0.3-0.3c0-0.1,0-0.3-0.1-0.5c-0.2-0.2-0.3-0.3-0.6-0.2c-0.3,0-1.2,0-1.2,0
			h-0.1v0.3v0.6c0,0,0,0.1,0.1,0.1C-98.5,390.9-98.2,391.1-97.9,391.1z"/>
		<polygon class="st0" points="-97.5,388.5 -97.4,387.4 -99.1,387.3 -99.1,388.7 -97.7,388.7 		"/>
		<polygon class="st0" points="-104.1,387.4 -106.1,387.4 -106.2,388.9 -104.1,388.9 		"/>
		<polygon class="st0" points="-124.2,364.9 -124.2,368.6 -102.9,398.4 -103.5,422.3 -118.1,428.2 -116.6,429.1 -102.9,422.6 
			-102.3,398 		"/>
		<path class="st0" d="M-97.9,385.3c0.2,0,0.2,0.2,0.2,0.2h1.9c0,0,0.6,0.1,0.8,0.1s0.3-0.2,0.3-0.5c0-0.2-0.1-0.5-0.2-0.6
			s-1-0.3-1-0.3s-0.4,0-0.6,0.1c-0.2,0-1.2,0.1-1.2,0.1h-0.2c0,0-0.2,0-0.4,0c-0.2,0.1,0,0.2,0,0.3c0,0.2,0,0.2,0,0.3
			C-98.1,385.2-98,385.3-97.9,385.3z"/>
		<path class="st0" d="M-93.8,384c0-0.3-0.1-0.3-0.1-0.3s-0.4-0.2-0.5-0.3c-0.1-0.1-1.2-0.3-1.2-0.3s-0.2,0-0.3,0
			c-0.2,0-1.2,0.1-1.2,0.1v0.2c0,0.2,0,0.3,0,0.5s-0.1,0.4,0,0.4s1.4,0,1.5,0s0.2,0,0.3,0c0.1,0,0.4,0.1,0.6,0.1s0.6,0.1,0.8,0.1
			C-93.8,384.4-93.8,384.3-93.8,384z"/>
		<path class="st0" d="M-107.8,384.7c0.1,0,1-0.1,1.1-0.1s0.2,0,0.2,0c0.1,0,0.3,0,0.5,0s0.5,0,0.6,0s0.1-0.1,0-0.3
			c0-0.2-0.1-0.2-0.1-0.2s-0.3-0.1-0.4-0.2s-0.9-0.1-0.9-0.1s-0.1,0-0.2,0s-0.9,0.2-0.9,0.2v0.1c0,0.1,0,0.2,0,0.3
			C-107.9,384.5-107.9,384.7-107.8,384.7z"/>
		<path class="st0" d="M-96.1,422.9l-6.5-1.7v1.2l7.6,1.7c0,0,0.4,0.1,1-0.1l7.7-2v-1C-86.3,421.1-93.7,423.5-96.1,422.9z"/>
		<polygon class="st0" points="-108.6,378.3 -112.9,380.8 -112.7,381.1 -108.3,378.7 -94.6,378.2 -85.1,381.7 -85.1,381.2 
			-94.5,377.8 		"/>
		<polygon class="st0" points="-91.6,375.8 -91.2,375.4 -94.6,373.9 -99.5,374 -99.5,374.8 -94.7,374.5 		"/>
		<polygon class="st0" points="-91.2,375.3 -91.2,374.8 -91.6,374.6 -91.7,374.2 -94.9,372.8 -99.5,373.1 -99.5,373.8 -94.5,373.7 
					"/>
		<polygon class="st0" points="-91.5,376.8 -89.1,377.6 -89.1,377.2 -90.9,376.4 -91.1,376 -91.6,376 		"/>
		<path class="st0" d="M-87.6,392.8c0,0.1,0.1,0.2,0.1,0.2c0,0.1,0,0.3,0.1,0.4c0,0.1,0,0.2,0.1,0.4c0.1,0.1,0.5,0.1,0.5,0.1
			l-0.1-1.1c0,0-0.3,0-0.4-0.1C-87.4,392.7-87.6,392.7-87.6,392.8z"/>
		<path class="st0" d="M-88,384.7c0,0-0.2-0.1,0,0.2c0.1,0.3,0.1,0.3,0.3,0.4c0.2,0,0.2-0.1,0.3,0c0.2,0.1,0.2,0.1,0.3,0.1h0.1V385
			L-88,384.7z"/>
		<path class="st0" d="M-90.9,401.4c0.5,0,0.3-0.2,0.2-0.2c-0.1,0-0.4,0-0.5,0s-0.1,0-0.3,0H-92c-0.3,0-0.3-0.1-0.4-0.1h-0.1
			c0,0-0.1,0,0,0.1C-92.5,401.3-91.4,401.4-90.9,401.4z"/>
		<path class="st0" d="M-90,403.2c0.2-0.1,0.3,0,0.3-0.1c0-0.2,0.1-0.3-0.1-0.3h-0.4c-0.1,0-0.1,0.1-0.1,0.1s-0.1,0.2,0,0.3
			C-90.3,403.2-90.3,403.3-90,403.2z"/>
		<path class="st0" d="M-101.4,404.6c-0.1,0-0.2,0-0.3-0.1c-0.1,0-0.2-0.1-0.3,0h-0.1c0,0,0,0.3,0,0.4s0.5,0.2,0.7,0.2
			c0.3,0,0.4,0,0.4-0.1s0-0.1,0-0.2C-101.2,404.6-101.3,404.6-101.4,404.6z"/>
		<path class="st0" d="M-97.7,389.7c0.1,0,0-0.1,0-0.2c0-0.2,0-0.1-0.1-0.2c0-0.1-0.2,0-0.3,0c-0.1,0-0.6,0-0.6,0v0.1l-0.1,0.3
			c0,0,0.1,0,0.2,0C-98.5,389.7-97.8,389.7-97.7,389.7z"/>
		<path class="st0" d="M-108.3,384.9c0,0-0.2,0-0.3,0.1c-0.1,0.1,0,0.1,0,0.3c0,0.1,0,0.2,0.1,0.2c0,0.1,0.1,0.1,0.2,0.1
			s0.2,0.2,0.2,0.2l1.4-0.2c0,0,0.5,0,0.6,0s0.2-0.2,0.2-0.4c0-0.2-0.1-0.3-0.2-0.4s-0.8-0.1-0.8-0.1s-0.3,0-0.4,0.1
			C-107.4,384.8-108.2,384.9-108.3,384.9L-108.3,384.9z"/>
	</g>
</g>
</svg>
