<?xml version="1.0" encoding="utf-8"?>
<!-- Generator: Adobe Illustrator 16.0.0, SVG Export Plug-In . SVG Version: 6.00 Build 0)  -->
<!DOCTYPE svg PUBLIC "-//W3C//DTD SVG 1.1//EN" "http://www.w3.org/Graphics/SVG/1.1/DTD/svg11.dtd">
<svg version="1.1" id="Layer_1" xmlns="http://www.w3.org/2000/svg" xmlns:xlink="http://www.w3.org/1999/xlink" x="0px" y="0px"
	 width="21px" height="21px" viewBox="0 0 21 21" enable-background="new 0 0 21 21" xml:space="preserve">
<path fill="#C0A8A6" d="M20.981,10.5c0,5.789-4.693,10.48-10.481,10.48l0,0c-5.789,0-10.481-4.691-10.481-10.48l0,0
	c0-5.789,4.692-10.481,10.481-10.481l0,0C16.288,0.019,20.981,4.711,20.981,10.5L20.981,10.5z"/>
<g>
	<defs>
		<rect id="SVGID_1_" x="4.41" y="3.854" width="12.18" height="13.292"/>
	</defs>
	<clipPath id="SVGID_2_">
		<use xlink:href="#SVGID_1_"  overflow="visible"/>
	</clipPath>
	<path clip-path="url(#SVGID_2_)" fill="#5F2A2B" d="M6.742,10.336V8.372c0-0.28,0.261-0.509,0.58-0.509h6.358
		c0.318,0,0.58,0.229,0.58,0.509v1.965l1.569-1.375c0.094-0.083,0.146-0.192,0.146-0.311s-0.052-0.229-0.146-0.312l-4.974-4.358
		c-0.094-0.082-0.221-0.127-0.355-0.127c-0.134,0-0.26,0.045-0.354,0.127L5.172,8.339C5.078,8.422,5.027,8.533,5.027,8.651
		s0.051,0.228,0.145,0.311L6.742,10.336z"/>
	<path clip-path="url(#SVGID_2_)" fill="#5F2A2B" d="M16.585,9.625c-0.017,0.01-0.036,0.024-0.06,0.045l-3.785,3.336l3.851,3.57
		V9.692C16.591,9.665,16.588,9.641,16.585,9.625"/>
	<path clip-path="url(#SVGID_2_)" fill="#5F2A2B" d="M11.949,13.693c-0.264,0.201-0.605,0.4-0.848,0.486
		c-0.305,0.107-0.82,0.107-1.134,0c-0.212-0.072-0.496-0.225-0.74-0.393l-4.002,3.359h10.448L11.949,13.693z"/>
	<path clip-path="url(#SVGID_2_)" fill="#5F2A2B" d="M8.421,13.113L4.476,9.655c-0.023-0.021-0.044-0.036-0.06-0.046
		C4.413,9.625,4.41,9.649,4.41,9.677v6.801L8.421,13.113z"/>
	<path clip-path="url(#SVGID_2_)" fill="#5F2A2B" d="M12.808,10.172c0.226,0,0.407-0.16,0.407-0.358
		c0-0.197-0.182-0.357-0.407-0.357H8.13c-0.225,0-0.408,0.16-0.408,0.357c0,0.198,0.183,0.358,0.408,0.358H12.808z"/>
	<path clip-path="url(#SVGID_2_)" fill="#5F2A2B" d="M8.733,11.213h3.472c0.168,0,0.303,0.16,0.303,0.357s-0.135,0.357-0.303,0.357
		H8.733c-0.167,0-0.303-0.16-0.303-0.357S8.566,11.213,8.733,11.213"/>
</g>
</svg>
