<svg xmlns="http://www.w3.org/2000/svg" width="123" height="55" viewBox="0 0 123 55"><path fill="#FFF" d="M113.558 42.724h.822v-6.317h-.822v6.317zm6.076-2.62l.622-1.833c.118-.38.225-.77.305-1.14h.03c.1.37.19.74.32 1.15l.63 1.83h-1.9zm1.46-3.697h-.98l-2.14 6.317h.837l.66-1.987h2.24l.68 1.987h.87l-2.155-6.317zm-38.865.696h1.92v5.62h.82v-5.62h1.93v-.696h-4.67v.696zm25.18-.696h-.83v6.317h3.52v-.684h-2.7v-5.633zm-8.01 3.696l.614-1.832c.12-.38.226-.77.306-1.14h.034c.093.37.19.74.315 1.15l.625 1.83h-1.9zm.474-3.696l-2.148 6.317h.846l.653-1.987h2.24l.677 1.987h.867l-2.15-6.317h-.986zm-7.795 2.96h-.837v-2.293c.143-.037.41-.075.806-.075.857 0 1.45.35 1.45 1.17 0 .72-.55 1.19-1.423 1.19m1.052.346v-.027c.66-.227 1.192-.777 1.192-1.603 0-.495-.19-.93-.498-1.195-.396-.36-.967-.527-1.84-.527-.554 0-1.15.056-1.56.14v6.224h.81v-2.74h.77c.738.033 1.087.355 1.273 1.23.166.787.31 1.32.41 1.51h.85c-.128-.247-.276-.85-.48-1.73-.16-.66-.45-1.11-.933-1.28m-15.75-.57c-.868-.34-1.253-.625-1.253-1.21 0-.43.328-.95 1.19-.95.573 0 .994.18 1.195.305l.223-.677c-.276-.15-.75-.298-1.385-.298-1.228 0-2.043.727-2.043 1.71 0 .884.64 1.425 1.662 1.78.86.32 1.192.67 1.192 1.258 0 .64-.49 1.07-1.32 1.07-.563 0-1.088-.18-1.455-.4l-.214.675c.335.228 1 .414 1.61.414 1.486 0 2.2-.856 2.2-1.82 0-.93-.533-1.436-1.604-1.86m-6.776 1.01c0 1.39-.604 2.01-1.535 2.01-.84 0-1.47-.6-1.47-2.01V36.4h-.823v3.72c0 1.972.972 2.702 2.27 2.702 1.362 0 2.383-.79 2.383-2.73V36.4h-.825v3.75zM59.88 40.1l.615-1.832c.124-.38.23-.772.313-1.14h.03c.093.367.19.74.32 1.15l.623 1.824h-1.893zm.478-3.696l-2.143 6.317h.84l.655-1.98h2.243l.67 1.987h.876l-2.16-6.316h-.985zm1.74-5.77c-1.51 0-2.98-.468-3.883-.936l-.758 3.31c.84.444 2.597.91 4.39.91 4.374 0 6.372-2.193 6.372-4.772 0-2.086-1.2-3.507-3.88-4.505-1.89-.7-2.69-.99-2.69-1.75 0-.66.67-1.11 1.89-1.11 1.48 0 2.59.42 3.24.71l.84-3.22c-.98-.42-2.265-.75-4.04-.75-3.773 0-6.014 2.04-6.014 4.68 0 2.226 1.686 3.6 4.217 4.51 1.685.58 2.348.98 2.348 1.71 0 .75-.662 1.22-2.035 1.22m31.2-3.4c0 2.378-.778 3.53-2.38 3.53-1.573 0-2.353-1.264-2.353-3.53v-8.5H84.55v8.17c0 4.797 2.178 7.034 6.264 7.034 4.196 0 6.504-2.33 6.504-6.944v-8.26h-4.01v8.5zm-16.98 3.53h-.045c-1.932 0-3.135-1.865-3.112-4.55 0-2.595 1.18-4.55 3.112-4.55 1.947 0 3.103 1.955 3.103 4.527 0 2.708-1.138 4.572-3.06 4.572m.04-12.274c-4.6 0-7.44 3.466-7.44 7.816 0 4.15 2.553 7.63 7.19 7.63h.02c4.6 0 7.48-3.064 7.48-7.88.004-3.996-2.44-7.57-7.256-7.57m33.34.245H97.98v3.374h3.814V33.7h4.02V22.11h3.883v-3.373zm4.67 14.962v-5.91h4.862v5.91h4.015V18.736h-4.018v5.547h-4.862v-5.547h-4.016v14.96"/><g fill="#FFF"><path d="M42.874 27.582L19.222 12.805.25 24.66l5.648 17.362 9.475-5.922v-9.983h12.38v14.735l7.568 2.912"/><path d="M26.78 27.094H16.347v9.375l.617.24v-8.23h7.593v11.14l2.225.85"/><path d="M17.938 29.453v1.39h3.83v7.713l1.813.693v-9.8"/><path opacity=".75" d="M35.32 12.118l-4.34 8.032 11.894 7.432"/></g></svg>