<svg xmlns="http://www.w3.org/2000/svg" xmlns:xlink="http://www.w3.org/1999/xlink" width="87" height="92" viewBox="0 0 87 92"><defs><path id="a" d="M0 13.738h87V79H0z"/></defs><clipPath id="b"><use xlink:href="#a" overflow="visible"/></clipPath><path clip-path="url(#b)" fill="#FFF" d="M20.03 65.925h-2.61v1.018h1.372v1.688c-.222.06-.503.1-.853.1-1.38 0-2.2-.994-2.2-2.303 0-1.326.83-2.346 2.34-2.346.52 0 1.17.114 1.666.343l.082-1.09c-.555-.167-1.146-.27-1.898-.27-2.196 0-3.548 1.24-3.548 3.45 0 2.185 1.454 3.233 3.546 3.233.693 0 1.41-.148 2.09-.33V65.93zm3.945-.21c.816 0 1.203.683 1.203 1.413 0 .798-.247 1.65-1.203 1.65-.946 0-1.194-.86-1.194-1.65 0-.71.39-1.414 1.2-1.414m0 4.024c1.587 0 2.5-1.092 2.5-2.46 0-1.574-1.09-2.53-2.5-2.53s-2.49.956-2.49 2.53c0 1.368.92 2.46 2.49 2.46"/><path fill="#FFF" d="M31.103 64.86l-1.15 3.47h-.017l-1.186-3.47h-1.335l1.772 4.767h1.397l1.762-4.766"/><defs><path id="c" d="M0 13.738h87V79H0z"/></defs><clipPath id="d"><use xlink:href="#c" overflow="visible"/></clipPath><path clip-path="url(#d)" fill="#FFF" d="M34.48 66.776c.053-.636.41-1.118 1.1-1.118.7 0 .973.514 1.014 1.118H34.48zm1.027-2.028c-1.483 0-2.213 1.14-2.213 2.52 0 1.564.915 2.47 2.493 2.47.668 0 1.186-.13 1.636-.38v-1.01c-.46.265-.98.484-1.582.484-.77 0-1.3-.433-1.36-1.204h3.3c0-1.668-.492-2.88-2.27-2.88m4.9 1.195h-.02V64.86h-1.1v4.768h1.24V67.88c0-.688 0-1.946 1.01-1.946.22 0 .44.036.556.104v-1.25c-.13-.04-.262-.04-.38-.04-.742 0-1.253.748-1.307 1.195m4.377 1.352c0-.61.2-1.58 1.097-1.58.8 0 .8.783.8 1.37v2.542h1.25V66.62c0-1.073-.49-1.872-1.624-1.872-.645 0-1.177.21-1.564.763h-.016v-.64h-1.18v4.767h1.24V67.3zm10.4-2.547c-.583 0-1.2.27-1.49.844-.27-.59-.74-.844-1.405-.844-.466 0-1.03.198-1.42.78h-.02v-.667h-1.16v4.77h1.24v-2.31c0-.612.104-1.6.93-1.6.71 0 .71.63.71 1.07v2.847h1.245V67.32c0-.618.1-1.6.927-1.6.718 0 .718.623.718 1.07v2.84h1.24v-3.01c0-1.065-.335-1.872-1.51-1.872m5.24.91c.696 0 .976.514 1.01 1.118h-2.11c.055-.635.407-1.118 1.1-1.118m-1.1 1.97h3.297c0-1.668-.496-2.88-2.268-2.88-1.482 0-2.214 1.14-2.214 2.52 0 1.563.915 2.47 2.492 2.47.665 0 1.184-.13 1.638-.38v-1.01c-.465.264-.98.483-1.582.483-.77.01-1.306-.43-1.36-1.2m7.915 2h1.238v-3.01c0-1.07-.49-1.87-1.617-1.87-.645 0-1.172.21-1.565.766h-.02v-.644H64.1v4.766h1.244V67.3c0-.608.193-1.58 1.092-1.58.797 0 .805.783.805 1.37v2.54zm4.94.11c.37 0 .66-.03.915-.11l-.032-.98c-.135.09-.344.137-.57.137-.47 0-.58-.38-.58-.79v-2.22h1.104v-.905h-1.1v-1.36l-1.245.396v.957h-.913v.905h.912v2.43c0 .94.537 1.54 1.51 1.54m-69.7 8.297c-.942 0-1.194-.863-1.194-1.646 0-.716.392-1.422 1.194-1.422.816 0 1.204.688 1.204 1.422 0 .794-.25 1.645-1.204 1.645m0-4.032c-1.406 0-2.488.957-2.488 2.53C0 77.903.917 79 2.488 79c1.583 0 2.5-1.098 2.5-2.467.002-1.574-1.08-2.53-2.5-2.53m4.437-.553v.666h-.92v.908h.92v3.862h1.238v-3.862h1.083v-.908H8.164v-.595c0-.36.132-.73.545-.73.27 0 .42.11.53.17l.1-1.02c-.24-.052-.59-.1-.91-.1-.978 0-1.515.66-1.515 1.62m7.985.775c0-.707.58-.894 1.025-.894.45 0 .905.096 1.312.27l.12-1.06c-.472-.16-.99-.237-1.546-.237-1.14 0-2.26.53-2.26 1.974 0 2.14 2.83 1.627 2.83 2.86 0 .583-.66.836-1.15.836-.51 0-1.02-.16-1.46-.395l-.12 1.16c.64.16.957.256 1.66.256 1.308 0 2.426-.54 2.426-1.955 0-2.166-2.836-1.698-2.836-2.816m6.592 3.806c-.943 0-1.196-.864-1.196-1.647 0-.718.393-1.424 1.196-1.424.816 0 1.208.69 1.208 1.42 0 .795-.246 1.646-1.207 1.646m0-4.032c-1.407 0-2.49.96-2.49 2.53 0 1.37.917 2.47 2.49 2.47C23.083 79 24 77.904 24 76.534c0-1.573-1.082-2.53-2.502-2.53m7.12 2.45c0 .607-.195 1.58-1.092 1.58-.797 0-.8-.782-.8-1.37V74.12H25.48v3.012c0 1.07.49 1.87 1.623 1.87.645 0 1.18-.3 1.564-.765h.015v.65h1.178v-4.77h-1.24v2.337zm5.25 1.58c-.473 0-.585-.38-.585-.785v-2.23h1.105v-.908h-1.105V72.76l-1.24.398v.953h-.916v.91h.914v2.43c0 .944.54 1.55 1.51 1.55.37 0 .66-.044.92-.114l-.03-.983c-.13.087-.345.13-.565.13M38.51 74c-.646 0-1.187.3-1.503.765h-.014V71.94h-1.245v6.947h1.243v-2.335c0-.61.197-1.585 1.09-1.585.8 0 .81.79.81 1.373v2.547h1.24v-3.013c0-1.074-.49-1.872-1.62-1.872"/><path fill="#FFF" d="M46.706 76.39l.938-2.67h.018l.936 2.67h-1.892zm.243-3.97l-2.53 6.467h1.343l.563-1.483h2.624l.555 1.483h1.44l-2.54-6.467h-1.46z"/><defs><path id="e" d="M0 13.738h87V79H0z"/></defs><clipPath id="f"><use xlink:href="#e" overflow="visible"/></clipPath><path clip-path="url(#f)" fill="#FFF" d="M55.317 76.452c0 .607-.195 1.58-1.096 1.58-.79 0-.8-.786-.8-1.37v-2.546h-1.24v3.012c0 1.072.49 1.872 1.62 1.872.65 0 1.19-.3 1.57-.765h.02v.65h1.176v-4.77h-1.24v2.337zm4.017-1.012c0-.404.397-.526.734-.526.45 0 .726.07 1.104.2l.085-.933c-.388-.08-.766-.17-1.353-.17-.974 0-1.87.457-1.87 1.48 0 1.727 2.16 1.09 2.16 2.02 0 .47-.502.58-.816.58-.424 0-.835-.11-1.223-.31l-.072 1.023c.452.115.934.2 1.407.2 1.01 0 1.996-.45 1.996-1.555 0-1.72-2.152-1.24-2.152-2m5.856 2.59c-.47 0-.582-.38-.582-.785v-2.225h1.104v-.908h-1.104v-1.356l-1.24.397v.95h-.916v.91h.917v2.43c0 .945.53 1.55 1.5 1.55.37 0 .66-.043.915-.113l-.036-.983c-.13.087-.343.13-.568.13m3.03-2.83h-.02V74.12H67.09v4.77h1.244v-1.75c0-.688 0-1.947 1.006-1.947.226 0 .446.04.56.1v-1.25c-.132-.037-.263-.037-.38-.037-.744 0-1.253.754-1.306 1.196m5.495 2.463c-.197.258-.49.425-.868.425-.446 0-.79-.174-.79-.587 0-.726.824-.82 1.38-.82h.54c0 .372-.057.71-.265.982m1.393-1.04v-.61c0-1.405-.603-2.012-2.057-2.012-.525 0-1.175.144-1.658.37l.035 1.06c.417-.313.94-.517 1.473-.517.73 0 1.075.258 1.075 1.03h-.69c-.52 0-1.125.043-1.602.275-.468.23-.81.65-.81 1.37 0 .905.82 1.416 1.666 1.416.562 0 1.185-.3 1.475-.826h.012c.013.146.013.457.06.71h1.09c-.027-.372-.047-.702-.06-1.064-.005-.347-.014-.71-.014-1.195"/><path fill="#FFF" d="M76.867 71.938h1.24v6.947h-1.24zm3.078.122h1.244v1.186h-1.25zm0 2.057h1.244v4.77h-1.25z"/><defs><path id="g" d="M0 13.738h87V79H0z"/></defs><clipPath id="h"><use xlink:href="#g" overflow="visible"/></clipPath><path clip-path="url(#h)" fill="#FFF" d="M85.535 77.663c-.188.26-.487.426-.865.426-.446 0-.79-.18-.79-.59 0-.73.82-.82 1.38-.82h.542c0 .37-.06.71-.267.98m1.412.152c-.01-.35-.02-.71-.02-1.197v-.61c0-1.406-.603-2.01-2.06-2.01-.527 0-1.173.14-1.653.365l.034 1.06c.42-.313.947-.517 1.475-.517.73 0 1.078.26 1.078 1.03h-.69c-.51 0-1.12.044-1.6.275-.47.232-.81.647-.81 1.363 0 .908.83 1.42 1.67 1.42.56 0 1.19-.3 1.47-.828h.02c.01.15.01.46.058.713H87c-.02-.37-.045-.703-.053-1.064m-50.07-52.07c3.314-2.416 8.67-2.64 12.21-.547 2.023 1.06 3.94 3.09 4.904 5.124 2.02 3.877 1.24 9.288-1.65 12.512-3.01 3.415-7.32 4.76-11.79 3.693-3.99-.792-7.64-4.703-8.433-8.627-1.12-4.8.82-9.374 4.77-12.156m-5.1 11.52c.586 4.287 4.374 8.5 8.626 9.426 4.354 1.095 8.71-.163 11.74-3.363 3.154-3.256 4.124-8.698 2.15-12.812-.92-2.11-2.842-4.22-4.905-5.37-3.64-2.24-9.314-2.06-12.732.526-3.74 2.728-5.67 6.94-4.876 11.6m-3.585 4.47c-.275.16-.6.41-.662.74-.145.77.18 1.427.635 1.985.324.416.86.468 1.322.39l2.5-1.33c.365-.11.684.05.938.3l.05-.052-.77-1.406h-.11l.056.39c-.02.27-.176.51-.416.67-.988.455-1.858 1.36-3.003 1.267-.518-.204-.797-.743-.824-1.267.03-.336.14-.636.45-.856l2.56-1.43.277-.055c.18.05.208.363.414.274-.233-.56-.585-1.068-.882-1.595h-.08c-.05.188.23.456-.03.63l-2.423 1.35zm30.95 1.93c.3-.51.52-1.107.77-1.66-.23-.11-.23.33-.495.33l-3.28-1.485c-.38-.086-.177-.443-.193-.69h-.08c-.285.544-.55 1.095-.744 1.68.21-.03.26-.396.522-.355l3.416 1.595c.13.18 0 .39 0 .58h.08zm-4.082 5.07c.845-.786 1.615-1.606 2.405-2.458l-.97-1.32c-.032.006-.09-.02-.11.03.363.56.51 1.513.082 2.096-.18.21-.4.626-.746.463l-2.7-2.506c-.166-.252.18-.4.14-.603h-.084l-1.21 1.24c.113.296.34-.252.58-.085l2.725 2.566c.083.206-.14.36-.166.55.016.014.024.03.05.027M35.06 47.52c.314-.377.57-.777.856-1.16v-.166l-.248.055c-.154-.11-.218-.268-.28-.417-.384-.717-1.272-1.055-1.982-.66-1.557 1.043.48 2.21.166 3.442-.17.282-.46.52-.8.494-.36-.006-.628-.276-.858-.525-.424-.69.06-1.424.334-2.04h-.085c-.38.436-.793.904-1.186 1.35v.14c.148-.026.28-.085.386.053.34.6.91 1.213 1.627 1.27.406.02.757-.11 1.046-.39 1.096-1.115-.52-2.09-.388-3.25.108-.26.38-.48.664-.498.232.05.47.1.634.307.585.557.185 1.39.027 1.985h.08zm5.46 1.734c.093.195.026.48.162.63.123-.507.205-1.03.244-1.567-1.057-.197-2.03-.62-3.032-.964l-.324-.22-.777 1.213c0 .064-.12.174 0 .194.506-.504 1.08-.848 1.824-.77.05.025.156.043.138.134-.463 1.215-.836 2.46-1.38 3.64-.215.085-.44-.04-.634 0v.054c.63.27 1.29.465 1.93.69l.057-.053c-.12-.19-.454-.174-.493-.443l1.327-3.666c.49.14.847.67.964 1.134m-12.9-11.905l-.11-1.187 1.517.385c-.414.33-.92.563-1.406.8m1.633-.91c-1.132-.368-2.38-.448-3.395-1.102-.13-.12-.1-.37-.3-.383 0 .5.1 1.033.165 1.542.244-.04.095-.38.334-.496.4-.25.86-.004 1.24.114l.14 1.345c-.34.31-.77.505-1.186.69-.24 0-.196-.274-.276-.415-.035.004-.117-.02-.112.03.046.553.1 1.17.195 1.736.2-.036.045-.374.276-.47 1.353-.79 2.71-1.62 4.053-2.37l-.056-.052c-.403.053-.73-.573-1.073-.165M43.72 48.65c.364.016.767-.054 1.046.167.38.396.34 1.025.137 1.49-.27.365-.712.325-1.127.356-.06-.65-.118-1.34-.055-2.01m.5 2.23c.7.47.91 1.295 1.375 1.937.424.02.82-.033 1.24-.06v-.08c-.705.05-.86-.753-1.16-1.184-.16-.405-.61-.65-.965-.77.46-.15 1.024-.353 1.21-.885.095-.34-.02-.65-.22-.904-.857-.795-2.2-.345-3.306-.39l-.082.055c.145.146.46.037.55.305l.14 3.663c-.08.277-.405.14-.52.33l.05.06 1.66-.06c.08.02.21-.02.16-.135-.18-.04-.395-.005-.52-.193l-.08-1.624.054-.086c.136.01.286-.018.415.027m5.23-.85c-.125-.492-.09-1.05-.135-1.57.41.32.84.687 1.214 1.046l-1.08.523zm1.986.99c.544-.195 1.068-.47 1.6-.713v-.053h-.41l-3.643-3.06-.053.05c.2.39-.31.94.22 1.11l.165 2.532c0 .464-.05.987-.44 1.3.473-.12.954-.41 1.433-.61v-.08h-.388c-.51-.187-.448-.754-.52-1.185.39-.275.87-.48 1.32-.665l.97.857c.17.274-.3.33-.255.524m7.83-13.062c-.507-.145-.94-.46-1.408-.692.46-.205.99-.367 1.517-.493l-.11 1.186zm1.652-1.656c.187.103.088.33.19.47l.087-.028c.044-.57.13-1.155.133-1.71-.182.026-.08.275-.245.36-1.497.514-3.003 1.006-4.52 1.46v.082c.4.014.63.765 1.047.387l2.56 1.35c.35.2.61.56.69.91.166-.48.14-1.04.19-1.57-.225.05-.215.385-.47.445-.444.1-.8-.175-1.155-.386l.14-1.354c.39-.22.865-.355 1.35-.413m-18.16-18.75c-.59.02-1.286-.048-1.875.055.08.215.424.02.523.28l.086 2.81c.02.396.13.747.465 1.015.57.372 1.39.457 2.07.25 1.22-.4.712-1.9.793-2.814.02-.48-.09-1.01.28-1.352.12-.15.373-.105.435-.275-.487-.094-.97.06-1.46-.03l-.194.053c.127.145.41.154.553.36.415.75.127 1.798.25 2.67.017.444-.123.837-.47 1.107-.376.268-.92.194-1.32.05-.28-.126-.533-.42-.58-.71l-.088-3.09.113-.166c.126-.11.44.026.414-.22m5.21 4.937c-.164 0-.41-.12-.5 0 .557.29 1.156.476 1.71.746.07.035.22.066.25-.023-.168-.168-.44-.22-.497-.47.483-1.22.938-2.45 1.49-3.638.436.156.714.616.85 1.016.068.263.104.564.173.798.147-.51.26-1.03.33-1.572h-.195L48.82 18.3l-.36-.25c-.343.426-.627.877-.853 1.35.57-.432 1.265-.91 2.01-.602-.38 1.1-.888 2.148-1.267 3.25-.1.158-.114.473-.384.44m4.047 1.818c-.242.263-.45-.134-.66-.11v.084c.397.4.84.837 1.236 1.24.294-.11-.23-.33-.08-.55l1.32-1.353h.082c.42.44.906.854 1.27 1.323l-1.21 1.216c-.23.383-.5-.15-.72-.033.343.45.808.848 1.21 1.272h.138c.01-.194-.243-.284-.19-.496l2.644-2.71c.24-.15.37.15.58.164l.06-.08-1.16-1.186c-.07-.02-.163-.156-.226-.028.67.7-.623 1.123-.94 1.683h-.077c-.42-.46-.9-.79-1.27-1.295l1.13-1.16c.247-.152.36.16.576.165.05-.02.023-.075.026-.11l-1.24-1.24c-.3.12.22.317.083.578l-2.59 2.62zm-19.652-.99v-.11l-1.183-.964h-.08c.12.53-.546.484-.8.77-.454.386-.62.958-.5 1.517.728 1.93 2.36-.067 3.558.22.28.15.478.43.497.74-.005.426-.343.81-.716.99-.71.2-1.318-.186-1.874-.52l-.06.053c.45.456.93.938 1.433 1.328l.055-.053c-.02-.08-.08-.14-.055-.224.144-.21.393-.308.605-.417.527-.37.942-.88.883-1.547-.07-.38-.224-.77-.575-1.016-1.12-.645-2.005.61-3.114.413-.22-.155-.415-.37-.436-.635.044-.274.153-.52.41-.71.6-.483 1.37-.06 1.955.162m2.73-2.29c-.11-.517-.083-1.11.307-1.49.368-.344.905-.524 1.4-.33.753.31 1.195 1.146 1.46 1.848.202.514.245 1.314-.136 1.763-.29.314-.647.45-1.05.5-1.16-.07-1.697-1.37-1.98-2.29m3.723 1.298c.35-.623.404-1.538.053-2.18-.465-.9-1.417-1.343-2.425-1.265-.896.08-1.75.824-2.015 1.675-.195.734-.03 1.52.39 2.096.524.656 1.25.932 2.07.91.79-.05 1.518-.548 1.93-1.238"/><path clip-path="url(#h)" fill="#FFF" d="M43.55 16.084c8.216 0 15.24 5.138 18.002 12.38l2.186-.81c-3.09-8.14-10.964-13.916-20.187-13.916-9.22 0-17.07 5.772-20.17 13.902l2.19.82c2.768-7.234 9.78-12.376 17.99-12.376M64.8 39.226l-2.308-.43C60.856 47.764 53 54.574 43.552 54.574s-17.293-6.81-18.93-15.78l-2.31.437c1.84 10.07 10.65 17.69 21.24 17.69 10.596 0 19.41-7.63 21.244-17.69"/><path clip-path="url(#h)" fill="#FFF" d="M45.776 42.663c.023.02.037.036.054.058v.09c-.058-.04-.112-.09-.17-.14h-.38c.118.144.235.29.356.447.01.086 0 .173-.082.223-.165-.236-.347-.456-.52-.667h-.308l.474.666c-.014.064.035.153-.055.186-.153-.296-.392-.57-.613-.855h-.28c.158.27.303.55.37.857.026.1-.09.21-.166.193-.104-.367-.284-.706-.438-1.05h-.252c.08.367.116.75.107 1.13-.523-.22-.5-.675-.44-1.13h-.186c.03.426 0 .856-.42 1.1h-.08c-.023-.394.062-.76.18-1.1h-.216c-.12.36-.27.715-.37 1.076-.08.078-.19-.035-.22-.105.075-.345.207-.66.36-.97h-.28c-.17.24-.344.48-.47.748-.05.018-.08-.025-.114-.052.122-.237.257-.47.402-.694h-.43c-.13.137-.252.28-.328.447h-.06c.05-.16.134-.307.243-.446h-.374c-.006 0-.006 0-.006.007h-.082v-.005h-.478c-.13.21-.25.42-.298.67-.017.243.388.175.28.464.06.214.288.14.41.246.014.357.415.26.636.357.07.623.75-.077.88.5.148 0 .256-.095.387-.14.16.023.28.207.38.33.27.225.38-.14.58-.275l.493.197.327-.386c.39.284.53-.283.888-.167.245.028.22-.255.327-.386.43.064.366-.53.778-.522.017-.36-.217-.607-.39-.882h-.41z"/><path clip-path="url(#h)" fill="#FFF" d="M47.29 42.03c.024-.184.23-.27.362-.355.21.032.518-.09.636.11-.087.453-.662.165-.997.245m-.4-.027c-.13.055-.315.026-.384-.086-.034-.146.086-.206.19-.243.146.018.333-.05.44.054.01.13-.14.24-.246.275m-.94.027c-.262.106-.44-.167-.636-.3.2-.063.6-.13.77.054-.02.09-.04.185-.136.246m-1.6-1.102l.22-.66c.203.234.496.22.745.33.263.21.53.45.746.716-.578-.05-1.37.284-1.716-.386m-3.58.44c.03-.2.34-.378.52-.524.433.104 1.118-1 1.16.027-.297.63-1.07.54-1.676.5m0 .66c-.025-.13.12-.23.215-.3.115-.04.28-.04.39 0-.157.09-.316.5-.603.3m-.663 0c-.196-.01-.328.05-.495-.05.026-.09.08-.18.166-.242.136-.042.33-.042.47 0 .07.117 0 .288-.14.3m-.964.03c-.242.013-.622.116-.77-.11.09-.405.64-.15.965-.22l.053.054c.008.13-.14.238-.25.275m9.177-.603c-.685.08-1.143-.375-1.847-.25l-1.16-1.102c-.04-.02-.07-.05-.1-.077l-1-.005c-.03.05-.057.093-.088.14l.14.078c-.166.53-.38 1.06-.852 1.44-.546-.334-.755-.952-.91-1.517h.187c-.007-.05-.016-.092-.024-.14h-.92l-.02.03c-.66.47-1.13 1.535-2.15 1.21-.414.367-1.17-.06-1.486.47-.066.18-.026.384.105.524.248.152.663.106.884.08.15.092.3.17.492.14.173-.27.362-.01.55.025.205.005.365-.243.55-.106-.055.09-.117.18-.172.27h.48c.04-.382.53-.573.798-.854l.55-.38c-.35.464-.86.766-1.26 1.233h.37c.27-.353.677-.645.97-.962-.107.376-.51.65-.82.965h.424c.215-.344.454-.68.73-.96-.11.35-.325.657-.548.964h.27c.152-.32.33-.636.47-.96-.028.33-.12.646-.23.96h.217c.08-.25.178-.48.26-.71.005.21.046.465.063.71h.186c.023-.25.064-.5.03-.71h.08c.094.227.17.465.23.71h.243c-.12-.27-.235-.55-.28-.85h.054c.12.3.3.572.46.852h.276c-.25-.33-.482-.66-.54-1.043l.738 1.045h.308c-.335-.403-.668-.79-.94-1.234h.087c.42.404.76.81 1.1 1.23h.375c-.43-.362-.807-.822-1.177-1.232.483.344.875.794 1.294 1.235h.416c-.06-.096-.11-.193-.137-.298.16-.1.29.045.41.136.252.083.384-.13.58-.192.345.543.695-.21 1.15-.055.21-.07.403-.283.36-.523-.043-.115-.11-.26-.243-.276m-9.43-9.38c.07-.045.14-.025.204.004.118.068.235.18.317.005.004-.004.004-.004.004-.01-.08-.232-.54-.324-.41-.634l.27.14c.02-.23-.2-.39-.132-.604.19.11.3.36.443.546-.044.187-.078.37-.1.555-.05.35-.065.7.012 1.07-.185.005-.324-.1-.464-.19-.076-.1-.1-.21-.09-.336.14-.06.26.233.416.06-.04-.27-.377-.357-.466-.606h-.005v-.007zm.55-1.71c.178.22.146.573.224.857-.15-.23-.407-.57-.222-.86m.52-.66c.016.412.114.83-.08 1.183.06-.392-.57-.94.08-1.185m.25 3.944c.177-.05.024-.22.034-.333.245.347.04.934.49 1.213.085.054.153.123.202.198.122.176.18.38.24.578.022.255-.118.476-.33.607-.12.01-.2-.073-.193-.19-.05-.09.1-.166-.028-.22-.144.097-.275.297-.47.194-.067-.195.113-.354.167-.525-.22-.03-.38.335-.66.164-.06-.236.14-.36.244-.526-.22-.12-.38.125-.604 0 0-.03.01-.053.024-.08.08-.143.35-.21.5-.332-.153-.105-.39-.244-.416-.47.26-.14.43.256.668.08.005-.205-.243-.386-.112-.575.1.04.165.144.246.22m2.43.214c-.196-.012-.346-.116-.5-.214.19-.09.46.185.636-.03.037-.282-.246-.435-.41-.632.276-.016.48.19.464.467-.063.14.036.397-.19.41m.546-.3c.058.024.167-.04.167.056.01.057-.004.15-.08.112h-.087v-.167zm3.184 1.164h.002c.018-.026.032-.058.04-.088.364-.357.355-.87.577-1.29.05.12-.108.23.03.327.15-.015.15-.208.33-.168.14.29-.46.405-.197.606.15-.052.334-.225.496-.08-.01.225-.3.225-.36.415.235.013.455.094.59.28.007.003.016.014.02.023.04.112-.08.15-.167.14-.21.038-.42-.085-.578 0 .125.21.45.247.414.547-.286.11-.46-.188-.718-.22-.072.2.26.3.215.52-.25.083-.436-.17-.63-.274-.05.133.04.27.114.39-.203.096-.4-.05-.497-.22-.256-.36.15-.61.313-.907m1.776-3.286c.09-.01.132.096.112.166-.04.19-.22.342-.397.473-.074.056-.146.11-.21.165-.014-.057-.02-.11-.01-.162.046-.234.325-.44.505-.64m-.795-1.4c.16.004.144.185.22.275-.06.224-.23.48-.11.717.152-.1.14-.357.33-.418-.03.3-.14.62-.33.882-.204-.424-.195-.99-.11-1.46m.743.91c-.033.257-.264.505-.44.744h-.03c.02-.27.256-.567.47-.743m-.384 1.624c.07-.186.352-.38.58-.444.122.05 0 .133 0 .195-.125.197-.38.186-.58.25m.3.114c.045 0 .12-.01.113.045.01.27-.29.146-.417.254-.08-.16.188-.254.3-.3M33.22 33.85c.2.27.516.376.67.638-.073.093-.164.176-.254.25-.177.153-.35.308-.357.547.19.22.505.233.74.413-.117.212-.343.407-.28.663.315.16.707.15 1.05.22-.085.226-.157.45-.19.69.204.27.65.153.936.22-.017.22-.172.464-.194.72.27.174.61.02.91.03.18-.05.204.155.22.273.06.38.444.066.69.167l.276.464c.15.016.29-.01.413-.08.223-.14.32.118.416.25.154.25.38 0 .573 0 .147.066.2.22.305.33.205.116.323-.136.47-.248.27-.147.375.28.6.33.262-.214.556-.28.884-.163.363-.313.32-.793.36-1.24.024-.077.052-.204.16-.194.154.615.542 1.3.103 1.9h.92c-.073-.23-.233-.46-.334-.69-.136-.217.182-.64-.16-.637l-.06.06c-.54-.982.4-1.82.327-2.84.08-.18-.174-.496.17-.47.48.016.904-.237 1.157-.663.01-.013.02-.03.028-.05.103-.22.027-.55.273-.665.278.122.427.38.49.664.024.106.035.213.035.322-.262.978-.123 2.125.305 2.98l-.11.686c-.363-.05-.103.39-.22.55-.062.275-.21.513-.354.746h1c-.464-.41-.258-1.066-.118-1.566.01-.085.1-.22.22-.168.27.37.117.963.553 1.294.13.078.274.104.385-.024.18-.168.373.042.468.19.145.016.234-.1.334-.192.207-.172.384.074.576.11.102-.084.183-.224.272-.333.17-.093.276.09.413.136.26.075.27-.306.448-.44.2-.007.34.124.55.11l.22-.38c.22-.26.5.016.77-.034l.36-.52.58-.03c.15-.165.144-.4.135-.63.29-.186.7-.093 1.02-.19.02-.25-.12-.51-.215-.748.272-.14.632-.07.94-.164.09-.35-.27-.61-.34-.887l.85-.41c-.004-.186-.147-.3-.283-.41-.1-.078-.19-.154-.234-.25.252-.188.535-.3.8-.47l.024-.14c-.26-.28-.6-.48-.938-.63l-.03-.087.605-.55v-.14c-.24-.243-.606-.2-.88-.355.004-.01.004-.02.01-.028h-.002c.154-.27.57-.37.624-.696-.17-.197-.425-.183-.66-.22-.16 0-.336.11-.47 0 .173-.316.553-.473.634-.825-.536-.21-1.082.144-1.572.22.15-.23.33-.404.555-.547.217-.203.645-.402.523-.716-.528 0-.974.2-1.407.437-.313.112-.574.44-.876.494.22-.276.577-.45.826-.77.234-.25.194-.624.496-.85.02-.157.204-.31.06-.47-.75.186-1.41.745-1.902 1.35l-.06-.055c.217-.308.298-.668.607-.94.17-.355.5-.79.25-1.18-.74.218-1.11 1.033-1.544 1.57-.08-.09-.067-.216-.08-.333.39-.51.377-1.197.44-1.845.01-.107-.09-.233-.193-.165-.434.325-.55.82-.744 1.267l-.06-.055v-1.1c-.024-.297-.13-.664-.44-.745-.313.31-.192.798-.333 1.187-.116 0-.14-.148-.217-.223-.04-.046-.135-.046-.166.03-.09 1.62.036 3.13.14 4.71-.075.15-.14.31-.19.47h.003c-.276.88-.24 1.89-.804 2.646h-.003c-.093.126-.2.244-.332.36-.236.182-.536-.01-.824.05-.1-.117-.13-.26-.16-.41-.02-.095-.03-.19-.06-.28-.38-1.055-1.517-1.33-2.396-1.68-.192-.02-.5-.09-.634.05.3.153.62.325.824.636l-.054.053c-.258-.09-.555-.16-.83-.137.166.46.716.512.997.88.013.15.034.32.018.47-.02.186-.093.352-.27.466-.227.154-.33-.153-.524-.165-.19-.02-.433.175-.58-.054-.01-.09-.034-.166-.074-.245h-.003c-.212-.416-.767-.694-.613-1.27-.22-.437-.386-.89-.485-1.374-.056-.256-.087-.524-.098-.803.176-1.424.86-2.89.36-4.354-.208.01-.234.26-.41.332l-.06-.058c.018-.445-.013-.86-.082-1.27l-.11-.22c-.246.13-.41.43-.467.716.14.664-.02 1.334-.028 2.01-.17-.305-.202-.676-.3-1.02-.173-.364-.244-.914-.69-1.017-.292.432-.02.967-.027 1.46.052.274.36.517.165.823l-.638-.885c-.21-.23-.467-.58-.77-.576-.06.576.29.985.47 1.46.066.234.324.43.3.66-.643-.454-1.207-.99-1.955-1.13-.07.614.606.996.91 1.488l-.055.06c-.37-.166-.73-.36-1.077-.58-.224-.047-.445-.277-.69-.11 0 .44.286.786.583 1.074-.372.05-.78-.21-1.156 0 .078.335.473.53.576.86-.345.184-.813.066-1.18.22.088.263.348.45.497.685l-.08.093c-.125 0-.24.035-.346.083-.132.067-.263.163-.394.243.034.33.45.51.607.825-.275.17-.57.41-.75.69"/><path fill="#FFF" d="M21.904 35.155h2.332v.588h-2.332zm.03-.425l2.32.092.024-.58-2.322-.097m2.35-.198L22 33.76l.048-.584 2.306.187zm-2.196-1.164l2.29.28.07-.582-2.293-.27m.077-.39l2.28.37.09-.57-2.275-.37m2.43-.51l-2.27-.46-.117.57 2.27.463m-1.907-1.98l2.252.545-.14.568-2.25-.545zm.29-.952l2.24.647-.164.567-2.24-.646zm39.75 6.776h2.33v.59H62.8zm-.04-.912l.026.583 2.317-.09-.024-.586m-2.353-.2l-.045-.585 2.31-.176.042.582zm-.158-1.465l.067.585 2.295-.28-.072-.575m-2.443-.595l.09.57 2.28-.37-.09-.572m-.056-.4l-2.265.464-.113-.57 2.265-.463zm-.22-.946l-2.253.55-.14-.568 2.256-.55zm-.263-.96l-2.246.645-.163-.56 2.246-.642z"/></svg>