<svg id="Layer_1" xmlns="http://www.w3.org/2000/svg" width="120" height="55" viewBox="0 0 120 55"><style>.st0{fill:#FFFFFF;}</style><path class="st0" d="M117.808 34.436c-1.364 3.147-8.89 3.867-10.698 0-1.417-3.034-.118-7.878-.386-12.244.698-.032 1.255-.208 2.062-.13.496 4.646-1.395 11.453 2.063 12.89 1.94.81 3.94.153 5.02-.645 2.74-2.032 1.58-7.676 1.8-12.115.78.003 1.326-.22 2.19-.13v14.694h-2.06v-2.32zm-25.263-1.418c.53 3.362 7.39 2.768 8.38-.387.274-.88.05-1.7.128-2.83-3.492-.21-9.124-.684-8.508 3.227zm9.023 3.61c-.24-.445-.463-.913-.386-1.677-.784.22-1.107 1.08-2.064 1.55-3.67 1.81-9.104.12-8.765-4.25.345-4.39 4.518-3.91 8.636-4.38.73-.083 1.57-.28 2.06-.9.53-4.798-8.19-4.067-8.77-.773-1.86-5.226 8.73-5.762 10.57-2.19 1.41 2.744-.24 7.513.384 11.73-.055.57 1.12-.09 1.03.516-.295.79-2.09.66-2.704.385zM85.714 34.05c2.73-.93 2.573 3.13.387 2.964-1.11-.086-2.19-2.35-.38-2.965zm-9.538-.904c1.754-3.657 3.257-7.57 4.898-11.342.685.133 1.345.286 2.19.258-2.204 4.97-4.267 10.08-6.7 14.822-1.265.317-2.084-2.4-2.58-3.48-1.738-3.793-3.618-7.907-5.155-11.342.76-.006 1.49-.058 2.06-.258 1.99 3.55 3.47 7.617 5.28 11.342zM54.78 31.343c1.832 6.533 14.005 4.087 11.214-3.997-.753-2.183-3.008-4.203-6.96-3.48-3.017.555-5.42 3.316-4.254 7.477zm12.503-6.188c2.706 4.183.295 9.47-2.836 11.085-5.148 2.658-11.44-.5-11.987-5.8-.524-5.083 2.722-8.31 7.347-8.636 3.3-.232 6.152 1.304 7.476 3.35zm-28.356.387c-1.782 5.043 6.378 6.338 7.475 2.19.733-2.772-1.266-4.708-4.64-4.124-1.502.258-2.55 1.123-2.835 1.934zm5.8 7.218c2.71.356 6.858 2.322 5.155 6.316-.98 2.297-4.91 3.4-8.636 3.093-2.335-.2-5.872-1.32-5.93-3.74-.057-2.48 2.74-2.78 5.414-2.84-1.156.68-3.188.392-3.48 1.672-.808 3.535 11.458 4.82 10.44-.644-.65-3.494-5.96-1.728-8.764-3.223-.11-1.013.24-1.565.643-2.06-1.68-1.07-3.2-2.145-3.23-4.51-.057-4.49 6.132-6.59 10.05-4.128 1.666-.57 2.94-1.53 5.027-1.676-.04.778-.296 1.338-.516 1.933-1.182.103-2.224.35-2.962.9 3.11 4.296-1.967 9.31-7.347 7.735.67 1.714 2.88.996 4.127 1.16zM31.58 37.014c-1.41-.13-1.9-2.433-.388-2.965 2.588-.92 2.61 3.16.387 2.96zm-15.34-5.542c-1.813 4.644 6.7 4.84 8.12 1.417.398-.96.185-1.81.26-3.1-3.207-.09-7.476-.64-8.38 1.68zm8.38 3.35c-1.414 2.4-7.592 3.55-9.926.516-1.392-1.81-.812-5.136.902-6.315 1.67-1.148 4.372-.865 6.96-1.16 2.015-.232 2.65-1.417 1.547-2.965-1.668-2.347-7.833-1.52-8.25 1.29-1.838-4.18 5.698-5.618 9.024-3.738 3.588 2.025 1.237 8.7 1.933 13.275.013.545 1.185-.066 1.03.644-.442.56-1.856.48-2.576.38-.478-.38-.528-1.196-.644-1.937zm-13.922-5.284c.962.638 1.995 2.084 1.546 4.253-.657 3.19-6.71 4.17-9.667 2.58C1.36 35.72.692 34.62 0 33.15v-.13c.55-.31 1.023-.693 1.677-.9-.11 3.838 8.533 4.485 8.377.644-.08-1.957-2.868-2.335-4.768-2.837-2.177-.572-4.124-1.02-4.64-2.963-1.755-6.59 11.032-6.938 11.212-1.42-.478.253-1.004.456-1.417.773-.6-1.063-.93-1.958-2.32-2.45-2.07-.733-5.5-.293-5.41 1.935.11 2.915 5.67 2.2 7.99 3.737z" id="XMLID_3_"/></svg>