<svg xmlns="http://www.w3.org/2000/svg" width="146" height="61" viewBox="0 0 146 61"><path fill="#FFF" d="M54.543 32.373c-.728-.244-1.527-.357-2.383-.357-1.754 0-3.48.812-3.48 3.04 0 3.294 4.365 2.51 4.365 4.407 0 .898-1.013 1.283-1.77 1.283-.785 0-1.57-.242-2.254-.613l-.18 1.8c.99.24 1.47.384 2.558.384 2.01 0 3.738-.828 3.738-3.01 0-3.34-4.365-2.61-4.365-4.338 0-1.09.886-1.39 1.57-1.39.7 0 1.4.153 2.027.43l.187-1.64z"/><path fill-rule="evenodd" clip-rule="evenodd" fill="#FFF" d="M55.944 38.52c0 2.112 1.412 3.796 3.838 3.796 2.44 0 3.852-1.684 3.852-3.795 0-2.42-1.67-3.89-3.852-3.89-2.17 0-3.838 1.47-3.838 3.9zm1.998-.227c0-1.1.6-2.184 1.84-2.184 1.255 0 1.854 1.05 1.854 2.18 0 1.22-.385 2.54-1.854 2.54-1.455 0-1.84-1.33-1.84-2.54z"/><path fill="#FFF" d="M71.527 34.8h-1.912v3.593c0 .94-.3 2.44-1.684 2.44-1.22 0-1.24-1.214-1.24-2.112V34.8h-1.91v4.634c0 1.656.76 2.883 2.5 2.883 1 0 1.83-.457 2.41-1.17h.03v.998h1.81V34.8zm2.243 5.134c0 1.455.83 2.383 2.326 2.383.57 0 1.013-.06 1.412-.172l-.056-1.512c-.2.13-.528.2-.87.2-.73 0-.9-.585-.9-1.214v-3.43h1.698V34.8h-1.698v-2.087l-1.91.615v1.47h-1.414v1.397h1.413v3.74zm4.567 2.21h1.912V38.55c0-.942.29-2.44 1.68-2.44 1.22 0 1.24 1.213 1.24 2.11v3.925h1.91v-4.637c0-1.654-.76-2.88-2.5-2.88-1 0-1.826.454-2.312 1.17h-.03v-4.353h-1.91v10.7z"/><path fill-rule="evenodd" clip-rule="evenodd" fill="#FFF" d="M95.874 38.293h-2.91l1.44-4.11h.03l1.44 4.11zm-6.42 3.852h2.07l.87-2.28h4.036l.856 2.28h2.212l-3.91-9.957h-2.253l-3.88 9.957z"/><path fill="#FFF" d="M107.007 34.8h-1.912v3.593c0 .94-.3 2.44-1.684 2.44-1.22 0-1.24-1.214-1.24-2.112V34.8h-1.91v4.634c0 1.656.76 2.883 2.5 2.883 1 0 1.83-.457 2.41-1.17h.03v.998h1.81V34.8zm6.11.096c-.6-.127-1.185-.27-2.083-.27-1.5 0-2.883.697-2.883 2.28 0 2.655 3.33 1.67 3.33 3.11 0 .715-.77.9-1.25.9-.655 0-1.284-.186-1.883-.486L108.23 42c.698.186 1.44.314 2.167.314 1.557 0 3.084-.686 3.084-2.396 0-2.654-3.32-1.912-3.32-3.082 0-.627.613-.812 1.127-.812.7 0 1.127.113 1.713.312l.13-1.44zm2.113 5.038c0 1.455.828 2.383 2.325 2.383.572 0 1.014-.06 1.412-.172l-.057-1.512c-.2.13-.527.2-.87.2-.728 0-.9-.585-.9-1.214v-3.43h1.7V34.8h-1.7v-2.087l-1.91.615v1.47h-1.412v1.397h1.412v3.74zm4.608 2.21h1.913V39.45c0-1.057 0-2.996 1.56-2.996.348 0 .69.057.86.156v-1.926c-.2-.057-.4-.057-.583-.057-1.142 0-1.926 1.154-2.01 1.84h-.03V34.8h-1.7v7.345z"/><path fill-rule="evenodd" clip-rule="evenodd" fill="#FFF" d="M125.375 36.824c.643-.486 1.456-.8 2.268-.8 1.128 0 1.656.4 1.656 1.583h-1.06c-.8 0-1.74.072-2.47.43-.73.355-1.26.998-1.26 2.096 0 1.398 1.27 2.184 2.567 2.184.872 0 1.826-.457 2.27-1.27h.03c.013.23.013.713.084 1.098h1.685c-.044-.57-.07-1.084-.086-1.64-.017-.544-.03-1.1-.03-1.84v-.942c0-2.17-.928-3.096-3.168-3.096-.816 0-1.815.213-2.557.557l.056 1.64zm.97 3.194c0-1.125 1.27-1.268 2.127-1.268h.828c0 .57-.086 1.098-.4 1.512-.3.4-.756.656-1.34.656-.686 0-1.214-.272-1.214-.9z"/><path fill="#FFF" d="M132.612 42.145h1.91v-10.7h-1.91v10.7"/><path fill-rule="evenodd" clip-rule="evenodd" fill="#FFF" d="M136.22 42.145h1.914V34.8h-1.913v7.345zm0-8.688h1.914V31.63h-1.913v1.827zm3.953 3.367c.643-.486 1.455-.8 2.27-.8 1.126 0 1.654.4 1.654 1.583h-1.057c-.798 0-1.74.072-2.467.43-.728.355-1.256.998-1.256 2.096 0 1.398 1.27 2.184 2.568 2.184.87 0 1.826-.457 2.27-1.27h.028c.014.23.014.713.086 1.098h1.68c-.04-.57-.07-1.084-.09-1.64-.016-.544-.03-1.1-.03-1.84v-.942c0-2.17-.928-3.096-3.168-3.096-.81 0-1.81.213-2.554.557l.056 1.64zm.97 3.194c0-1.125 1.27-1.268 2.127-1.268h.828c0 .57-.086 1.098-.4 1.512-.3.4-.755.656-1.34.656-.686 0-1.214-.272-1.214-.9z"/><path fill="#FFF" d="M56.912 18.154c-.856-.258-1.77-.414-2.925-.414-3.38 0-5.464 1.912-5.464 5.322 0 3.367 2.24 4.98 5.464 4.98 1.07 0 2.17-.23 3.225-.515v-5.363H53.19v1.568h2.11v2.598c-.342.084-.77.14-1.312.14-2.125 0-3.38-1.524-3.38-3.55 0-2.04 1.283-3.61 3.608-3.61.8 0 1.797.17 2.568.528l.128-1.684z"/><path fill-rule="evenodd" clip-rule="evenodd" fill="#FFF" d="M58.314 24.246c0 2.11 1.413 3.795 3.838 3.795 2.44 0 3.852-1.68 3.852-3.79 0-2.42-1.67-3.89-3.852-3.89-2.168 0-3.838 1.47-3.838 3.896zm1.998-.228c0-1.098.6-2.184 1.84-2.184 1.256 0 1.855 1.057 1.855 2.184 0 1.227-.385 2.54-1.854 2.54-1.456 0-1.84-1.328-1.84-2.54z"/><path fill="#FFF" d="M69.06 27.87h2.155l2.71-7.347h-1.91l-1.77 5.35h-.03l-1.825-5.35h-2.055l2.726 7.346"/><path fill-rule="evenodd" clip-rule="evenodd" fill="#FFF" d="M76.083 23.477c.085-.984.627-1.727 1.698-1.727 1.07 0 1.5.8 1.56 1.727h-3.25zM80.62 25.9c-.713.4-1.512.742-2.44.742-1.184 0-2.012-.67-2.097-1.854h5.08c0-2.568-.77-4.438-3.496-4.438-2.283 0-3.41 1.754-3.41 3.88 0 2.41 1.412 3.81 3.838 3.81 1.027 0 1.826-.2 2.524-.584V25.9z"/><path fill="#FFF" d="M82.35 27.87h1.91v-2.696c0-1.055 0-2.996 1.556-2.996.342 0 .685.057.856.156v-1.926c-.2-.057-.4-.057-.585-.057-1.142 0-1.926 1.16-2.012 1.84h-.028v-1.66H82.35v7.35zm5.406 0h1.913v-3.597c0-.94.3-2.44 1.68-2.44 1.23 0 1.24 1.214 1.24 2.114v3.922h1.91v-4.64c0-1.66-.76-2.88-2.5-2.88-1 0-1.81.32-2.41 1.17h-.03v-1h-1.81v7.34zm8.337 0h1.91v-3.567c0-.955.157-2.47 1.427-2.47 1.098 0 1.098.972 1.098 1.657v4.38h1.913v-3.567c0-.955.16-2.47 1.43-2.47 1.1 0 1.1.972 1.1 1.657v4.38h1.91v-4.64c0-1.64-.51-2.88-2.32-2.88-.9 0-1.853.413-2.295 1.298-.414-.914-1.142-1.3-2.17-1.3-.712 0-1.582.3-2.182 1.198h-.027V20.52H96.1v7.347z"/><path fill-rule="evenodd" clip-rule="evenodd" fill="#FFF" d="M109.81 23.477c.084-.984.626-1.727 1.697-1.727 1.07 0 1.498.8 1.555 1.727h-3.253zm4.536 2.423c-.714.4-1.513.742-2.44.742-1.185 0-2.013-.67-2.098-1.854h5.08c0-2.568-.77-4.438-3.496-4.438-2.283 0-3.41 1.754-3.41 3.88 0 2.41 1.412 3.81 3.838 3.81 1.027 0 1.826-.2 2.526-.584V25.9z"/><path fill="#FFF" d="M116.032 27.87h1.91v-3.597c0-.94.3-2.44 1.685-2.44 1.227 0 1.242 1.214 1.242 2.114v3.922h1.91v-4.64c0-1.66-.76-2.88-2.5-2.88-1 0-1.81.32-2.41 1.17h-.03v-1h-1.81v7.34zm8.99-2.212c0 1.455.83 2.383 2.326 2.383.572 0 1.014-.05 1.414-.17l-.057-1.51c-.2.13-.528.2-.87.2-.73 0-.9-.58-.9-1.21v-3.43h1.698v-1.39h-1.697v-2.09l-1.913.613v1.47h-1.412v1.397h1.42v3.738z"/><path fill-rule="evenodd" clip-rule="evenodd" fill="#FFF" d="M132.73 24.246c0 2.11 1.41 3.795 3.837 3.795 2.44 0 3.852-1.68 3.852-3.79 0-2.42-1.67-3.89-3.86-3.89-2.17 0-3.84 1.47-3.84 3.896zm1.996-.228c0-1.098.6-2.184 1.84-2.184 1.255 0 1.855 1.057 1.855 2.184 0 1.227-.38 2.54-1.85 2.54-1.45 0-1.84-1.328-1.84-2.54z"/><path fill="#FFF" d="M142.262 27.87h1.912v-5.95h1.67v-1.396h-1.67v-.914c0-.57.2-1.127.842-1.127.413 0 .655.156.827.256l.157-1.59c-.37-.09-.913-.16-1.398-.16-1.513 0-2.34 1.025-2.34 2.5v1.024h-1.413v1.396h1.41v5.95z"/><g fill="#FFF"><path fill-rule="evenodd" clip-rule="evenodd" d="M30.067 25.307c1.885 3.635 1.162 8.703-1.55 11.725-2.82 3.2-6.863 4.46-11.053 3.46-3.74-.743-7.16-4.403-7.903-8.083-1.04-4.5.77-8.79 4.47-11.39 3.11-2.27 8.13-2.48 11.44-.52 1.9.99 3.7 2.9 4.6 4.8zm.284.18c1.85 3.862.95 8.954-2.01 12.01-2.84 2.993-6.92 4.177-11 3.15-3.98-.866-7.53-4.817-8.08-8.833-.742-4.37 1.07-8.316 4.57-10.873 3.204-2.42 8.524-2.58 11.93-.49 1.94 1.08 3.73 3.07 4.6 5.04zM8.27 34.14c.277.495.606.974.826 1.495-.194.084-.22-.213-.388-.258l-.257.053-2.4 1.342c-.28.207-.39.486-.41.803.03.49.29.998.78 1.188 1.072.09 1.886-.764 2.815-1.188.22-.143.37-.37.388-.62l-.05-.362h.104l.723 1.316-.053.05c-.23-.24-.535-.39-.877-.29l-2.35 1.24c-.433.08-.937.023-1.24-.36-.426-.526-.73-1.14-.594-1.86.057-.31.36-.545.62-.7l2.27-1.26c.24-.17-.02-.417.026-.59h.077z"/><path d="M31.9 34.525c.014.232-.173.568.182.646l3.073 1.4c.245 0 .245-.41.465-.31-.24.52-.446 1.07-.723 1.55h-.078c0-.18.11-.37 0-.54l-3.21-1.497c-.25-.04-.29.304-.49.337.18-.55.43-1.066.693-1.576h.08zm-2.608 4.002c.04.195-.284.33-.13.57l2.532 2.35c.323.148.53-.246.697-.44.4-.54.26-1.438-.07-1.962.02-.045.07-.02.106-.025l.904 1.238c-.736.795-1.46 1.57-2.248 2.3-.025.007-.04-.013-.05-.026.025-.18.23-.322.154-.516l-2.557-2.402c-.228-.162-.435.355-.544.078l1.138-1.164h.077z"/><path fill-rule="evenodd" clip-rule="evenodd" d="M12.634 39.846c.058.143.116.285.26.387l.23-.05v.153c-.264.36-.502.736-.8 1.084h-.077c.148-.555.523-1.336-.026-1.86-.15-.192-.37-.237-.59-.282-.26.02-.51.22-.62.465-.13 1.084 1.39 2.002.36 3.047-.27.258-.6.38-.98.36-.67-.05-1.2-.625-1.52-1.187-.1-.13-.223-.076-.36-.05v-.132c.37-.41.757-.85 1.11-1.26h.08c-.257.58-.71 1.26-.31 1.91.214.23.466.48.8.49.325.02.596-.2.75-.46.298-1.154-1.613-2.246-.154-3.23.665-.365 1.498-.05 1.86.624z"/><path d="M14.985 41.266c.936.322 1.847.717 2.84.904-.038.504-.116.994-.23 1.47-.13-.14-.065-.41-.156-.593-.11-.432-.44-.93-.91-1.057l-1.24 3.434c.04.252.35.238.46.414l-.052.05c-.6-.212-1.22-.392-1.808-.644v-.053c.18-.03.393.08.593 0 .51-1.1.857-2.27 1.29-3.41.02-.08-.077-.1-.13-.12-.695-.07-1.23.25-1.703.726-.115-.02 0-.123 0-.182l.724-1.134.31.206z"/><path fill-rule="evenodd" clip-rule="evenodd" d="M6.668 31.143c-.387.31-.865.53-1.317.75l-.1-1.11 1.42.36zm-2.97-1.137c.95.613 2.12.69 3.177 1.033.323-.39.633.2 1.007.15l.052.05c-1.26.7-2.53 1.476-3.796 2.22-.22.09-.07.406-.258.44-.09-.53-.142-1.11-.18-1.627-.008-.047.07-.02.102-.027.078.13.032.387.258.387.388-.172.794-.353 1.11-.643l-.128-1.266c-.355-.11-.788-.343-1.162-.105-.226.102-.084.424-.31.463-.064-.476-.155-.974-.155-1.444.187.012.16.25.284.36zm17.718 12.63c.355.37.316.962.13 1.394-.26.342-.672.305-1.06.336-.058-.613-.11-1.26-.052-1.885.342.02.717-.05.982.16zm.877.102c.187.238.29.535.207.852-.174.498-.704.69-1.136.826.33.117.755.344.904.725.278.41.426 1.16 1.085 1.11v.08c-.388.02-.762.07-1.162.05-.43-.6-.63-1.37-1.29-1.8-.11-.044-.26-.02-.38-.024l-.05.076.08 1.523c.114.174.314.143.49.18.04.105-.08.144-.157.13l-1.55.05-.05-.05c.11-.182.41-.05.49-.31l-.13-3.437c-.082-.25-.38-.143-.516-.28l.08-.05c1.032.045 2.29-.38 3.097.36zm4.52.542l-1.007.49c-.123-.458-.084-.98-.13-1.472.388.298.79.647 1.137.983zm2.35.697v.053c-.497.232-.987.484-1.497.672-.045-.182.394-.238.232-.49l-.904-.8c-.426.173-.872.36-1.24.618.07.406.014.938.49 1.11h.363v.077c-.445.188-.897.46-1.343.568.368-.29.413-.78.413-1.213l-.155-2.377c-.497-.154-.02-.672-.207-1.033l.052-.05 3.41 2.864h.387zM35 32.46c-.47-.136-.878-.433-1.317-.645.433-.193.93-.348 1.42-.465L35 32.46zm1.937-2.737c-.006.518-.083 1.066-.13 1.602l-.077.025c-.096-.13-.005-.342-.18-.44-.453.054-.898.183-1.266.39l-.13 1.264c.33.2.666.46 1.086.363.24-.05.226-.367.438-.414-.05.498-.025 1.02-.18 1.473-.078-.33-.316-.666-.646-.852l-2.402-1.266c-.394.355-.607-.35-.982-.36v-.08c1.42-.427 2.835-.886 4.236-1.368.156-.078.06-.312.233-.337z"/><path d="M22.14 13.322c-.06.162-.298.117-.414.258-.342.316-.24.814-.258 1.266-.078.854.394 2.26-.75 2.635-.632.2-1.4.12-1.936-.23-.316-.25-.42-.58-.44-.95l-.077-2.632c-.097-.24-.42-.06-.49-.26.554-.096 1.2-.03 1.755-.05.026.226-.27.097-.388.206l-.103.156.07 2.894c.042.277.28.547.54.67.38.135.89.2 1.24-.05.322-.253.46-.62.44-1.034-.118-.82.153-1.8-.234-2.506-.136-.192-.4-.2-.517-.335l.18-.05c.46.08.913-.06 1.37.02zm5.654 1.705h.18c-.064.504-.167.994-.31 1.47-.063-.218-.096-.5-.154-.747-.13-.375-.394-.807-.8-.955-.518 1.117-.943 2.266-1.396 3.408.052.24.31.285.465.44-.03.083-.17.058-.24.026-.525-.26-1.087-.43-1.6-.7.08-.12.31 0 .462 0 .257.03.27-.27.36-.42.356-1.034.834-2.017 1.19-3.05-.698-.28-1.35.162-1.886.57.213-.447.48-.867.8-1.268l.336.232 2.584.983zm3.926 2.815c-.006.033.02.084-.026.104-.2-.006-.31-.303-.542-.154l-1.06 1.084c.35.47.8.78 1.19 1.215h.077c.29-.52 1.5-.92.87-1.57.06-.12.14.01.205.03l1.085 1.11-.052.077c-.195-.01-.318-.296-.543-.153l-2.48 2.53c-.05.2.19.284.184.466h-.13c-.38-.395-.81-.77-1.136-1.19.204-.11.455.387.67.025l1.134-1.136c-.343-.44-.795-.83-1.19-1.24h-.076l-1.24 1.263c-.136.207.355.414.08.518l-1.16-1.16v-.076c.2-.026.392.347.62.103l2.425-2.452c.13-.244-.36-.432-.078-.54l1.16 1.162z"/><path fill-rule="evenodd" clip-rule="evenodd" d="M9.793 18.643v.104c-.55-.207-1.272-.607-1.833-.154-.24.18-.342.412-.387.672.025.244.207.443.413.594 1.04.18 1.867-1 2.918-.39.33.23.472.59.543.95.05.62-.336 1.1-.827 1.443-.2.104-.433.193-.568.387-.02.084.033.137.052.207l-.052.05c-.47-.358-.923-.81-1.343-1.237l.05-.05c.52.314 1.09.676 1.75.49.35-.17.663-.53.67-.93-.02-.29-.208-.557-.466-.697-1.124-.265-2.654 1.608-3.33-.206-.118-.524.04-1.06.463-1.42.24-.27.866-.228.75-.726h.077l1.11.906zm5.527-2.013c.188.483.227 1.23-.128 1.65-.27.292-.607.42-.98.466-1.092-.064-1.596-1.28-1.86-2.143-.104-.486-.078-1.04.283-1.396.35-.322.853-.49 1.317-.31.703.29 1.116 1.072 1.37 1.732zm.57-.853c.328.6.277 1.457-.053 2.04-.38.644-1.065 1.11-1.808 1.16-.77.02-1.45-.237-1.94-.85-.4-.544-.55-1.28-.36-1.964.24-.8 1.04-1.498 1.88-1.576.95-.07 1.84.343 2.27 1.19z"/><path d="M1.376 22.795C4.28 15.178 11.646 9.768 20.284 9.768c8.642 0 16.017 5.416 18.917 13.04l-2.04.76c-2.59-6.788-9.17-11.6-16.87-11.6-7.69 0-14.26 4.817-16.85 11.6l-2.055-.773zm1.17 10.455c1.53 8.406 8.887 14.783 17.74 14.783s16.212-6.377 17.742-14.783l2.163.406c-1.72 9.428-9.98 16.576-19.9 16.576S2.11 43.086.38 33.66l2.163-.41z"/><path fill-rule="evenodd" clip-rule="evenodd" d="M20.28 36.205c.218.527.322 1.135.31 1.73-.763-.323-.29-1.175-.388-1.73h.077zm-.337 0c.006.555.277 1.342-.336 1.703h-.077c-.032-.638.226-1.18.413-1.703zm.57-.13c.218.55.65 1.013.773 1.6.026.093-.084.2-.155.18-.17-.612-.56-1.134-.67-1.78h.06zm-4.134-.026c0 .12-.13.22-.24.25-.228.012-.58.11-.725-.1.084-.386.6-.14.904-.21l.05.05zm2.76 1.83c-.08.07-.18-.03-.21-.11.14-.653.514-1.208.772-1.81-.05.66-.38 1.272-.568 1.913zm.38-1.91c-.18.59-.69 1.04-.956 1.6-.045.02-.07-.03-.104-.056.29-.543.634-1.11 1.06-1.55zm-1.395 1.32h-.05c.16-.53.75-.91 1.135-1.32-.15.5-.846.81-1.085 1.32zm.104-1.3c-.15.084-.298.465-.57.283-.018-.128.12-.218.21-.284.1-.037.255-.037.36 0zm-1.06 0c.07.11 0 .27-.13.283-.187-.02-.31.046-.464-.05.028-.09.08-.168.157-.234.13-.037.31-.037.44 0zm7.54.05c-.076.425-.62.155-.93.23.02-.173.214-.25.337-.335.2.034.484-.084.594.104zm-1.083-.054c.006.123-.13.23-.23.26-.124.05-.298.025-.36-.078-.03-.144.082-.194.18-.233.134.02.31-.044.412.05zm-.98.053c-.027.083-.04.175-.13.23-.245.1-.41-.153-.594-.284.187-.057.568-.12.723.053zm-.827 1.446c-.012.062.03.15-.05.18-.31-.594-.98-1.11-1.084-1.78l1.136 1.6zm.595-.57V37c-.472-.36-.872-.852-1.266-1.29.47.335.85.78 1.265 1.212zm-1.55-1.213c.53.52.923 1.02 1.37 1.576.005.082 0 .16-.078.205-.447-.62-.98-1.138-1.37-1.784h.077zM17.95 36.87h-.077c.04-.36.497-.535.75-.8l.516-.362c-.33.44-.82.724-1.19 1.163zm1.29-1.678c-.277.58-1 .502-1.575.465.033-.19.316-.356.49-.49.402.095 1.047-.937 1.086.024zm2.687-.258c.244.198.496.417.696.67-.537-.046-1.28.265-1.603-.362l.207-.62c.188.22.466.208.698.31zm-.676-1.294c.05-.174-.12-.51.19-.463l.1-.646c-.403-.8-.532-1.87-.28-2.79-.005-.37-.135-.77-.49-.93-.252.12-.15.47-.284.67-.24.4-.63.64-1.083.62-.323-.02-.084.27-.155.44.065.96-.812 1.75-.31 2.66l.053-.05c.273 0 .104.28.123.49 0 .04.01.078.03.11.11.256.303.514.335.77h-.182c.15.53.343 1.11.854 1.42.444-.354.644-.852.8-1.342l-.13-.078c.162-.266.342-.52.414-.826.01-.01.015-.03.02-.05m.946 0c-.11-.29-.097-.634-.27-.876-.11-.053-.196.076-.21.154-.06.22-.134.475-.15.723-.023.312.047.613.36.824l1.082 1.03c.66-.116 1.09.31 1.73.23.123.02.188.156.23.258.04.23-.14.43-.333.49-.43-.143-.758.56-1.088.05-.18.06-.3.26-.54.183-.11-.083-.23-.22-.386-.13.11.395.517.66.49 1.11-.38-.005-.322.55-.722.49-.103.124-.077.39-.31.364-.335-.11-.464.42-.826.153l-.31.36-.465-.18c-.187.12-.284.464-.542.26-.09-.12-.204-.294-.36-.314-.12.04-.224.13-.36.13-.122-.54-.76.117-.826-.463-.207-.09-.58 0-.594-.335-.118-.108-.33-.037-.39-.238.104-.27-.277-.205-.257-.438.062-.33.263-.595.44-.88-.177-.123-.33.11-.52.104-.18-.033-.355-.277-.517-.025-.187.03-.323-.048-.465-.13-.205.025-.592.062-.825-.078-.122-.13-.16-.324-.102-.494.297-.494 1.007-.094 1.395-.436.955.302 1.394-.69 2.014-1.138.19-.25.23-.514.195-.777-.04-.35-.193-.7-.273-1.03-.102-.008-.13.107-.153.18-.02.287-.01.592-.11.85-.045.113-.115.22-.22.312-.31-.11-.58-.048-.83.153-.21-.05-.31-.445-.566-.31-.136.103-.246.34-.44.23-.096-.103-.147-.245-.283-.31-.18 0-.393.234-.54 0-.017-.02-.033-.05-.05-.076-.075-.12-.17-.26-.338-.158-.114.064-.244.09-.385.076l-.257-.44c-.232-.093-.593.204-.645-.157-.02-.11-.04-.298-.207-.26-.28-.007-.6.136-.85-.026.02-.237.16-.464.18-.67-.263-.065-.683.044-.876-.208.03-.226.096-.438.18-.644-.32-.07-.69-.053-.98-.207-.066-.24.147-.424.257-.623-.22-.166-.516-.18-.697-.385.013-.343.38-.495.568-.747-.14-.245-.44-.343-.62-.593.17-.267.447-.487.7-.65-.148-.294-.536-.462-.568-.772.22-.137.425-.31.697-.31l.076-.077c-.135-.225-.38-.4-.464-.644.34-.143.78-.033 1.11-.207-.096-.303-.47-.49-.542-.8.35-.2.737.044 1.086 0-.278-.272-.542-.595-.542-1.01.228-.153.434.06.648.106.32.204.656.386 1.005.54l.05-.053c-.284-.463-.917-.818-.85-1.393.695.13 1.225.633 1.83 1.06.02-.22-.22-.4-.283-.62-.17-.446-.5-.827-.44-1.368.283-.01.522.32.722.54l.594.83c.18-.296-.105-.52-.156-.778.005-.46-.253-.966.025-1.37.42.094.482.61.643.953.09.325.125.667.287.956.007-.63.156-1.266.027-1.885.05-.262.206-.55.44-.67l.102.207c.062.386.09.778.076 1.19l.05.054c.17-.065.195-.3.39-.31.464 1.375-.175 2.742-.336 4.08.02.75.227 1.414.543 2.04-.17.632.58.884.643 1.42.135.214.36.034.54.052.18.013.278.298.49.155.31-.19.273-.564.234-.88-.26-.34-.775-.39-.93-.82.257-.028.535.044.774.13l.05-.055c-.192-.29-.49-.45-.773-.593.13-.136.416-.07.597-.05.825.33 1.89.586 2.246 1.572.07.213.06.47.207.646.27-.058.55.122.774-.05.993-.846.71-2.215 1.24-3.256-.098-1.48-.214-2.89-.13-4.413.026-.065.116-.065.155-.026.07.07.09.204.205.204.13-.36.014-.82.31-1.11.292.08.39.42.415.697v1.04l.053.05c.18-.42.29-.884.696-1.187.094-.065.184.052.18.153-.06.607-.047 1.254-.415 1.732.013.11 0 .224.077.31.406-.506.754-1.268 1.445-1.473.23.367-.078.773-.233 1.11-.29.25-.368.587-.568.876l.05.054c.465-.567 1.084-1.09 1.782-1.265.134.14-.033.29-.053.432-.283.213-.244.56-.464.8-.23.298-.567.458-.774.724.284-.05.53-.36.827-.465.406-.22.82-.413 1.316-.413.11.3-.29.484-.49.672-.21.136-.38.304-.516.515.457-.07.967-.405 1.47-.204-.077.33-.432.48-.593.777.124.1.29 0 .44 0 .22.03.46.02.62.206-.05.31-.465.4-.594.67.256.15.6.11.825.337v.13l-.567.514.026.077c.317.144.634.33.88.595l-.027.13c-.244.164-.51.266-.75.44.11.23.48.33.493.62l-.8.387c.064.26.4.504.31.826-.278.092-.62.027-.88.156.09.217.227.463.208.695-.303.095-.684.005-.955.18.006.22.012.44-.13.595l-.54.026-.338.49c-.257.046-.515-.212-.722.028l-.206.36c-.193.013-.33-.11-.516-.103-.058.04-.096.108-.13.18-.07.138-.126.28-.285.233-.13-.046-.233-.22-.388-.13-.084.104-.16.232-.258.31-.18-.032-.35-.265-.544-.103-.09.09-.172.2-.31.183-.09-.137-.27-.336-.44-.182-.1.127-.236.1-.36.03-.122-.094-.195-.21-.244-.34M20.1 28.4c.007.05-.006.135-.077.104h-.078v-.154c.05.017.154-.047.154.05zm3.435.05c.142-.013.142-.19.31-.153.13.27-.426.373-.18.568.14-.052.31-.214.464-.077-.01.214-.286.214-.338.388.227.014.44.098.57.285.038.106-.08.145-.156.13-.194.04-.394-.08-.542 0 .117.2.42.23.388.517-.266.104-.434-.174-.672-.205-.064.187.246.284.208.49-.24.08-.41-.16-.592-.257-.045.122.04.25.104.36-.187.09-.374-.045-.464-.207-.26-.366.224-.62.333-.93.34-.335.334-.82.54-1.214.046.117-.096.22.026.31zm-5.888.802c.258.168.33.46.414.725.02.24-.11.445-.31.568-.11.007-.19-.07-.18-.18-.044-.087.1-.157-.025-.208-.134.09-.26.275-.44.18-.062-.18.106-.33.157-.49-.205-.027-.353.314-.62.152-.056-.22.13-.34.234-.49-.207-.118-.362.114-.568 0 .01-.19.33-.25.49-.39-.14-.1-.37-.23-.388-.44.24-.13.4.244.62.076.005-.194-.227-.36-.105-.544.09.04.152.135.23.207.16-.046.02-.208.025-.31.234.32.04.87.466 1.135zm1.962-1.01c-.06.13.03.37-.18.39-.184-.01-.326-.107-.468-.205.175-.083.434.175.595-.024.034-.265-.23-.405-.385-.593.26-.013.453.18.44.438zm4.96-.67c.01.246-.274.13-.39.234-.07-.15.173-.233.283-.286.04 0 .11-.006.103.053zm.152-.39c-.115.18-.354.177-.54.235.063-.172.33-.353.54-.412.117.045 0 .123 0 .18zm-.025-.67c-.05.254-.366.428-.566.596-.084-.283.258-.52.465-.75.085-.012.124.085.104.156zm-8.133-.08c-.106.515-.19 1-.08 1.526-.174.008-.303-.096-.438-.18-.066-.09-.09-.193-.08-.31.13-.06.247.22.39.05-.03-.25-.355-.334-.44-.566.19-.13.37.27.492 0-.08-.22-.51-.304-.39-.595l.26.13c.01-.213-.194-.37-.13-.57.174.11.278.345.413.518zm7.98-.54c-.03.246-.246.48-.414.7h-.03c.02-.25.24-.53.44-.697zm-7.904.26c-.14-.213-.38-.53-.206-.8.16.206.136.535.208.8zm7.413-.85c-.06.21-.215.45-.106.67.142-.09.13-.335.31-.39-.027.28-.13.584-.31.828-.195-.392-.18-.93-.104-1.37.15.008.136.178.207.26zm-7.13-.572c.012.39.103.776-.078 1.11.057-.365-.537-.882.076-1.11z"/><path d="M0 29.838h2.186v.55H0v-.55m.027-.398l.02-.545 2.175.085-.022.55-2.173-.09m.063-.91l.043-.544 2.16.172-.042.545-2.16-.172m.1-.91l.07-.54 2.15.26-.063.54-2.15-.25m.138-.91l.087-.54 2.137.344-.087.54-2.135-.347m.137-.91l.11-.535 2.127.43-.11.538-2.126-.43m.21-.89l.13-.534 2.11.516-.13.53-2.11-.517m.4-1.422l2.1.605-.15.53-2.104-.6.15-.53m39.437 6.35h-2.2v.55h2.187v-.55m-.028-.396l-.02-.545-2.18.084.02.55 2.173-.09m-.063-.91l-.042-.543-2.16.174.04.544 2.163-.172m-.1-.91l-.063-.54-2.15.26.063.54 2.15-.257m-.136-.91l-.087-.537-2.136.342.088.54 2.138-.347m-.136-.91l-.11-.535-2.124.43.11.534 2.123-.43m-.21-.893l-.13-.534-2.116.518.135.53 2.11-.514m-.398-1.422l-2.1.606.15.527 2.102-.6-.155-.53"/></g></svg>