<svg xmlns="http://www.w3.org/2000/svg" width="71" height="71" viewBox="-2.5 55 71 71"><path fill="#672e2a" d="M37.5 70c-11.046 0-20 8.954-20 20s8.954 20 20 20c11.047 0 20-8.954 20-20s-8.953-20-20-20zm5.968 26.78c-.354.744-.85 1.38-1.478 1.907-.63.528-1.372.93-2.225 1.206-.07.023-.143.03-.21.05v3.33h-2.87v-2.977c-1.094-.015-2.096-.106-2.975-.3-.966-.21-1.67-.383-2.108-.516l.258-3.902c.708.267 1.396.54 2.066.815.67.278 1.444.417 2.324.417.36 0 .72-.04 1.075-.14.352-.094.668-.24.945-.428.277-.19.497-.44.66-.746.162-.306.244-.66.244-1.062 0-.65-.197-1.163-.59-1.534-.39-.374-.878-.7-1.46-.978-.584-.276-1.215-.556-1.893-.832-.678-.277-1.31-.646-1.893-1.105-.584-.458-1.07-1.056-1.464-1.795-.392-.735-.588-1.696-.588-2.884 0-.095.014-.306.043-.63s.115-.7.258-1.12c.144-.422.36-.867.646-1.336.287-.468.69-.893 1.205-1.275.517-.384 1.162-.703 1.937-.963.39-.13.83-.23 1.31-.293v-2.24h2.87v2.21c.36.036.718.08 1.07.135.372.058.74.13 1.104.216.363.087.765.18 1.204.274l-.2 3.73c-.555-.287-1.196-.532-1.924-.732-.727-.2-1.406-.3-2.036-.3-.766 0-1.403.176-1.91.53-.506.354-.76.905-.76 1.65 0 .613.196 1.097.588 1.45.393.354.882.67 1.463.946.584.278 1.212.56 1.892.847.678.288 1.31.667 1.895 1.134.582.47 1.07 1.07 1.462 1.808.393.737.59 1.7.595 2.877.002.96-.178 1.81-.53 2.555z"/></svg>
