<svg xmlns="http://www.w3.org/2000/svg" width="71" height="71" viewBox="-2.5 55 71 71"><path fill="#672e2a" d="M37.5 70c-11.045 0-20 8.955-20 20 0 11.046 8.955 20 20 20s20-8.954 20-20c0-11.045-8.955-20-20-20zm2.498 24.592c-1.29.896-2.848 1.428-4.53 1.428-4.394 0-7.968-3.598-7.968-8.02 0-4.424 3.574-8.02 7.968-8.02 4.393 0 7.967 3.6 7.967 8.02 0 1.616-.48 3.118-1.3 4.378l3.144 3.166-2.17 2.18-3.112-3.132zm5.713 5.75l-2.165-2.182 2.166-2.18 2.168 2.18-2.167 2.183zM35.47 82.885c-2.804 0-5.084 2.296-5.084 5.116s2.28 5.117 5.083 5.117c2.8 0 5.08-2.297 5.08-5.117s-2.28-5.116-5.08-5.116z"/></svg>
