<svg id="Layer_3" xmlns="http://www.w3.org/2000/svg" viewBox="-145 347 320 100"><style>.st0{fill:#672e2a}.st1{fill:none}.st2{fill:#2929b7}</style><path class="st0" d="M-31.7 418.4v-25.1h-4v28.6h10.1v-3.5zM-75.3 410h2.6v6.6c0 .9-.1 2.6-2 2.6s-2-1.6-2-3.5v-16.5c0-1.4-.1-3.2 1.8-3.2 1.7 0 1.7 1.3 1.7 2.9v3.1h3.5v-2.9c0-2.1.1-6.3-5.1-6.3-1.2 0-3.2.2-4.6 2.4-1.1 1.6-.9 3.3-.9 5.8v14.2c0 2.1-.1 7.2 5.1 7.2 2.1 0 2.9-1.2 3.4-1.8l.3 1.3h2.2v-15.4h-6.2v3.5h.2zM-44.9 393c-1.8 0-3.6.7-4.8 2-1.3 1.5-1.5 3.4-1.5 6v14.4c0 1.4 0 2.8.7 4.1 1.4 2.8 4.4 2.8 5.2 2.8 6.2 0 6.4-4.6 6.4-6.8v-13.6c0-3.5-.1-5.5-1.7-7.2-1.1-1.4-2.7-1.7-4.3-1.7zm2.2 22.1c0 2 0 3.9-2.3 3.9-2.1 0-2.1-1.6-2.1-3v-15.4c0-1.8-.1-2.4.2-3 .5-1.4 1.8-1.4 2.1-1.4 2.2 0 2.2 1.9 2.2 4.4v14.5h-.1zM-62.4 393.3l-4 28.6h3.7l.7-5.3h4.3l.7 5.3h3.7l-4.4-28.6h-4.7zm.7 19.8l1.2-9.9c.1-.5.1-.7.2-4.6h.3c0 2.2.1 3.5.2 4.6l1.4 10c.1-.1-3.3-.1-3.3-.1z"/><g><path class="st0" d="M-65.6 389.1v-10.3c0-1.2-.3-2.3-2.5-2.3h-3.6v15.4h3.8c1.6 0 2.3-.7 2.3-2.8zm-2.2 0c0 .5-.1.7-.7.7H-70v-11.4h1.4c.8 0 .9.4.9 1v9.7h-.1zM-42.3 376.5h1.8v15.4h-1.8zM-48.5 388.9h2.3l.4 3.1h2l-2.4-15.4h-2.5l-2.2 15.4h2l.4-3.1zm.9-7.2c0-.3 0-.4.1-2.6h.2c0 1.3 0 1.9.1 2.5l.8 5.4h-1.8l.6-5.3zM-25.6 389.7h-3.1v-4.8h2.7v-2.2h-2.7v-4.4h3.1v-1.8h-4.8v15.4h4.8zM-55.1 376.5h-2.2v15.4h5.3v-2.2h-3.1zM-32.6 389.1v-10.3c0-1.2 0-2.3-2.2-2.3h-3.5v15.4h3.7c1.6 0 2-.7 2-2.8zm-2.6.6h-1.4v-11.4h1.2c.8 0 1 .4 1 1v9.7c0 .6-.2.7-.8.7zM-78 388.9h2.3l.4 3.1h2l-2.4-15.4h-2.5l-2.2 15.4h2l.4-3.1zm.8-7.2c0-.3 0-.4.1-2.6h.2c0 1.3 0 1.9.1 2.5l.8 5.4h-1.8l.6-5.3zM-59 389.7h-3.1v-4.8h3.1v-2.2h-3.1v-4.4h3.1v-1.8h-4.9v15.4h4.9z"/></g><g><path class="st0" d="M-85.4 400.1c-.3-.3-9.6-1.9-9.8-2h-6.8v1.9s5.8 0 7.3.1 8.7 1.4 8.7 1.4l.1 1.6s.7-2 .8-2.3c0-.3 0-.4-.3-.7z"/><path class="st1" d="M-94.5 377.8l-14.1.5M-94.6 373.9l-4.9.1M-94.9 372.8l-4.6.3"/><path class="st0" d="M-86.8 394.4s-.3-.1-.5-.1 0 0-.2-.1-.3-.1-.4-.1-.2 0-.2.1c-.1.1-.1.4-.1.6s0 .5.1.6c.1.2.2.1.4.2s1 .3 1 .3 0-.2-.1-.4c0-.2.1-.4.1-.6-.1-.1-.1-.5-.1-.5zM-86.9 404.4c.1.1.6 0 .6 0v-.1c0-.1-.1-.9-.1-.9s-.2-.1-.3-.1-.3.1-.4.3c-.1.2 0 .2 0 .5-.1.3.1.2.2.3zM-88 404.6c0 .1-.1.1 0 .3 0 .2 0 .3.1.5s0 .3.1.3.2.2.4.2c.3 0 .4.1.5.1h.4s.1-.4.1-.6v-.5-.3s-.2-.1-.5-.1-.4-.1-.6-.1c-.3.1-.4 0-.5.2z"/><path class="st0" d="M-86.4 406.7v-.6s0-.1-.1-.1h-.2c-.1 0-.1.1-.2.2s0 .3 0 .4c0 .2.1.3.1.5 0 .1.2.1.4.1s.1-.1.1-.2c-.1 0-.1-.1-.1-.3zM-86.3 408v-.5h-.4c-.2 0-.1 0-.3.1-.1.1-.3.2-.4.3-.1.1-.1.3.2.3.3 0 .9.1.9.1v-.3zM-97.5 402.9h-.4c-.2.1 0 .2 0 .4v.3c0 .1.1.1.3.1.2 0 .2.2.2.2h1.9s.6.1.8.1c.2 0 .3-.2.3-.5 0-.2-.1-.5-.2-.6s-1-.3-1-.3-.4 0-.6.1c-.2 0-1.2.1-1.2.1l-.1.1z"/><path class="st0" d="M-93.6 402.2s-.4-.2-.5-.3c-.1-.1-1.2-.3-1.2-.3h-.3c-.2 0-1.2.1-1.2.1v.7c0 .2-.1.4 0 .4h1.8c.1 0 .4.1.6.1s.6.1.8.1.1-.1.1-.4c0-.3-.1-.4-.1-.4zM-91.9 403.1H-92.5v.4c0 .2 0 .2.1.2s.4.1.5.1.3-.5.2-.6c0-.1 0-.1-.2-.1zM-92.5 402.4c.3.1.9.2 1.1.2s.3.1.4 0 .2-.2.2-.3v-.3c-.1-.2 0-.2-.1-.3-.1-.1-.4-.1-.6-.1H-92.4v.4c-.2.2-.4.3-.1.4z"/><path class="st2" d="M-90.7 401.1h-.8"/><path class="st0" d="M-100.5 406.4v-.5-.6s-.3-.1-.5-.1-.7.1-.8.1h-.6v1c0 .1 0 .2.4.2h.7c.4 0 .8 0 .8-.1zM-101 406.6s-.1-.1-.3-.1h-.9v1.3h.5c.2 0 .5.1.5 0s.1-.3.1-.5c-.1-.1-.1-.3 0-.4.1-.2.1-.3.1-.3zM-92.8 414.6l-.1.3-.1 1.3h4.4v-1.4l-.2-.3s.1-2.4.1-6.2c0-3.7-1.6-4.1-2.2-4.2-.6 0-1.8.6-1.9 2.1v8.4zM-88.5 408h.7l.1-.2v-1l-.8-.1zM-94.2 406.8v1.2h1.2v-1.2zM-86.3 414v-.6c0-.2-.1-.3-.1-.5 0-.1-.1-.4-.1-.4s-.7-.3-.8-.2c-.1.1-.2.5-.1.8.1.2.1.5.2.6s.9.3.9.3zM-87.9 413.9c-.1.1-.2.3-.1.5s0 .4.2.5c.1.1 0 .1.3.2.4.1.6.2.7.2s.2.2.3.1c.1-.1 0-1 0-1s-.6-.3-.9-.3c-.3-.2-.4-.3-.5-.2zM-87 416.5c0 .1 0 .2.1.4.1.1.5.1.5.1l-.1-1.1s-.3 0-.4-.1-.3 0-.3.1.1.2.1.2c0 .1 0 .3.1.4zM-86.4 417.4s-.3-.1-.5-.1 0 0-.2-.1-.3-.1-.4-.1c-.2 0-.2 0-.2.1-.1.1-.1.4-.1.6s0 .5.1.6c.1.2.2.1.4.2s1 .3 1 .3 0-.2-.1-.4c0-.2.1-.4.1-.6-.1-.1-.1-.5-.1-.5zM-98.1 396.4c0 .1.1.1.3.1.2 0 .2.2.2.2h1.9s.6.1.8.1.3-.2.3-.5c0-.2-.1-.5-.2-.5-.1-.1-1-.3-1-.3s-.4-.1-.6 0c-.2 0-1.2-.1-1.2-.1h-.2s-.2.1-.4.1c-.2.1 0 .2 0 .4.1.3 0 .4.1.5z"/><path class="st0" d="M-93.8 395.3c0-.3-.1-.3-.1-.3s-.4-.2-.5-.3c-.1-.1-1.2-.3-1.2-.3h-.3c-.2 0-1.2.1-1.2.1v.7c0 .2-.1.4 0 .4h1.8c.1 0 .4.1.6.1s.6.1.8.1c.1-.1.1-.3.1-.5zM-98.2 417.8v.3c0 .1.1.1.3.1.2 0 .2.2.2.2h1.9s.6.1.8.1c.2 0 .3-.2.3-.5 0-.2-.1-.5-.2-.5-.1-.1-1-.3-1-.3s-.4.1-.6.1-1.2.1-1.2.1h-.2s-.2-.1-.4 0c0 .1.1.2.1.4zM-97.1 417.1h1.8c.1 0 .4.1.6.1s.6.1.8.1c.1 0 .1-.1.1-.4s-.1-.3-.1-.3-.4-.2-.5-.3c-.1-.1-1.2-.3-1.2-.3h-.3c-.2 0-1.2.1-1.2.1v.7c-.1.1-.1.3 0 .3zM-107.9 374.4l4.8-.1.1 1.3 3.1-.1-.1-.3-2.2.1-.7-1.9h-4.6l-3 2 .3.5zM-95.1 379.7l-12.7.5-4.1 2.1.1.4 4.2-2.1 12.5-.4 9.7 3.3.1-.5z"/><path class="st0" d="M-86.6 387.2h.3l.1-1 .7-.3.1-2.1-9.8-3.4-12.4.4-4.1 2.1.7 1 3.7-1.8 12.3-.2 8.3 2.7z"/><path class="st0" d="M-85.9 379.3l.2-1.6-1.2-.5v-.2l-1.9-.7-.5.6.4.3-.1.7-2.6-.9-.2-1.2-3.1-1.2-4.8.3.1.9-3.6.1-.1-1.3-4.5.1-2.6 1.4.3.6-1.5 1-.6-.4-1.9 1.3 1.2 1.9 4.3-2.4 14.1-.5 8.6 3.2v-.7l-.4-.2v-.3z"/><path class="st0" d="M-108.3 378.9l-4.3 2.5.6.8 4.1-2.2 12.8-.5 9.9 3.4v-1l-9.4-3.5zM-112.3 377l.7.4 1.2-.8-.2-.4-1-.2-2.7 1.7-.2.2.2.4zM-89.4 376.8l.6-.7 2 .7v.2l1.2.5v-.5l-.7-.4v-.3l-3-1.2-1.4.6.1.7zM-99.1 388.9v-1.8h.4s-.5-2.4-2.9-2.5-3.1 2.5-3.1 2.5h.8v2.2h-.4v4.5l1.3 2.1h4v-7h-.1zM-87.6 388.7c.1.1.9.3.9.3v-.5c0-.2-.1-.3-.1-.5 0-.1-.1-.4-.1-.4s-.7-.3-.8-.2c-.1.1-.1.5-.1.8.1.2 0 .4.2.5zM-88.3 388.8c-.1.1-.2.3-.1.5s0 .4.2.5 0 .1.3.2c.4.1.6.2.7.2s.2.2.3.1c.1-.1 0-1 0-1s-.6-.3-.9-.3c-.3-.2-.4-.3-.5-.2zM-88.7 391.1c-.1.1-.1.2 0 .4 0 .2.1.1.2.1s.1.2.2.4.1.1.3.2c.2.2.3.2.5.3.2.1.3.2.5.1.2 0 .1-1.3.1-1.3l-.3-.2s-.3-.1-.5-.2c-.1-.1-.2 0-.4 0s-.2 0-.4-.1c-.1.1-.1.2-.2.3zM-87.7 386.2c.1.1.7.2.7.2v-.7s-.2-.1-.4-.1c-.1-.1-.3-.1-.5.1s0 .2 0 .3l.2.2zM-97.9 391.1h.9c.3 0 .3-.3.3-.3 0-.1 0-.3-.1-.5-.2-.2-.3-.3-.6-.2h-1.3V391s0 .1.1.1c.1-.2.4 0 .7 0z"/><path class="st0" d="M-97.5 388.5l.1-1.1-1.7-.1v1.4h1.4zM-104.1 387.4h-2l-.1 1.5h2.1zM-124.2 364.9v3.7l21.3 29.8-.6 23.9-14.6 5.9 1.5.9 13.7-6.5.6-24.6zM-97.9 385.3c.2 0 .2.2.2.2h1.9s.6.1.8.1.3-.2.3-.5c0-.2-.1-.5-.2-.6s-1-.3-1-.3-.4 0-.6.1c-.2 0-1.2.1-1.2.1h-.2-.4c-.2.1 0 .2 0 .3v.3c.2.2.3.3.4.3z"/><path class="st0" d="M-93.8 384c0-.3-.1-.3-.1-.3s-.4-.2-.5-.3c-.1-.1-1.2-.3-1.2-.3h-.3c-.2 0-1.2.1-1.2.1v.7c0 .2-.1.4 0 .4h1.8c.1 0 .4.1.6.1s.6.1.8.1c.1-.1.1-.2.1-.5zM-107.8 384.7c.1 0 1-.1 1.1-.1H-105.4c.1 0 .1-.1 0-.3 0-.2-.1-.2-.1-.2s-.3-.1-.4-.2-.9-.1-.9-.1h-.2c-.1 0-.9.2-.9.2v.4c0 .1 0 .3.1.3zM-96.1 422.9l-6.5-1.7v1.2l7.6 1.7s.4.1 1-.1l7.7-2v-1c0 .1-7.4 2.5-9.8 1.9zM-108.6 378.3l-4.3 2.5.2.3 4.4-2.4 13.7-.5 9.5 3.5v-.5l-9.4-3.4zM-91.6 375.8l.4-.4-3.4-1.5-4.9.1v.8l4.8-.3z"/><path class="st0" d="M-91.2 375.3v-.5l-.4-.2-.1-.4-3.2-1.4-4.6.3v.7l5-.1zM-91.5 376.8l2.4.8v-.4l-1.8-.8-.2-.4h-.5zM-87.6 392.8c0 .1.1.2.1.2 0 .1 0 .3.1.4 0 .1 0 .2.1.4.1.1.5.1.5.1l-.1-1.1s-.3 0-.4-.1c-.1 0-.3 0-.3.1zM-88 384.7s-.2-.1 0 .2c.1.3.1.3.3.4.2 0 .2-.1.3 0 .2.1.2.1.3.1h.1v-.4l-1-.3zM-90.9 401.4c.5 0 .3-.2.2-.2H-92c-.3 0-.3-.1-.4-.1h-.1s-.1 0 0 .1c0 .1 1.1.2 1.6.2zM-90 403.2c.2-.1.3 0 .3-.1 0-.2.1-.3-.1-.3h-.4c-.1 0-.1.1-.1.1s-.1.2 0 .3c0 0 0 .1.3 0zM-101.4 404.6c-.1 0-.2 0-.3-.1-.1 0-.2-.1-.3 0h-.1v.4c0 .1.5.2.7.2.3 0 .4 0 .4-.1v-.2c-.2-.2-.3-.2-.4-.2zM-97.7 389.7c.1 0 0-.1 0-.2 0-.2 0-.1-.1-.2 0-.1-.2 0-.3 0h-.6v.1l-.1.3h1.1zM-108.3 384.9s-.2 0-.3.1c-.1.1 0 .1 0 .3 0 .1 0 .2.1.2 0 .1.1.1.2.1s.2.2.2.2l1.4-.2h.6c.1 0 .2-.2.2-.4s-.1-.3-.2-.4-.8-.1-.8-.1-.3 0-.4.1c-.1 0-.9.1-1 .1z"/></g></svg>