<?xml version="1.0" encoding="utf-8"?>
<!-- Generator: Adobe Illustrator 21.0.0, SVG Export Plug-In . SVG Version: 6.00 Build 0)  -->
<svg version="1.1" id="Layer_1" xmlns="http://www.w3.org/2000/svg" xmlns:xlink="http://www.w3.org/1999/xlink" x="0px" y="0px"
	 viewBox="0 0 362 280" style="enable-background:new 0 0 362 280;" xml:space="preserve">
<style type="text/css">
	.st0{fill:#FFFFFF;}
</style>
<path class="st0" d="M330.6,280l-2-7c-0.3,0-0.6-0.1-1-0.2c0-0.5,0.2-0.9,0.6-1.2l-0.5-1.7l-0.3-0.2c-0.2,0.6-0.3,1.1-0.4,1.5
	c-1.5,0.5-2.1,0.4-3-1c-0.6-0.8-1.2-1.1-2-1.2c-0.1,0-0.2,0-0.3,0c-0.1,0.2-0.1,0.3-0.2,0.5c0,0.1-0.1,0.1-0.3,0.2
	c-0.8-0.4-1.1-1.3-1.5-2c-0.5-0.9-1.3-1.4-2.2-1.8c-0.7-0.3-1.4-0.8-2.1-1.1c-0.4-0.2-0.8-0.4-1.3-0.5c-0.3,1.3,1,1.7,1.1,2.8
	c-0.4-0.2-0.9-0.3-1.3-0.5l-1.4-1.3c-0.1-0.2-0.1-0.5-0.1-0.8c0.1-0.2,0.4-0.4,0.7-0.7c-0.1-1.2-1.2-1.6-1.9-2.3
	c-1.1-1.1-2.3-2.1-3.5-3.2c-0.4-0.3-0.4-0.7-0.2-1.1c0.3-0.5,0.7-1,1-1.6c-0.9-1-0.9-1-2.1-0.4c-1.3,0.7-2.9-0.1-3.2-1.5
	c-0.1-0.4,0-0.7-0.1-1.1c-0.1-0.3-0.2-0.7-0.3-1c-0.2-0.5-0.5-1-0.9-1.7c-0.2-0.1-0.7-0.2-1.2-0.3c-0.2-0.6-0.4-1.3-0.8-1.9
	c0,0,0,0-0.1-0.1c-0.4-0.4-0.8-0.7-1.2-1.1c-0.1-0.1-0.2-0.2-0.3-0.2c-0.2-0.1-0.7,0-0.8,0.1c-0.2,0.2-0.1,0.6-0.1,0.9
	c0.1,0.2,0.3,0.4,0.5,0.7c-0.3,0.1-0.5,0.3-0.6,0.3c-0.8-0.4-2-0.2-2.4-1.3c-0.1-0.3-0.4-0.8-0.3-1.2c-1.8-1.1-1.8-1.1-2.1-1.7
	c0.4-0.3,0.8-0.6,1.3-1c-0.5-0.3-0.8-0.5-1.3-0.8c0.3-0.1,0.5-0.2,0.7-0.3c-0.1-0.1-0.2-0.1-0.2-0.2c-1.9-1.4-3.8-2.8-5.7-4.2
	c-0.8-0.6-1.7-1.3-2.5-2c-0.3,0-0.7,0.1-1.1,0.2c0.3-0.3,0.4-0.5,0.6-0.6c-0.7-0.6-1.4-1.1-2.1-1.7v-10.6c0.8-0.1,1.7-0.2,2.5-0.2
	c0.3-2.1,0.3-2.1-1.6-2.9c-0.4-0.2-0.7-0.4-0.9-0.6v-5.1c0.3-0.3,0.6-0.5,0.8-0.8c0.3-0.4,0.6-0.9,0.9-1.4c0.4-0.8,0.7-1.6,1.2-2.8
	c-0.2-0.3-0.5-1-0.9-1.8c0.5-0.9,1.2-1.8,1.5-2.8c0,0,0-0.1,0-0.1c0-0.9,0.1-1.7,0.1-2.6c0-0.2,0-0.4-0.1-0.7c0-0.3-0.6-0.9-1-0.9
	c-0.4,0-0.8,0.4-1.1,0.8c-0.2,0.3-0.3,0.8-0.4,1.3c-0.4-0.2-0.9-0.3-1-0.5c0-0.1-0.1-0.2-0.1-0.2v-5.2c0.1-0.2,0.3-0.3,0.5-0.4
	c-0.4-3.3-0.4-3.3,0-4.2c0.8,0.2,1.5,0.3,2.5,0.5c-0.1-1-0.2-1.5-0.4-2.5c0.4,0.2,0.8,0.4,1.2,0.6c0-0.2,0-0.3,0-0.5
	c-0.1-3.8-0.4-7.4-0.5-11.2c-0.1-1.7-0.1-3.3-0.1-5c-0.4-0.4-0.8-0.8-1.3-1.3c0.6,0,1,0.1,1.4,0.1c0-2.1,0.1-4.3,0.1-6.4
	c-0.1-0.2-0.3-0.4-0.5-0.9c-0.5,0.9-0.9,1.5-1.3,2.3c-0.7-1.2-0.4-2.5,0-3.2c0.8-1.3-0.2-2.6,0.3-3.8c0.1-0.2-0.2-0.6-0.4-0.7
	c-1-0.8-1-1.6-0.5-2.8c0.4-0.9,0.2-2.1,0-3.1c-0.3-1.5-0.6-3-0.9-4.6v-22.7c0.3,0,0.5,0,0.8,0.1c-0.2-0.4-0.2-0.9-0.4-0.9
	c-0.1,0-0.3,0-0.4,0v-6.7c0.1,0,0.1,0,0.2,0c0.2,0,0.3-0.7,0.4-1.2c0.8,0.1,1.6,0.1,2.3,0.2c0-1.2-0.1-2.4-0.1-3.6
	c0-0.8-0.3-5.5-0.3-6.3c-0.1-6.6,0.7-10.4,0.6-17c0,0,0,0,0,0c-0.1-4.6-0.1-9.3-0.3-13.9c-0.2-4.6-0.5-9.4-0.6-14.1l-2.4-1.6V0H0
	v280H330.6z"/>
</svg>
