<?xml version="1.0" encoding="utf-8"?>
<!-- Generator: Adobe Illustrator 16.0.0, SVG Export Plug-In . SVG Version: 6.00 Build 0)  -->
<!DOCTYPE svg PUBLIC "-//W3C//DTD SVG 1.1//EN" "http://www.w3.org/Graphics/SVG/1.1/DTD/svg11.dtd">
<svg version="1.1" id="Layer_1" xmlns="http://www.w3.org/2000/svg" xmlns:xlink="http://www.w3.org/1999/xlink" x="0px" y="0px"
	 width="79.99px" height="69px" viewBox="0 0 79.99 69" enable-background="new 0 0 79.99 69" xml:space="preserve">
<g>
	<defs>
		<rect id="SVGID_1_" x="18.204" y="12.72" width="43.586" height="43.585"/>
	</defs>
	<clipPath id="SVGID_2_">
		<use xlink:href="#SVGID_1_"  overflow="visible"/>
	</clipPath>
	<path clip-path="url(#SVGID_2_)" fill="#5e292a" d="M61.79,34.513c0-12.034-9.757-21.793-21.793-21.793
		c-12.035,0-21.792,9.759-21.792,21.793c0,12.036,9.757,21.792,21.792,21.792C52.033,56.305,61.79,46.549,61.79,34.513"/>
	<path clip-path="url(#SVGID_2_)" fill="#FFFFFF" d="M22.724,39.703h1.434l15.667-19.512L55.95,39.474h1.319l-1.893,3.615h-1.265
		l1.207-2.467l-3.616-4.362v6.829h-6.542c-1.95-2.525-2.927-5.509-3.615-8.207c-0.688-2.696-1.49-7.574-1.49-7.574v15.781H28.348
		v-6.771l-3.673,4.418l1.32,2.411h-1.491L22.724,39.703z"/>
</g>
</svg>
