<?xml version="1.0" encoding="utf-8"?>
<!-- Generator: Adobe Illustrator 16.0.0, SVG Export Plug-In . SVG Version: 6.00 Build 0)  -->
<!DOCTYPE svg PUBLIC "-//W3C//DTD SVG 1.1//EN" "http://www.w3.org/Graphics/SVG/1.1/DTD/svg11.dtd">
<svg version="1.1" id="Layer_1" xmlns="http://www.w3.org/2000/svg" xmlns:xlink="http://www.w3.org/1999/xlink" x="0px" y="0px"
	 width="79.99px" height="69px" viewBox="-257.505 455 79.99 69" enable-background="new -257.505 455 79.99 69"
	 xml:space="preserve">
<g>
	<path fill="#5e292a" d="M-200.597,511.197c2.67,0,4.835-2.166,4.835-4.837v-33.856c0-2.672-2.165-4.837-4.835-4.837h-33.858
		c-2.671,0-4.836,2.165-4.836,4.837v33.856c0,2.671,2.166,4.837,4.836,4.837H-200.597z"/>
	<g>
		<path fill="#FFFFFF" d="M-208.977,492.752c-0.45,2.114-0.679,3.247-0.679,4.381c0,1.131-0.074,3.396,0.074,4.755
			c0.154,1.357,0.604,2.564,0.908,3.018c0.303,0.454,0.748,0.688,0.525,0.906c-0.188,0.189-0.377,0.379-0.377,0.379h-4.227
			c-0.603-0.981-0.452-0.907-0.528-1.512c-0.074-0.603-0.15-1.283-0.452-1.659c-0.301-0.377-0.377-0.605-0.301-0.981
			c0.076-0.379,0.15-0.225,0.225-0.981c0.076-0.755-0.074-2.114-0.148-3.472c-0.076-1.361-0.152-2.869-0.454-3.323
			c-0.303-0.452-1.284-0.679-2.114-0.755c-0.831-0.074-3.32-0.905-4.075-1.508c-0.755-0.604-1.51-1.283-2.567-1.436
			c-1.056-0.15-1.584-0.226-1.962,0.303c-0.378,0.528-0.982,2.112-1.208,3.471c-0.225,1.358-0.68,2.342-1.058,3.02
			c-0.376,0.682-0.754,2.491-0.906,3.096c-0.15,0.604-0.672,0.651-0.302,1.133c0.756,0.981,0.681,1.586,0.982,2.265
			c0.302,0.681,0.452,1.132,0.68,1.207c0.226,0.076,0.54,0.249,0.68,0.528c0.15,0.303,0.075,0.303,0.075,0.303h-1.963
			c-0.228-0.604-0.075-0.528-0.454-1.209c-0.376-0.677-0.376-0.755-0.982-1.508c-0.603-0.757-1.207-0.982-1.282-1.661
			c-0.075-0.68,0-1.058,0.151-1.586c0.152-0.528,0.227-0.227,0.227-0.981s0-0.755,0-0.755l-0.453-0.074
			c-0.378,1.282-0.716,1.923-1.284,2.489c-0.452,0.454-0.604,0.604-0.604,0.604c0.152,0.981,0.302,2.188,0.302,2.643
			c0,0.453-0.075,0.603,0.227,0.829c0.302,0.227,0.755,0.454,0.907,0.681c0.15,0.226,0.227,0.681,0.227,0.681h-2.416
			c-0.227-1.361-0.302-2.19-0.68-3.397c-0.378-1.209-0.708-1.001-0.528-1.66c0.226-0.832,0.301-1.512,0.83-2.267
			c0.528-0.754,1.284-2.111,1.284-4.228c0-1.887-0.756-4.527-1.132-5.435c-0.377-0.904-0.53-1.207-0.302-2.264
			c0.227-1.057,0.376-1.662,0.831-2.19c0.451-0.526,0.604-0.072,0.377-0.981c-0.227-0.904-0.604-1.057-0.981-1.962
			c-0.377-0.905-0.679-2.265-0.679-3.17s0-1.283,0.075-1.51c0.075-0.226,0.227-0.377,0.227-0.377
			c0.302-0.151,0.352-0.72,0.604-0.151c0.301,0.681,0,1.282,0.076,2.265c0.075,0.979,0.981,2.867,1.282,3.246
			c0.302,0.378,0.68,0.829,1.057,0.904c0.377,0.076,0.982-0.075,1.359-0.149c0.376-0.076,1.282-0.227,2.49-0.152
			c1.208,0.076,3.397,0.604,4.001,0.681c0.604,0.074,1.057,0.074,1.812,0c0.755-0.076,0.755-0.076,1.963-0.379
			c1.635-0.287,3.515,0.243,4.093,0.146c0.576-0.096,2.068-0.386,2.65-1.879l5.635,2.699c0.48,3.515,0.335,6.213-0.481,7.465
			C-208.542,492.546-208.882,492.285-208.977,492.752z"/>
		<path fill="#FFFFFF" d="M-200.446,479.692c0,0-2.037-1.131-2.566-1.432c-0.528-0.303-0.227-0.454-0.302-0.832
			c-0.076-0.376-0.227-0.602-0.831-1.131c-0.603-0.529-0.603-0.453-1.586-0.981l0.076-2.113l-1.207,0.755l-0.076-1.283
			c0,0-2.038,2.189-3.02,3.321c-0.98,1.133-1.262,2.49-2.242,4.074l5.153,2.506c0,0,0.034-0.617,0.485-0.92
			c0.453-0.302,0.984-0.227,1.512-0.302c0.528-0.076,1.055,0.302,1.659,0.679c0.606,0.378,0.755,0.378,1.36,0.528
			c0.604,0.152,0.527-0.301,0.527-0.301s0.377-0.378,0.831-0.604c0.452-0.227,0.452-0.829,0.452-1.133
			C-200.22,480.223-200.146,480.07-200.446,479.692z M-204.802,477.98c-0.45-0.146-0.76-0.436-0.691-0.646
			c0.071-0.21,0.489-0.263,0.938-0.118c0.449,0.146,0.757,0.435,0.689,0.646C-203.935,478.072-204.354,478.124-204.802,477.98z"/>
	</g>
</g>
</svg>
