<?xml version="1.0" encoding="utf-8"?>
<!-- Generator: Adobe Illustrator 16.0.0, SVG Export Plug-In . SVG Version: 6.00 Build 0)  -->
<!DOCTYPE svg PUBLIC "-//W3C//DTD SVG 1.1//EN" "http://www.w3.org/Graphics/SVG/1.1/DTD/svg11.dtd">
<svg version="1.1" id="Layer_1" xmlns="http://www.w3.org/2000/svg" xmlns:xlink="http://www.w3.org/1999/xlink" x="0px" y="0px"
	 width="134.568px" height="50px" viewBox="0 -7.086 134.568 50" enable-background="new 0 -7.086 134.568 50" xml:space="preserve"
	>
<g id="Layer_1_1_" display="none">
	<polygon display="inline" fill="#FFFFFF" points="71.759,1.175 75.453,1.175 81.167,12.977 81.209,12.977 81.209,1.175 
		84.089,1.175 84.089,16.956 80.415,16.956 74.68,5.154 74.637,5.154 74.637,16.956 71.759,16.956 	"/>
	<g display="inline">
		<g>
			<g>
				<g>
					<g>
						<g>
							<defs>
								<rect id="SVGID_1_" width="275" height="44.988"/>
							</defs>
							<clipPath id="SVGID_2_">
								<use xlink:href="#SVGID_1_"  overflow="visible"/>
							</clipPath>
							<path clip-path="url(#SVGID_2_)" fill="#FFFFFF" d="M90.585,15.01c0.881,0,1.567-0.405,2.019-1.037
								c0.474-0.657,0.603-1.493,0.603-2.396H91.96c-1.289,0-3.201,0.227-3.201,2.012C88.759,14.581,89.555,15.01,90.585,15.01
								 M87.213,5.923c1.117-0.543,2.62-0.882,3.846-0.882c3.371,0,4.768,1.473,4.768,4.905v1.492c0,1.175,0.021,2.059,0.043,2.917
								c0.021,0.881,0.064,1.692,0.129,2.6h-2.534c-0.108-0.607-0.108-1.379-0.129-1.74h-0.043
								c-0.666,1.288-2.104,2.014-3.416,2.014c-1.954,0-3.866-1.243-3.866-3.458c0-1.741,0.795-2.76,1.891-3.324
								c1.096-0.564,2.513-0.678,3.717-0.678h1.589c0-1.876-0.795-2.512-2.492-2.512c-1.224,0-2.448,0.497-3.415,1.269L87.213,5.923
								z"/>
						</g>
					</g>
				</g>
			</g>
		</g>
		<g>
			<g>
				<g>
					<g>
						<g>
							<defs>
								<rect id="SVGID_3_" width="275" height="44.988"/>
							</defs>
							<clipPath id="SVGID_4_">
								<use xlink:href="#SVGID_3_"  overflow="visible"/>
							</clipPath>
							<path clip-path="url(#SVGID_4_)" fill="#FFFFFF" d="M98.965,7.528h-2.127V5.312h2.127V2.984l2.879-0.972v3.3h2.557v2.216
								h-2.557v5.427c0,0.994,0.258,1.922,1.354,1.922c0.515,0,1.01-0.111,1.31-0.314l0.086,2.396
								c-0.602,0.184-1.267,0.271-2.127,0.271c-2.255,0-3.501-1.472-3.501-3.774V7.528z"/>
						</g>
					</g>
				</g>
			</g>
		</g>
		<g>
			<g>
				<g>
					<g>
						<g>
							<defs>
								<rect id="SVGID_5_" width="275" height="44.988"/>
							</defs>
							<clipPath id="SVGID_6_">
								<use xlink:href="#SVGID_5_"  overflow="visible"/>
							</clipPath>
							<path clip-path="url(#SVGID_6_)" fill="#FFFFFF" d="M115.873,16.955h-2.729v-1.583h-0.043
								c-0.881,1.131-2.127,1.854-3.629,1.854c-2.621,0-3.761-1.942-3.761-4.565V5.312h2.879v6.218c0,1.425,0.021,3.347,1.868,3.347
								c2.084,0,2.535-2.374,2.535-3.863v-5.7h2.879V16.955z"/>
						</g>
					</g>
				</g>
			</g>
		</g>
		<g>
			<g>
				<g>
					<g>
						<g>
							<defs>
								<rect id="SVGID_7_" width="275" height="44.988"/>
							</defs>
							<clipPath id="SVGID_8_">
								<use xlink:href="#SVGID_7_"  overflow="visible"/>
							</clipPath>
							<path clip-path="url(#SVGID_8_)" fill="#FFFFFF" d="M118.3,5.312h2.556v2.646h0.043c0.129-1.085,1.311-2.916,3.029-2.916
								c0.279,0,0.58,0,0.881,0.09v3.056c-0.259-0.159-0.773-0.249-1.289-0.249c-2.342,0-2.342,3.075-2.342,4.747v4.271H118.3V5.312
								z"/>
						</g>
					</g>
				</g>
			</g>
		</g>
		<g>
			<g>
				<g>
					<g>
						<g>
							<defs>
								<rect id="SVGID_9_" width="275" height="44.988"/>
							</defs>
							<clipPath id="SVGID_10_">
								<use xlink:href="#SVGID_9_"  overflow="visible"/>
							</clipPath>
							<path clip-path="url(#SVGID_10_)" fill="#FFFFFF" d="M129.592,15.01c0.881,0,1.568-0.405,2.02-1.037
								c0.473-0.657,0.602-1.493,0.602-2.396h-1.246c-1.289,0-3.201,0.227-3.201,2.012C127.766,14.581,128.561,15.01,129.592,15.01
								 M126.221,5.923c1.116-0.543,2.619-0.882,3.844-0.882c3.373,0,4.769,1.473,4.769,4.905v1.492
								c0,1.175,0.022,2.059,0.043,2.917c0.022,0.881,0.065,1.692,0.129,2.6h-2.534c-0.107-0.607-0.107-1.379-0.129-1.74h-0.043
								c-0.666,1.288-2.105,2.014-3.416,2.014c-1.953,0-3.865-1.243-3.865-3.458c0-1.741,0.795-2.76,1.89-3.324
								c1.095-0.564,2.513-0.678,3.717-0.678h1.589c0-1.876-0.795-2.512-2.492-2.512c-1.224,0-2.449,0.497-3.416,1.269
								L126.221,5.923z"/>
						</g>
					</g>
				</g>
			</g>
		</g>
	</g>
	<rect x="137.164" display="inline" fill="#FFFFFF" width="2.878" height="16.955"/>
	<g display="inline">
		<g>
			<g>
				<g>
					<g>
						<g>
							<defs>
								<rect id="SVGID_11_" width="275" height="44.988"/>
							</defs>
							<clipPath id="SVGID_12_">
								<use xlink:href="#SVGID_11_"  overflow="visible"/>
							</clipPath>
							<path clip-path="url(#SVGID_12_)" fill="#FFFFFF" d="M151.406,7.913h0.986c1.479,0,3.18-0.227,3.18-2.19
								c0-1.899-1.676-2.06-3.18-2.06h-0.986V7.913z M148.396,1.175h3.244c3.223,0,7.063-0.11,7.063,4.272
								c0,1.854-1.187,3.392-3.097,3.662v0.046c0.814,0.068,1.289,0.928,1.593,1.628l2.401,6.172h-3.352l-1.805-4.93
								c-0.43-1.175-0.814-1.627-2.084-1.627H151.4v6.557h-3.01V1.175H148.396z"/>
						</g>
					</g>
				</g>
			</g>
		</g>
		<g>
			<g>
				<g>
					<g>
						<g>
							<defs>
								<rect id="SVGID_13_" width="275" height="44.988"/>
							</defs>
							<clipPath id="SVGID_14_">
								<use xlink:href="#SVGID_13_"  overflow="visible"/>
							</clipPath>
							<path clip-path="url(#SVGID_14_)" fill="#FFFFFF" d="M167.84,9.993c-0.086-1.471-0.729-2.735-2.342-2.735
								c-1.611,0-2.428,1.178-2.557,2.735H167.84z M169.771,16.299c-1.051,0.611-2.254,0.93-3.801,0.93
								c-3.652,0-5.777-2.215-5.777-6.036c0-3.369,1.695-6.148,5.134-6.148c4.103,0,5.263,2.961,5.263,7.03h-7.648
								c0.134,1.876,1.375,2.939,3.158,2.939c1.396,0,2.604-0.545,3.674-1.179v2.464H169.771z"/>
						</g>
					</g>
				</g>
			</g>
		</g>
		<g>
			<g>
				<g>
					<g>
						<g>
							<defs>
								<rect id="SVGID_15_" width="275" height="44.988"/>
							</defs>
							<clipPath id="SVGID_16_">
								<use xlink:href="#SVGID_15_"  overflow="visible"/>
							</clipPath>
							<path clip-path="url(#SVGID_16_)" fill="#FFFFFF" d="M178.995,7.754c-0.882-0.313-1.524-0.497-2.577-0.497
								c-0.773,0-1.697,0.293-1.697,1.288c0,1.854,5.004,0.682,5.004,4.887c0,2.713-2.297,3.797-4.64,3.797
								c-1.095,0-2.212-0.203-3.265-0.496l0.172-2.487c0.9,0.477,1.848,0.771,2.836,0.771c0.729,0,1.89-0.294,1.89-1.427
								c0-2.281-5.005-0.725-5.005-4.928c0-2.511,2.084-3.618,4.34-3.618c1.354,0,2.233,0.229,3.135,0.433L178.995,7.754z"/>
						</g>
					</g>
				</g>
			</g>
		</g>
		<g>
			<g>
				<g>
					<g>
						<g>
							<defs>
								<rect id="SVGID_17_" width="275" height="44.988"/>
							</defs>
							<clipPath id="SVGID_18_">
								<use xlink:href="#SVGID_17_"  overflow="visible"/>
							</clipPath>
							<path clip-path="url(#SVGID_18_)" fill="#FFFFFF" d="M186.498,14.875c2.213,0,2.793-2.08,2.793-4.021
								c0-1.786-0.902-3.459-2.793-3.459c-1.869,0-2.771,1.718-2.771,3.459C183.727,12.773,184.307,14.875,186.498,14.875
								 M186.498,5.042c3.286,0,5.8,2.328,5.8,6.172c0,3.349-2.127,6.016-5.8,6.016c-3.652,0-5.777-2.667-5.777-6.016
								C180.721,7.37,183.232,5.042,186.498,5.042"/>
						</g>
					</g>
				</g>
			</g>
		</g>
		<g>
			<g>
				<g>
					<g>
						<g>
							<defs>
								<rect id="SVGID_19_" width="275" height="44.988"/>
							</defs>
							<clipPath id="SVGID_20_">
								<use xlink:href="#SVGID_19_"  overflow="visible"/>
							</clipPath>
							<path clip-path="url(#SVGID_20_)" fill="#FFFFFF" d="M204.163,16.955h-2.728v-1.583h-0.043
								c-0.881,1.131-2.127,1.854-3.631,1.854c-2.621,0-3.765-1.942-3.765-4.565V5.312h2.879v6.218c0,1.425,0.021,3.347,1.869,3.347
								c2.083,0,2.53-2.374,2.53-3.863v-5.7h2.883L204.163,16.955L204.163,16.955z"/>
						</g>
					</g>
				</g>
			</g>
		</g>
		<g>
			<g>
				<g>
					<g>
						<g>
							<defs>
								<rect id="SVGID_21_" width="275" height="44.988"/>
							</defs>
							<clipPath id="SVGID_22_">
								<use xlink:href="#SVGID_21_"  overflow="visible"/>
							</clipPath>
							<path clip-path="url(#SVGID_22_)" fill="#FFFFFF" d="M206.591,5.312h2.556v2.646h0.043c0.129-1.085,1.312-2.916,3.029-2.916
								c0.278,0,0.58,0,0.881,0.09v3.056c-0.259-0.159-0.771-0.249-1.289-0.249c-2.342,0-2.342,3.075-2.342,4.747v4.271h-2.878
								V5.312z"/>
						</g>
					</g>
				</g>
			</g>
		</g>
		<g>
			<g>
				<g>
					<g>
						<g>
							<defs>
								<rect id="SVGID_23_" width="275" height="44.988"/>
							</defs>
							<clipPath id="SVGID_24_">
								<use xlink:href="#SVGID_23_"  overflow="visible"/>
							</clipPath>
							<path clip-path="url(#SVGID_24_)" fill="#FFFFFF" d="M221.582,7.822c-0.518-0.248-1.074-0.429-1.955-0.429
								c-1.783,0-2.921,1.49-2.921,3.686c0,2.146,0.966,3.798,2.985,3.798c0.812,0,1.719-0.314,2.211-0.543l0.131,2.51
								c-0.84,0.271-1.697,0.387-2.881,0.387c-3.629,0-5.455-2.603-5.455-6.148c0-3.369,1.892-6.036,5.35-6.036
								c1.16,0,1.998,0.138,2.793,0.387L221.582,7.822z"/>
						</g>
					</g>
				</g>
			</g>
		</g>
		<g>
			<g>
				<g>
					<g>
						<g>
							<defs>
								<rect id="SVGID_25_" width="275" height="44.988"/>
							</defs>
							<clipPath id="SVGID_26_">
								<use xlink:href="#SVGID_25_"  overflow="visible"/>
							</clipPath>
							<path clip-path="url(#SVGID_26_)" fill="#FFFFFF" d="M230.289,9.993c-0.086-1.471-0.729-2.735-2.342-2.735
								c-1.611,0-2.428,1.178-2.557,2.735H230.289z M232.223,16.299c-1.053,0.611-2.254,0.93-3.803,0.93
								c-3.65,0-5.777-2.215-5.777-6.036c0-3.369,1.696-6.148,5.135-6.148c4.104,0,5.267,2.961,5.267,7.03h-7.646
								c0.129,1.876,1.375,2.939,3.156,2.939c1.396,0,2.602-0.545,3.676-1.179v2.464H232.223z"/>
						</g>
					</g>
				</g>
			</g>
		</g>
		<g>
			<g>
				<g>
					<g>
						<g>
							<defs>
								<rect id="SVGID_27_" width="275" height="44.988"/>
							</defs>
							<clipPath id="SVGID_28_">
								<use xlink:href="#SVGID_27_"  overflow="visible"/>
							</clipPath>
							<path clip-path="url(#SVGID_28_)" fill="#FFFFFF" d="M241.443,7.754c-0.881-0.313-1.524-0.497-2.576-0.497
								c-0.774,0-1.697,0.293-1.697,1.288c0,1.854,5.004,0.682,5.004,4.887c0,2.713-2.298,3.797-4.64,3.797
								c-1.097,0-2.212-0.203-3.265-0.496l0.17-2.487c0.898,0.477,1.85,0.771,2.836,0.771c0.729,0,1.892-0.294,1.892-1.427
								c0-2.281-5.005-0.725-5.005-4.928c0-2.511,2.084-3.618,4.339-3.618c1.353,0,2.233,0.229,3.136,0.433L241.443,7.754z"/>
						</g>
					</g>
				</g>
			</g>
		</g>
		<g>
			<g>
				<g>
					<g>
						<g>
							<defs>
								<rect id="SVGID_29_" width="275" height="44.988"/>
							</defs>
							<clipPath id="SVGID_30_">
								<use xlink:href="#SVGID_29_"  overflow="visible"/>
							</clipPath>
							<path clip-path="url(#SVGID_30_)" fill="#C6DAF0" d="M71.553,38.366c0.889,0.563,1.932,0.891,3.344,0.891
								c1.867,0,3.41-0.955,3.41-3.104c0-2.977-6.951-3.345-6.951-7.316c0-2.435,2.129-3.953,4.799-3.953
								c0.74,0,1.935,0.106,2.977,0.5l-0.238,1.369c-0.674-0.371-1.738-0.562-2.759-0.562c-1.563,0-3.278,0.648-3.278,2.604
								c0,3.041,6.949,3.062,6.949,7.494c0,3.062-2.629,4.274-4.974,4.274c-1.478,0-2.628-0.306-3.431-0.647L71.553,38.366z"/>
						</g>
					</g>
				</g>
			</g>
		</g>
	</g>
	<path display="inline" fill="#C6DAF0" d="M87.322,26.573l-3.301,8.36h6.58L87.322,26.573z M86.583,25.141h1.694l6.016,15.154
		h-1.564l-1.627-4.062h-7.646l-1.629,4.062h-1.455L86.583,25.141z"/>
	<polygon display="inline" fill="#C6DAF0" points="101.396,25.141 103.721,25.141 109.258,38.475 114.818,25.141 116.968,25.141 
		116.968,40.299 115.469,40.299 115.469,26.639 115.426,26.639 109.91,40.299 108.629,40.299 102.938,26.639 102.895,26.639 
		102.895,40.299 101.396,40.299 	"/>
	<g display="inline">
		<g>
			<g>
				<g>
					<g>
						<g>
							<defs>
								<rect id="SVGID_31_" width="275" height="44.988"/>
							</defs>
							<clipPath id="SVGID_32_">
								<use xlink:href="#SVGID_31_"  overflow="visible"/>
							</clipPath>
							<path clip-path="url(#SVGID_32_)" fill="#C6DAF0" d="M128.348,37.693c0,0.847,0,1.716,0.086,2.604h-1.324V38.32h-0.043
								c-0.457,1-1.281,2.237-3.584,2.237c-2.736,0-3.778-1.824-3.778-4.258v-7.078h1.368v6.729c0,2.086,0.738,3.432,2.628,3.432
								c2.497,0,3.278-2.189,3.278-4.037v-6.122h1.369V37.693z"/>
						</g>
					</g>
				</g>
			</g>
		</g>
		<g>
			<g>
				<g>
					<g>
						<g>
							<defs>
								<rect id="SVGID_33_" width="275" height="44.988"/>
							</defs>
							<clipPath id="SVGID_34_">
								<use xlink:href="#SVGID_33_"  overflow="visible"/>
							</clipPath>
							<path clip-path="url(#SVGID_34_)" fill="#C6DAF0" d="M130.77,31.698c0-1.216,0-1.672-0.088-2.476h1.368v2.129h0.043
								c0.5-1.238,1.435-2.392,2.847-2.392c0.324,0,0.715,0.062,0.955,0.129v1.438c-0.283-0.087-0.652-0.131-1-0.131
								c-2.17,0-2.758,2.434-2.758,4.432v5.473h-1.367V31.698z"/>
						</g>
					</g>
				</g>
			</g>
		</g>
		<g>
			<g>
				<g>
					<g>
						<g>
							<defs>
								<rect id="SVGID_35_" width="275" height="44.988"/>
							</defs>
							<clipPath id="SVGID_36_">
								<use xlink:href="#SVGID_35_"  overflow="visible"/>
							</clipPath>
							<path clip-path="url(#SVGID_36_)" fill="#C6DAF0" d="M137.146,31.698c0-1.216,0-1.672-0.088-2.476h1.368v2.129h0.044
								c0.5-1.238,1.434-2.392,2.846-2.392c0.324,0,0.718,0.062,0.955,0.129v1.438c-0.283-0.087-0.648-0.131-1-0.131
								c-2.17,0-2.758,2.434-2.758,4.432v5.473h-1.367V31.698z"/>
						</g>
					</g>
				</g>
			</g>
		</g>
		<g>
			<g>
				<g>
					<g>
						<g>
							<defs>
								<rect id="SVGID_37_" width="275" height="44.988"/>
							</defs>
							<clipPath id="SVGID_38_">
								<use xlink:href="#SVGID_37_"  overflow="visible"/>
							</clipPath>
							<path clip-path="url(#SVGID_38_)" fill="#C6DAF0" d="M149.475,34.719h-0.391c-2.367,0-5.191,0.236-5.191,2.674
								c0,1.451,1.043,1.997,2.303,1.997c3.219,0,3.279-2.804,3.279-3.996V34.719z M149.604,38.519h-0.043
								c-0.604,1.321-2.146,2.041-3.518,2.041c-3.15,0-3.648-2.128-3.648-3.127c0-3.716,3.951-3.892,6.818-3.892h0.262V32.98
								c0-1.894-0.674-2.847-2.521-2.847c-1.151,0-2.236,0.263-3.257,0.91v-1.321c0.847-0.412,2.279-0.763,3.257-0.763
								c2.735,0,3.888,1.235,3.888,4.125v4.891c0,0.891,0,1.562,0.108,2.32h-1.347V38.519L149.604,38.519z"/>
						</g>
					</g>
				</g>
			</g>
		</g>
		<g>
			<g>
				<g>
					<g>
						<g>
							<defs>
								<rect id="SVGID_39_" width="275" height="44.988"/>
							</defs>
							<clipPath id="SVGID_40_">
								<use xlink:href="#SVGID_39_"  overflow="visible"/>
							</clipPath>
							<path clip-path="url(#SVGID_40_)" fill="#C6DAF0" d="M156.311,41.948c-0.521,1.521-1.304,3.04-2.846,3.04
								c-0.5,0-1.021-0.063-1.477-0.173l0.13-1.174c0.261,0.087,0.521,0.175,1.021,0.175c1.174,0,1.563-0.979,1.998-2.411
								l0.281-0.979l-3.93-11.204h1.498l3.104,9.252l-0.021-0.021h0.043l3.193-9.229h1.437L156.311,41.948z"/>
						</g>
					</g>
				</g>
			</g>
		</g>
	</g>
	<rect x="161.039" y="33.698" display="inline" fill="#C6DAF0" width="5.451" height="1.497"/>
	<g display="inline">
		<g>
			<g>
				<g>
					<g>
						<g>
							<defs>
								<rect id="SVGID_41_" width="275" height="44.988"/>
							</defs>
							<clipPath id="SVGID_42_">
								<use xlink:href="#SVGID_41_"  overflow="visible"/>
							</clipPath>
							<path clip-path="url(#SVGID_42_)" fill="#C6DAF0" d="M170.402,38.995h1.238c4.301,0,7.104-1.736,7.104-6.385
								c0-4.626-2.76-6.168-6.146-6.168h-2.193v12.553H170.402z M168.906,25.141h3.756c5.43,0,7.58,3.127,7.58,7.557
								c0,5.495-3.67,7.604-8.688,7.604h-2.648V25.141z"/>
						</g>
					</g>
				</g>
			</g>
		</g>
		<g>
			<g>
				<g>
					<g>
						<g>
							<defs>
								<rect id="SVGID_43_" width="275" height="44.988"/>
							</defs>
							<clipPath id="SVGID_44_">
								<use xlink:href="#SVGID_43_"  overflow="visible"/>
							</clipPath>
							<path clip-path="url(#SVGID_44_)" fill="#C6DAF0" d="M188.425,34.719h-0.392c-2.366,0-5.189,0.236-5.189,2.674
								c0,1.451,1.043,1.997,2.301,1.997c3.215,0,3.28-2.804,3.28-3.996V34.719z M188.555,38.519h-0.043
								c-0.607,1.321-2.15,2.041-3.519,2.041c-3.149,0-3.647-2.128-3.647-3.127c0-3.716,3.951-3.892,6.818-3.892h0.261V32.98
								c0-1.894-0.673-2.847-2.521-2.847c-1.15,0-2.235,0.263-3.258,0.91v-1.321c0.848-0.412,2.278-0.763,3.258-0.763
								c2.736,0,3.889,1.235,3.889,4.125v4.891c0,0.891,0,1.562,0.107,2.32h-1.346V38.519L188.555,38.519z"/>
						</g>
					</g>
				</g>
			</g>
		</g>
		<g>
			<g>
				<g>
					<g>
						<g>
							<defs>
								<rect id="SVGID_45_" width="275" height="44.988"/>
							</defs>
							<clipPath id="SVGID_46_">
								<use xlink:href="#SVGID_45_"  overflow="visible"/>
							</clipPath>
							<path clip-path="url(#SVGID_46_)" fill="#C6DAF0" d="M192.074,31.698c0-1.216,0-1.672-0.088-2.476h1.369v2.129h0.043
								c0.5-1.238,1.434-2.392,2.846-2.392c0.324,0,0.716,0.062,0.955,0.129v1.438c-0.282-0.087-0.652-0.131-0.999-0.131
								c-2.171,0-2.759,2.434-2.759,4.432v5.473h-1.367V31.698z"/>
						</g>
					</g>
				</g>
			</g>
		</g>
	</g>
	<rect x="198.406" y="24.012" display="inline" fill="#C6DAF0" width="1.369" height="16.283"/>
	<path display="inline" fill="#C6DAF0" d="M202.16,29.224h1.367v11.071h-1.367V29.224z M203.527,26.271h-1.367v-1.825h1.367V26.271z
		"/>
	<g display="inline">
		<g>
			<g>
				<g>
					<g>
						<g>
							<defs>
								<rect id="SVGID_47_" width="275" height="44.988"/>
							</defs>
							<clipPath id="SVGID_48_">
								<use xlink:href="#SVGID_47_"  overflow="visible"/>
							</clipPath>
							<path clip-path="url(#SVGID_48_)" fill="#C6DAF0" d="M205.922,31.829c0-0.848,0-1.717-0.087-2.604h1.325V31.2h0.043
								c0.456-0.998,1.281-2.236,3.584-2.236c2.736,0,3.777,1.824,3.777,4.261v7.075h-1.367V33.57c0-2.085-0.738-3.431-2.629-3.431
								c-2.496,0-3.278,2.189-3.278,4.037v6.123h-1.368V31.829L205.922,31.829z"/>
						</g>
					</g>
				</g>
			</g>
		</g>
		<g>
			<g>
				<g>
					<g>
						<g>
							<defs>
								<rect id="SVGID_49_" width="275" height="44.988"/>
							</defs>
							<clipPath id="SVGID_50_">
								<use xlink:href="#SVGID_49_"  overflow="visible"/>
							</clipPath>
							<path clip-path="url(#SVGID_50_)" fill="#C6DAF0" d="M221.057,39.125c2.479,0,3.364-2.347,3.364-4.361
								c0-2.674-0.78-4.625-3.278-4.625c-2.604,0-3.279,2.475-3.279,4.625C217.863,36.933,218.732,39.125,221.057,39.125
								 M225.79,39.387c0,3.084-1.39,5.604-5.19,5.604c-1.455,0-2.779-0.41-3.345-0.587l0.108-1.366
								c0.847,0.438,2.062,0.779,3.258,0.779c3.52,0,3.822-2.562,3.822-5.688H224.4c-0.738,1.604-1.955,2.172-3.366,2.172
								c-3.54,0-4.671-3.084-4.671-5.535c0-3.366,1.305-5.801,4.562-5.801c1.478,0,2.433,0.193,3.452,1.521h0.043v-1.26h1.369
								L225.79,39.387L225.79,39.387z"/>
						</g>
					</g>
				</g>
			</g>
		</g>
		<g>
			<g>
				<g>
					<g>
						<g>
							<defs>
								<rect id="SVGID_51_" width="275" height="44.988"/>
							</defs>
							<clipPath id="SVGID_52_">
								<use xlink:href="#SVGID_51_"  overflow="visible"/>
							</clipPath>
							<path clip-path="url(#SVGID_52_)" fill="#C6DAF0" d="M235.607,31.765h1.672c1.587,0,3.691-0.413,3.691-2.824
								c0-2.192-2.021-2.497-3.304-2.497h-2.062v5.321H235.607z M235.564,38.995h1.562c2.021,0,4.302-0.543,4.302-2.951
								c0-2.691-2.322-2.979-4.539-2.979h-1.324V38.995L235.564,38.995z M234.066,25.141h3.604c2.477,0,4.801,0.822,4.801,3.732
								c0,1.936-0.893,3.084-2.76,3.451v0.045c1.911,0.348,3.214,1.605,3.214,3.604c0,3.301-2.69,4.318-5.842,4.318h-3.021v-15.15
								H234.066z"/>
						</g>
					</g>
				</g>
			</g>
		</g>
		<g>
			<g>
				<g>
					<g>
						<g>
							<defs>
								<rect id="SVGID_53_" width="275" height="44.988"/>
							</defs>
							<clipPath id="SVGID_54_">
								<use xlink:href="#SVGID_53_"  overflow="visible"/>
							</clipPath>
							<path clip-path="url(#SVGID_54_)" fill="#C6DAF0" d="M251.439,34.719h-0.396c-2.362,0-5.188,0.236-5.188,2.674
								c0,1.451,1.041,1.997,2.304,1.997c3.214,0,3.278-2.804,3.278-3.996v-0.675H251.439z M251.57,38.519h-0.045
								c-0.606,1.321-2.148,2.041-3.521,2.041c-3.146,0-3.646-2.128-3.646-3.127c0-3.716,3.951-3.892,6.816-3.892h0.264V32.98
								c0-1.894-0.674-2.847-2.521-2.847c-1.149,0-2.233,0.263-3.257,0.91v-1.321c0.847-0.412,2.277-0.763,3.257-0.763
								c2.735,0,3.89,1.235,3.89,4.125v4.891c0,0.891,0,1.562,0.106,2.32h-1.349v-1.776H251.57z"/>
						</g>
					</g>
				</g>
			</g>
		</g>
		<g>
			<g>
				<g>
					<g>
						<g>
							<defs>
								<rect id="SVGID_55_" width="275" height="44.988"/>
							</defs>
							<clipPath id="SVGID_56_">
								<use xlink:href="#SVGID_55_"  overflow="visible"/>
							</clipPath>
							<path clip-path="url(#SVGID_56_)" fill="#C6DAF0" d="M254.297,38.691c0.824,0.413,1.823,0.692,2.889,0.692
								c1.306,0,2.453-0.717,2.453-1.977c0-2.629-5.32-2.218-5.32-5.432c0-2.191,1.781-3.021,3.605-3.021
								c0.586,0,1.76,0.131,2.735,0.5l-0.13,1.193c-0.717-0.324-1.694-0.521-2.454-0.521c-1.412,0-2.39,0.438-2.39,1.849
								c0,2.062,5.448,1.805,5.448,5.433c0,2.344-2.19,3.145-3.862,3.145c-1.064,0-2.129-0.129-3.105-0.52L254.297,38.691z"/>
						</g>
					</g>
				</g>
			</g>
		</g>
	</g>
	<path display="inline" fill="#C6DAF0" d="M262.596,29.224h1.368v11.071h-1.368V29.224z M263.964,26.271h-1.368v-1.825h1.368V26.271
		z"/>
	<g display="inline">
		<g>
			<g>
				<g>
					<g>
						<g>
							<defs>
								<rect id="SVGID_57_" width="275" height="44.988"/>
							</defs>
							<clipPath id="SVGID_58_">
								<use xlink:href="#SVGID_57_"  overflow="visible"/>
							</clipPath>
							<path clip-path="url(#SVGID_58_)" fill="#C6DAF0" d="M266.357,31.829c0-0.848,0-1.717-0.088-2.604h1.32V31.2h0.044
								c0.455-0.998,1.28-2.236,3.587-2.236c2.732,0,3.774,1.824,3.774,4.261v7.075h-1.368V33.57c0-2.085-0.732-3.431-2.628-3.431
								c-2.497,0-3.274,2.189-3.274,4.037v6.123h-1.367V31.829L266.357,31.829z"/>
						</g>
					</g>
				</g>
			</g>
		</g>
		<g>
			<g>
				<g>
					<g>
						<g>
							<defs>
								<rect id="SVGID_59_" width="275" height="44.988"/>
							</defs>
							<clipPath id="SVGID_60_">
								<use xlink:href="#SVGID_59_"  overflow="visible"/>
							</clipPath>
							<path clip-path="url(#SVGID_60_)" fill="#FFFFFF" d="M23.756,30.265c-3.676,0.55-6.554,2.142-9.767,0.573
								c-2.849-1.387-1.861-3.588-1.132-4.881c1.686,1.396,3.234,2.209,5.456,2.998C22.29,30.372,23.756,30.265,23.756,30.265
								 M41.079,20.568c-0.033-1.844,0.296-3.704,1.108-5.498c0.355-0.771,0.747-1.461,1.168-2.083
								c0.225,0.082,5.24,2.1,9.425,4.914c1.572,1.055,2.056,1.942,1.8,2.595c0.256,0.649-0.235,1.599-1.8,2.646
								c-4.185,2.815-9.213,4.825-9.436,4.928c-0.42-0.631-0.808-1.329-1.157-2.089C41.375,24.188,41.046,22.421,41.079,20.568
								 M0,20.432c0-3.658,0.849-6.394,1.084-7.205c1.082-3.805,6.71,6.3,10.494,4.062c1.29-0.763,5.551-5.712,17.663-5.937
								c0.62-0.021,1.209-0.021,1.774-0.021c-2.182,3.54-3.2,7.822-2.6,12.181c0.312,2.271,1.041,4.357,2.096,6.195
								c-0.411,0-0.836-0.015-1.27-0.021c-12.112-0.229-16.384-5.174-17.67-5.938c-3.78-2.229-9.411,7.858-10.489,4.066
								C0.846,27.008,0,24.084,0,20.432 M32.417,11.349c7.746,0.134,9.882,1.354,9.882,1.354c-0.749,1.095-1.28,2.341-1.678,3.729
								c-0.387,1.354-0.547,2.708-0.524,4.063c-0.023,1.354,0.133,2.771,0.518,4.124c0.384,1.381,0.927,2.635,1.681,3.719
								l-0.024,0.18c-0.699,1.295-1.273,3.057-2.231,3.229c-1.038,0.176-5.333-0.564-3.73-1.832
								c0.217-0.166,0.417-0.312,0.598-0.447c-1.365,0.135-3.047,0.228-5.093,0.252c-1.061-1.815-1.844-3.84-2.168-6.068
								C29.025,19.26,30.139,14.943,32.417,11.349 M23.589,10.975c0,0-1.456-0.111-5.438,1.299
								c-2.226,0.796-3.768,1.606-5.455,3.005c-0.736-1.29-1.721-3.491,1.134-4.889C17.037,8.828,19.915,10.427,23.589,10.975"/>
						</g>
					</g>
				</g>
			</g>
		</g>
	</g>
</g>
<polygon display="none" points="81.428,1.172 81.428,12.946 81.384,12.946 75.684,1.172 71.999,1.172 71.999,16.914 74.87,16.914 
	74.87,5.143 74.913,5.143 80.633,16.914 84.299,16.914 84.299,1.172 "/>
<g display="none">
	<g display="inline">
		<path d="M90.781,14.974c0.878,0,1.564-0.404,2.013-1.037c0.472-0.654,0.601-1.488,0.601-2.393H92.15
			c-1.284,0-3.192,0.229-3.192,2.009C88.958,14.547,89.751,14.974,90.781,14.974 M87.416,5.909c1.113-0.542,2.613-0.881,3.835-0.881
			c3.365,0,4.758,1.468,4.758,4.895v1.489c0,1.172,0.021,2.052,0.042,2.908c0.021,0.879,0.065,1.692,0.129,2.594h-2.527
			c-0.108-0.606-0.108-1.375-0.129-1.733H93.48c-0.666,1.282-2.1,2.007-3.407,2.007c-1.95,0-3.857-1.24-3.857-3.45
			c0-1.736,0.794-2.753,1.886-3.314c1.092-0.562,2.506-0.679,3.707-0.679h1.586c0-1.87-0.793-2.501-2.485-2.501
			c-1.222,0-2.443,0.495-3.407,1.262L87.416,5.909z"/>
	</g>
	<g display="inline">
		<path d="M99.141,7.51H97.02V5.302h2.121V2.978l2.871-0.973v3.296h2.549V7.51h-2.549v5.411c0,0.991,0.256,1.916,1.35,1.916
			c0.514,0,1.007-0.11,1.307-0.314l0.086,2.393c-0.6,0.182-1.264,0.271-2.121,0.271c-2.25,0-3.492-1.469-3.492-3.769V7.51z"/>
	</g>
	<g display="inline">
		<path d="M116.006,16.915h-2.721v-1.579h-0.043c-0.879,1.127-2.122,1.85-3.621,1.85c-2.615,0-3.75-1.938-3.75-4.557V5.302h2.871
			v6.2c0,1.421,0.021,3.337,1.863,3.337c2.078,0,2.529-2.365,2.529-3.854V5.301h2.872L116.006,16.915L116.006,16.915z"/>
	</g>
	<g display="inline">
		<path d="M118.428,5.302h2.549V7.94h0.043c0.129-1.083,1.308-2.907,3.021-2.907c0.279,0,0.579,0,0.88,0.09v3.045
			c-0.258-0.159-0.771-0.249-1.284-0.249c-2.337,0-2.337,3.066-2.337,4.735v4.263h-2.87L118.428,5.302L118.428,5.302z"/>
	</g>
	<g display="inline">
		<path d="M129.691,14.974c0.879,0,1.562-0.404,2.014-1.037c0.471-0.654,0.6-1.488,0.6-2.393h-1.242
			c-1.285,0-3.192,0.229-3.192,2.009C127.869,14.547,128.662,14.974,129.691,14.974 M126.327,5.909
			c1.114-0.542,2.614-0.881,3.835-0.881c3.363,0,4.758,1.468,4.758,4.895v1.489c0,1.172,0.021,2.052,0.043,2.908
			c0.021,0.879,0.064,1.692,0.129,2.594h-2.529c-0.105-0.606-0.105-1.375-0.129-1.733h-0.043c-0.664,1.282-2.1,2.007-3.406,2.007
			c-1.949,0-3.856-1.24-3.856-3.45c0-1.736,0.793-2.753,1.886-3.314c1.094-0.562,2.508-0.679,3.707-0.679h1.586
			c0-1.87-0.793-2.501-2.484-2.501c-1.223,0-2.443,0.495-3.408,1.262L126.327,5.909z"/>
	</g>
	<g display="inline">
		<rect x="137.245" width="2.871" height="16.915"/>
	</g>
	<g display="inline">
		<path d="M151.451,7.892h0.986c1.479,0,3.17-0.227,3.17-2.188c0-1.896-1.672-2.055-3.17-2.055h-0.986V7.892z M148.451,1.173h3.234
			c3.217,0,7.051-0.108,7.051,4.265c0,1.851-1.178,3.385-3.084,3.651v0.044c0.812,0.068,1.283,0.928,1.584,1.625l2.4,6.157h-3.347
			l-1.8-4.916c-0.434-1.173-0.813-1.625-2.078-1.625h-0.965v6.541h-3L148.451,1.173L148.451,1.173z"/>
	</g>
	<g display="inline">
		<path d="M167.846,9.969c-0.088-1.47-0.729-2.729-2.336-2.729c-1.604,0-2.422,1.173-2.551,2.729H167.846z M169.773,16.26
			c-1.049,0.606-2.25,0.926-3.793,0.926c-3.646,0-5.765-2.209-5.765-6.021c0-3.359,1.688-6.137,5.123-6.137
			c4.093,0,5.25,2.954,5.25,7.014h-7.634c0.13,1.874,1.373,2.937,3.15,2.937c1.393,0,2.592-0.542,3.66-1.176v2.46h0.004V16.26
			H169.773z"/>
	</g>
	<g display="inline">
		<path d="M178.973,7.736c-0.879-0.314-1.521-0.495-2.57-0.495c-0.771,0-1.69,0.293-1.69,1.284c0,1.85,4.992,0.678,4.992,4.871
			c0,2.706-2.292,3.789-4.629,3.789c-1.095,0-2.206-0.203-3.257-0.496l0.172-2.48c0.898,0.476,1.843,0.769,2.828,0.769
			c0.729,0,1.886-0.293,1.886-1.421c0-2.276-4.992-0.723-4.992-4.916c0-2.505,2.08-3.608,4.328-3.608
			c1.353,0,2.229,0.228,3.129,0.43L178.973,7.736z"/>
	</g>
	<g display="inline">
		<path d="M186.458,14.841c2.206,0,2.786-2.074,2.786-4.015c0-1.782-0.9-3.45-2.786-3.45c-1.864,0-2.765,1.712-2.765,3.45
			C183.693,12.742,184.271,14.841,186.458,14.841 M186.458,5.029c3.278,0,5.786,2.323,5.786,6.155c0,3.34-2.123,6.001-5.786,6.001
			c-3.644,0-5.765-2.661-5.765-6.001C180.693,7.352,183.201,5.029,186.458,5.029"/>
	</g>
	<g display="inline">
		<path d="M204.081,16.915h-2.722v-1.579h-0.043c-0.881,1.127-2.123,1.85-3.621,1.85c-2.615,0-3.752-1.938-3.752-4.557V5.302h2.873
			v6.2c0,1.421,0.021,3.337,1.86,3.337c2.078,0,2.528-2.365,2.528-3.854V5.301h2.872L204.081,16.915L204.081,16.915z"/>
	</g>
	<g display="inline">
		<path d="M206.501,5.302h2.55V7.94h0.043c0.129-1.083,1.311-2.907,3.021-2.907c0.279,0,0.578,0,0.879,0.09v3.045
			c-0.256-0.159-0.771-0.249-1.284-0.249c-2.337,0-2.337,3.066-2.337,4.735v4.263h-2.871L206.501,5.302L206.501,5.302z"/>
	</g>
	<g display="inline">
		<path d="M221.455,7.804c-0.514-0.249-1.07-0.432-1.949-0.432c-1.777,0-2.914,1.49-2.914,3.676c0,2.146,0.963,3.791,2.979,3.791
			c0.813,0,1.714-0.314,2.207-0.542l0.129,2.503c-0.836,0.271-1.691,0.386-2.872,0.386c-3.62,0-5.44-2.597-5.44-6.138
			c0-3.357,1.885-6.021,5.334-6.021c1.16,0,1.994,0.138,2.787,0.386L221.455,7.804z"/>
	</g>
	<g display="inline">
		<path d="M230.143,9.969c-0.088-1.47-0.729-2.729-2.338-2.729c-1.604,0-2.42,1.173-2.549,2.729H230.143z M232.068,16.26
			c-1.049,0.606-2.248,0.926-3.791,0.926c-3.644,0-5.764-2.209-5.764-6.021c0-3.359,1.688-6.137,5.12-6.137
			c4.093,0,5.253,2.954,5.253,7.014h-7.634c0.131,1.874,1.37,2.937,3.149,2.937c1.396,0,2.592-0.542,3.66-1.176L232.068,16.26
			L232.068,16.26z"/>
	</g>
	<g display="inline">
		<path d="M241.27,7.736c-0.881-0.314-1.521-0.495-2.57-0.495c-0.771,0-1.694,0.293-1.694,1.284c0,1.85,4.992,0.678,4.992,4.871
			c0,2.706-2.292,3.789-4.628,3.789c-1.094,0-2.206-0.203-3.256-0.496l0.171-2.48c0.899,0.476,1.844,0.769,2.829,0.769
			c0.728,0,1.885-0.293,1.885-1.421c0-2.276-4.993-0.723-4.993-4.916c0-2.505,2.08-3.608,4.33-3.608c1.349,0,2.229,0.228,3.129,0.43
			L241.27,7.736z"/>
	</g>
	<g display="inline">
		<polygon points="72.398,25.079 73.895,25.079 73.895,31.859 80.695,25.079 82.646,25.079 75.325,32.206 83.275,40.2 81.217,40.2 
			73.895,32.639 73.895,40.2 72.398,40.2 		"/>
	</g>
	<g display="inline">
		<path d="M90.672,34.633h-0.39c-2.362,0-5.179,0.238-5.179,2.664c0,1.451,1.041,1.992,2.297,1.992c3.205,0,3.271-2.795,3.271-3.982
			V34.633z M90.803,38.424H90.76c-0.605,1.322-2.145,2.035-3.51,2.035c-3.141,0-3.641-2.123-3.641-3.119
			c0-3.7,3.943-3.879,6.804-3.879h0.26V32.9c0-1.883-0.672-2.837-2.513-2.837c-1.148,0-2.23,0.26-3.251,0.909V29.65
			c0.846-0.409,2.276-0.758,3.251-0.758c2.729,0,3.878,1.231,3.878,4.114v4.873c0,0.891,0,1.562,0.108,2.318h-1.344V38.424z"/>
	</g>
	<g display="inline">
		<path d="M94.312,31.75c0-0.844,0-1.709-0.086-2.599h1.321v1.972h0.042c0.456-0.996,1.279-2.229,3.576-2.229
			c2.729,0,3.77,1.816,3.77,4.245v7.062h-1.365v-6.716c0-2.079-0.736-3.425-2.621-3.425c-2.492,0-3.272,2.188-3.272,4.027v6.109
			h-1.364V31.75z"/>
	</g>
	<g display="inline">
		<path d="M109.411,39.032c2.469,0,3.356-2.341,3.356-4.355c0-2.661-0.779-4.612-3.27-4.612c-2.6,0-3.271,2.472-3.271,4.612
			C106.225,36.844,107.092,39.032,109.411,39.032 M114.134,39.29c0,3.076-1.387,5.59-5.178,5.59c-1.452,0-2.772-0.41-3.336-0.584
			l0.108-1.363c0.845,0.436,2.058,0.777,3.248,0.777c3.51,0,3.813-2.559,3.813-5.676h-0.043c-0.737,1.604-1.95,2.166-3.356,2.166
			c-3.533,0-4.66-3.076-4.66-5.523c0-3.357,1.301-5.781,4.551-5.781c1.473,0,2.426,0.191,3.443,1.518h0.043v-1.258h1.366V39.29
			L114.134,39.29z"/>
	</g>
	<g display="inline">
		<path d="M122.674,34.633h-0.39c-2.362,0-5.179,0.238-5.179,2.664c0,1.451,1.041,1.992,2.297,1.992
			c3.205,0,3.271-2.795,3.271-3.982L122.674,34.633L122.674,34.633z M122.805,38.424h-0.043c-0.607,1.322-2.146,2.035-3.51,2.035
			c-3.143,0-3.641-2.123-3.641-3.119c0-3.7,3.943-3.879,6.805-3.879h0.258V32.9c0-1.883-0.672-2.837-2.512-2.837
			c-1.148,0-2.232,0.26-3.252,0.909V29.65c0.846-0.409,2.275-0.758,3.252-0.758c2.727,0,3.877,1.231,3.877,4.114v4.873
			c0,0.891,0,1.562,0.107,2.318h-1.342V38.424L122.805,38.424z"/>
	</g>
	<g display="inline">
		<path d="M126.314,31.624c0-1.215,0-1.67-0.086-2.474h1.362v2.123h0.044c0.499-1.231,1.432-2.383,2.84-2.383
			c0.323,0,0.715,0.063,0.951,0.13v1.432c-0.279-0.088-0.648-0.132-0.994-0.132c-2.168,0-2.752,2.429-2.752,4.423V40.2h-1.365
			V31.624z"/>
	</g>
	<g display="inline">
		<path d="M136.775,39.292c2.382,0,3.66-2.061,3.66-4.615c0-2.557-1.276-4.612-3.66-4.612c-2.385,0-3.662,2.06-3.662,4.612
			C133.113,37.232,134.391,39.292,136.775,39.292 M136.775,28.892c3.574,0,5.156,2.771,5.156,5.782c0,3.013-1.582,5.783-5.156,5.783
			c-3.575,0-5.157-2.771-5.157-5.783C131.618,31.667,133.2,28.892,136.775,28.892"/>
	</g>
	<g display="inline">
		<path d="M148.127,39.292c2.383,0,3.66-2.061,3.66-4.615c0-2.557-1.277-4.612-3.66-4.612c-2.384,0-3.66,2.06-3.66,4.612
			C144.467,37.232,145.743,39.292,148.127,39.292 M148.127,28.892c3.574,0,5.155,2.771,5.155,5.782c0,3.013-1.581,5.783-5.155,5.783
			c-3.576,0-5.156-2.771-5.156-5.783C142.971,31.667,144.551,28.892,148.127,28.892"/>
	</g>
	<g display="inline">
		<rect x="160.76" y="25.078" width="1.494" height="15.122"/>
	</g>
	<g display="inline">
		<path d="M164.051,38.598c0.823,0.408,1.82,0.691,2.883,0.691c1.299,0,2.449-0.717,2.449-1.973c0-2.621-5.309-2.211-5.309-5.415
			c0-2.188,1.777-3.013,3.596-3.013c0.584,0,1.754,0.129,2.73,0.496l-0.131,1.191c-0.715-0.326-1.69-0.521-2.449-0.521
			c-1.407,0-2.381,0.435-2.381,1.843c0,2.059,5.437,1.799,5.437,5.416c0,2.34-2.188,3.141-3.856,3.141
			c-1.062,0-2.123-0.129-3.096-0.521L164.051,38.598z"/>
	</g>
	<g display="inline">
		<rect x="172.331" y="23.952" width="1.364" height="16.248"/>
	</g>
	<g display="inline">
		<path d="M182.318,34.633h-0.392c-2.36,0-5.182,0.238-5.182,2.664c0,1.451,1.04,1.992,2.296,1.992c3.207,0,3.271-2.795,3.271-3.982
			v-0.674H182.318z M182.447,38.424h-0.043c-0.605,1.322-2.146,2.035-3.51,2.035c-3.145,0-3.644-2.123-3.644-3.119
			c0-3.7,3.942-3.879,6.808-3.879h0.26V32.9c0-1.883-0.674-2.837-2.514-2.837c-1.148,0-2.232,0.26-3.252,0.909V29.65
			c0.846-0.409,2.272-0.758,3.252-0.758c2.729,0,3.877,1.231,3.877,4.114v4.873c0,0.891,0,1.562,0.106,2.318h-1.345L182.447,38.424
			L182.447,38.424z"/>
	</g>
	<g display="inline">
		<path d="M185.959,31.75c0-0.844,0-1.709-0.088-2.599h1.322v1.972h0.043c0.453-0.996,1.277-2.229,3.576-2.229
			c2.728,0,3.768,1.816,3.768,4.245v7.062h-1.365v-6.716c0-2.079-0.734-3.425-2.619-3.425c-2.494,0-3.271,2.188-3.271,4.027v6.109
			h-1.363L185.959,31.75L185.959,31.75z"/>
	</g>
	<g display="inline">
		<path d="M201.178,39.292c2.424,0,3.271-2.602,3.271-4.615c0-2.012-0.848-4.612-3.271-4.612c-2.602,0-3.271,2.472-3.271,4.612
			C197.904,36.821,198.576,39.292,201.178,39.292 M205.812,40.202h-1.365v-1.757h-0.043c-0.737,1.406-1.862,2.017-3.445,2.017
			c-3.033,0-4.547-2.514-4.547-5.785c0-3.354,1.298-5.781,4.547-5.781c2.168,0,3.249,1.579,3.445,2.122h0.043v-7.062h1.365V40.202z"
			/>
	</g>
</g>
<g display="none">
	<g display="inline">
		<path d="M0,11.358c0.459,1.074,3.839,7.464,17.537,1.522c0.573-0.253,1.12-0.49,1.645-0.725l0.115-0.047
			c1.375-0.604,2.584-1.148,3.647-1.633c2.034-0.56,4.507-0.655,6.653,0.935c4.247,3.164,4.503,8.812,4.517,9.655
			c-0.047,0.036,0.26,2.521-1.269,7.076c-1.524,4.557,7.108,7.625,7.108,7.625s0.771,1.807-0.692,1.742
			c-1.46-0.07-2.147-2.117-5.198-3.857c-3.056-1.742-4.024,0.159-3.699-4.513c0.327-4.684-5.773-13.379-13.397-13.175
			C9.39,16.161,2.823,18.421,0,11.358 M19.182,12.158c-0.211,0.139-0.33,0.217-0.33,0.217l0.445-0.263L19.182,12.158z M26.211,9.043
			c6.365-2.671,6.498-1.366,17.937,3.291c0,0,1.729,0.469,2.359-1.671c0,0-1.648-1.886-0.897-4.956c0,0,1.844-0.251,3.118,4.023
			c0,0,2.028-0.081,3.11,1.062c1.087,1.148,0.648,2.153,3.116,4.09c0,0,0.499,1.549-1.147,1.747
			c-1.654,0.194-4.183-0.864-5.204-2.004c0,0-0.297,1.354-1.364,2.786c-1.723-0.225-4.797-0.312-7.666,1.236
			c-1.277,0.698-2.271,1.668-3.025,2.66c-0.176,0.021-0.35,0.026-0.526,0.023c-0.288-0.006-0.582-0.092-0.851-0.173
			c-0.041-1.389-0.389-5.42-2.929-8.584C30.398,10.283,27.823,9.389,26.211,9.043 M46.348,18.421
			c-0.761,0.738-1.766,1.395-3.087,1.82c-4.44,1.408-4.377,1.672-6.093,3.35c-0.8,0.779-1.063,0.668-1.052,0.251
			c0.364-0.986,0.934-1.929,1.788-2.729C40.733,18.443,44.318,18.255,46.348,18.421"/>
	</g>
</g>
<path d="M0,35.197c0,2.261,0,7.802,5.675,7.802c2.305,0,3.191-1.241,3.768-1.95l0.355,1.464h2.483V25.843H5.675v3.812h2.526v7.093
	c0,0.931,0,2.793-2.084,2.793c-2.038,0-2.038-1.729-2.038-3.769V17.775c0-1.552,0-3.458,2.084-3.458
	c1.816,0,1.906,1.418,1.906,3.191v3.502h3.812v-3.281c0-2.305,0-6.871-5.585-6.871c-1.33,0-3.679,0.221-5.142,2.571
	C0,15.205,0,17.021,0,19.726V35.197L0,35.197z M19.568,11.215l-4.39,31.297h3.99l0.709-5.764h4.7l0.797,5.764h4.034l-4.832-31.297
	H19.568L19.568,11.215z M22.228,17.11c0.044,2.571,0.088,3.769,0.266,4.966l1.551,10.86h-3.724l1.33-10.771
	c0.088-0.531,0.088-0.976,0.222-5.054H22.228L22.228,17.11z M31.917,35.33c0,1.508,0,3.015,0.753,4.434
	c1.508,3.06,4.7,3.06,5.542,3.06c6.739,0,6.828-5.055,6.828-7.36v-14.85c0-3.858,0-6.03-1.729-7.848
	c-1.285-1.374-2.97-1.772-4.698-1.772c-1.952,0-3.857,0.708-5.143,2.172c-1.418,1.64-1.552,3.68-1.552,6.517V35.33L31.917,35.33z
	 M40.961,35.152c0,2.217-0.089,4.257-2.527,4.257c-2.26,0-2.393-1.729-2.393-3.281v-16.8c0-1.951,0-2.617,0.222-3.236
	c0.531-1.508,1.995-1.508,2.303-1.508c2.395,0,2.395,2.084,2.395,4.788V35.152L40.961,35.152z M48.75,11.17v31.342h10.993v-3.814
	h-6.826V11.17H48.75L48.75,11.17z"/>
<g>
	<defs>
		<path id="SVGID_61_" d="M2.357-7.062L0,9.744h2.142l0.381-3.095h2.523l0.429,3.095h2.167L5.046-7.062H2.357L2.357-7.062z
			 M3.786-3.896C3.81-2.516,3.833-1.874,3.928-1.23l0.833,5.832h-2l0.715-5.786c0.048-0.285,0.048-0.523,0.119-2.712H3.786
			L3.786-3.896z M9.198,9.744h4.261c1.81,0,2.381-0.689,2.381-2.904V-4.349c0-1.356-0.191-2.713-2.572-2.713h-4.07V9.744
			L9.198,9.744z M12.698-5.016c0.881,0,0.904,0.524,0.904,1.167V6.744c0,0.548-0.07,0.928-0.713,0.928h-1.476V-5.016H12.698
			L12.698-5.016z M17.819,9.744h5.572V7.625h-3.31V2.032h2.952V-0.04h-2.952v-4.903h3.286v-2.119h-5.548V9.744L17.819,9.744z
			 M25.097-7.086v16.83h5.904V7.697h-3.666V-7.086H25.097L25.097-7.086z M34.539-7.062L32.182,9.744h2.142l0.381-3.095h2.523
			l0.429,3.095h2.167L37.228-7.062H34.539L34.539-7.062z M35.966-3.896c0.025,1.38,0.048,2.022,0.143,2.666l0.833,5.832h-1.999
			l0.715-5.786c0.047-0.285,0.047-0.523,0.118-2.712H35.966L35.966-3.896z M41.356-7.062V9.744h2.189V-7.062H41.356L41.356-7.062z
			 M45.519,9.744h4.261c1.81,0,2.38-0.689,2.38-2.904V-4.349c0-1.356-0.189-2.713-2.571-2.713h-4.071V9.744L45.519,9.744z
			 M49.019-5.016c0.88,0,0.903,0.524,0.903,1.167V6.744c0,0.548-0.07,0.928-0.714,0.928h-1.476V-5.016H49.019L49.019-5.016z
			 M54.141,9.744h5.569V7.625h-3.307V2.032h2.952V-0.04h-2.952v-4.903h3.285v-2.119h-5.546V9.744L54.141,9.744z"/>
	</defs>
	<use xlink:href="#SVGID_61_"  overflow="visible"/>
	<clipPath id="SVGID_62_">
		<use xlink:href="#SVGID_61_"  overflow="visible"/>
	</clipPath>
	<polygon clip-path="url(#SVGID_62_)" points="0.141,-6.946 0.141,10.86 61.23,10.86 61.23,-6.946 0.141,-6.946 	"/>
</g>
</svg>
