<?xml version="1.0" encoding="utf-8"?>
<!-- Generator: Adobe Illustrator 16.0.0, SVG Export Plug-In . SVG Version: 6.00 Build 0)  -->
<!DOCTYPE svg PUBLIC "-//W3C//DTD SVG 1.1//EN" "http://www.w3.org/Graphics/SVG/1.1/DTD/svg11.dtd">
<svg version="1.1" id="Layer_1" xmlns="http://www.w3.org/2000/svg" xmlns:xlink="http://www.w3.org/1999/xlink" x="0px" y="0px"
	 width="27px" height="27px" viewBox="0 0 27 27" enable-background="new 0 0 27 27" xml:space="preserve">
<g>
	<g>
		<g>
			<g>
				<g>
					<g>
						<g>
							<g>
								<g>
									<g>
										<g>
											<path fill="#9F7A78" d="M14.059,9.543V7.18c0-0.52-0.157-0.777-0.479-0.777c-0.328,0-0.483,0.26-0.483,0.777v2.363
												c0,0.52,0.157,0.777,0.483,0.777C13.902,10.32,14.059,10.062,14.059,9.543 M8.717,14.76h1.206v-1.051h-3.51v1.051h1.184
												v6.404h1.12V14.76L8.717,14.76z M11.957,21.164h1.007v-5.557h-1.007v4.248c-0.223,0.312-0.434,0.471-0.636,0.471
												c-0.135,0-0.211-0.08-0.236-0.234c-0.009-0.033-0.009-0.156-0.009-0.393v-4.092h-1.007v4.395
												c0,0.393,0.034,0.656,0.089,0.826c0.103,0.281,0.324,0.412,0.649,0.412c0.37,0,0.75-0.223,1.15-0.682V21.164z
												 M15.781,19.576c0,0.502-0.146,0.75-0.438,0.75c-0.166,0-0.336-0.08-0.504-0.248v-3.387
												c0.168-0.166,0.338-0.244,0.504-0.244c0.287,0,0.438,0.258,0.438,0.758V19.576z M16.688,20.615
												c0.066-0.232,0.104-0.604,0.104-1.117v-2.213c0-0.525-0.034-0.895-0.104-1.115c-0.135-0.416-0.396-0.629-0.807-0.629
												c-0.369,0-0.715,0.201-1.039,0.604v-2.436h-1.006v7.457h1.006v-0.537c0.336,0.416,0.684,0.613,1.039,0.613
												C16.283,21.24,16.553,21.029,16.688,20.615 M18.574,17.732v-0.521c0-0.514,0.168-0.771,0.505-0.771
												c0.334,0,0.502,0.27,0.502,0.771v0.521H18.574z M20.566,20.035c0.008-0.1,0.021-0.322,0.021-0.646V19.24h-1.024
												c0,0.402-0.014,0.629-0.021,0.686c-0.06,0.27-0.198,0.402-0.446,0.402c-0.349,0-0.519-0.26-0.519-0.771v-0.984h2.019
												v-1.148c0-0.596-0.104-1.027-0.312-1.312c-0.28-0.379-0.685-0.566-1.188-0.566c-0.519,0-0.916,0.188-1.207,0.566
												c-0.216,0.281-0.312,0.717-0.312,1.312v1.943c0,0.594,0.106,1.029,0.321,1.311c0.291,0.379,0.688,0.566,1.22,0.566
												c0.524,0,0.938-0.197,1.22-0.604C20.454,20.461,20.531,20.26,20.566,20.035 M21.829,17.561
												c0,1.299-0.003,2.676-0.291,3.938c-0.203,0.887-0.929,1.539-1.802,1.639c-1.938,0.217-3.901,0.229-5.857,0.229
												c-0.126,0-0.253,0-0.38,0c-0.126,0-0.253,0-0.379,0c-1.956,0-3.918-0.014-5.858-0.229c-0.872-0.1-1.597-0.752-1.8-1.639
												c-0.29-1.262-0.29-2.639-0.29-3.938c0-1.297,0.003-2.676,0.293-3.938c0.204-0.885,0.928-1.539,1.8-1.637
												c1.94-0.217,3.902-0.23,5.858-0.23c0.127,0,0.253,0,0.38,0c0.126,0,0.253,0,0.38,0c1.957,0,3.917,0.014,5.857,0.23
												c0.871,0.098,1.597,0.752,1.802,1.637C21.831,14.885,21.829,16.262,21.829,17.561 M18.838,11.168H17.82v-0.613
												c-0.403,0.465-0.791,0.689-1.162,0.689c-0.327,0-0.553-0.133-0.655-0.418c-0.056-0.17-0.09-0.438-0.09-0.834V5.553h1.015
												v4.135c0,0.238,0,0.361,0.014,0.395c0.021,0.158,0.104,0.238,0.238,0.238c0.203,0,0.416-0.156,0.646-0.477V5.555h1.021
												v5.613H18.838z M15.076,9.352c0,0.596-0.104,1.039-0.314,1.32c-0.281,0.383-0.679,0.574-1.188,0.574
												c-0.507,0-0.903-0.191-1.184-0.574c-0.216-0.281-0.319-0.725-0.319-1.32V7.385c0-0.6,0.104-1.039,0.319-1.322
												c0.281-0.385,0.677-0.576,1.184-0.576c0.51,0,0.904,0.191,1.188,0.576c0.213,0.283,0.314,0.723,0.314,1.322V9.352z
												 M12.061,3.635l-1.357,4.482v3.051H9.576V8.117C9.474,7.576,9.248,6.785,8.888,5.734c-0.238-0.699-0.485-1.4-0.723-2.1
												H9.35l0.801,2.959l0.769-2.959H12.061L12.061,3.635z M27,13.5C27,6.045,20.956,0,13.501,0C6.045,0,0,6.045,0,13.5
												C0,20.957,6.045,27,13.501,27C20.956,27,27,20.957,27,13.5"/>
										</g>
									</g>
								</g>
							</g>
						</g>
					</g>
				</g>
			</g>
		</g>
	</g>
</g>
</svg>
