<svg xmlns="http://www.w3.org/2000/svg" xmlns:xlink="http://www.w3.org/1999/xlink" width="66" height="92" viewBox="0 0 66 92"><defs><path id="a" d="M0 10.297h66V79H0z"/></defs><clipPath id="b"><use xlink:href="#a" overflow="visible"/></clipPath><path clip-path="url(#b)" fill="#FFF" d="M47.52 74.496h.58v4.432h-.58zm-21.955.49h1.348v3.942h.577v-3.942h1.352v-.49h-3.277"/><g clip-path="url(#b)"><defs><path id="c" d="M0 10.296h66V79H0z"/></defs><clipPath id="d"><use xlink:href="#c" overflow="visible"/></clipPath><path clip-path="url(#d)" fill="#FFF" d="M21.424 70.547h-.033c-1.35 0-2.19-1.31-2.17-3.19 0-1.82.83-3.19 2.18-3.19 1.37 0 2.177 1.37 2.177 3.172 0 1.89-.792 3.2-2.144 3.2m.03-8.606c-3.22 0-5.213 2.43-5.213 5.473 0 2.914 1.792 5.354 5.04 5.354h.015c3.22 0 5.243-2.146 5.243-5.523 0-2.796-1.71-5.302-5.084-5.302"/></g><path clip-path="url(#b)" fill="#FFF" d="M51.502 66.002h-3.405v-3.89H45.28V72.6h2.817v-4.137h3.405V72.6h2.817V62.11H51.5"/><g clip-path="url(#b)"><defs><path id="e" d="M0 10.296h66V79H0z"/></defs><clipPath id="f"><use xlink:href="#e" overflow="visible"/></clipPath><path clip-path="url(#f)" fill="#FFF" d="M22.177 76.416c-.612-.236-.883-.44-.883-.848 0-.3.232-.664.836-.664.403 0 .695.127.835.21l.156-.474c-.19-.104-.52-.21-.97-.21-.86 0-1.43.513-1.43 1.204 0 .617.45.998 1.17 1.248.6.227.84.465.84.877 0 .45-.342.75-.926.75-.395 0-.763-.13-1.02-.29l-.15.472c.237.16.705.29 1.13.29 1.04 0 1.54-.6 1.54-1.276 0-.65-.372-1-1.12-1.3"/></g><path clip-path="url(#b)" fill="#FFF" d="M44.82 62.113h-8.21v2.366h2.676v8.12H42.1v-8.12h2.72"/><g clip-path="url(#b)"><defs><path id="g" d="M0 10.296h66V79H0z"/></defs><clipPath id="h"><use xlink:href="#g" overflow="visible"/></clipPath><path clip-path="url(#h)" fill="#FFF" d="M37.605 77.088l.432-1.285c.086-.27.16-.543.218-.8h.02c.066.257.132.52.225.81l.44 1.275h-1.335zm.336-2.592l-1.5 4.432h.59l.46-1.395h1.57l.47 1.395h.61l-1.503-4.432h-.69zm-20.51 2.627c0 .975-.43 1.406-1.08 1.406-.58 0-1.02-.42-1.02-1.41v-2.63h-.58v2.61c0 1.372.685 1.89 1.59 1.89.96 0 1.674-.557 1.674-1.916v-2.59h-.577v2.627z"/></g><path clip-path="url(#b)" fill="#FFF" d="M43.213 74.496h-.576v4.432h2.47v-.483h-1.894"/><g clip-path="url(#b)"><defs><path id="i" d="M0 10.296h66V79H0z"/></defs><clipPath id="j"><use xlink:href="#i" overflow="visible"/></clipPath><path clip-path="url(#j)" fill="#FFF" d="M32.476 76.574h-.585v-1.61c.1-.026.29-.054.57-.054.607 0 1.02.254 1.02.82 0 .508-.385.844-.995.844m.74.244v-.023c.46-.154.837-.54.837-1.12 0-.35-.132-.65-.35-.843-.274-.248-.68-.363-1.29-.363-.383 0-.806.03-1.095.09v4.36h.57V77h.54c.52.02.76.25.894.864.118.55.216.924.29 1.057h.59c-.086-.17-.19-.595-.336-1.22-.112-.453-.312-.77-.65-.89m18.57.27l.432-1.282c.087-.27.16-.544.218-.8h.02c.065.256.133.52.226.81l.442 1.274h-1.34zm.336-2.59l-1.506 4.434h.59l.46-1.395h1.57l.472 1.393h.61l-1.505-4.43h-.686zm-18.79-6.423c0 1.666-.546 2.477-1.664 2.477-1.105 0-1.65-.89-1.65-2.477V62.11H27.21v5.728c0 3.36 1.52 4.93 4.385 4.93 2.942 0 4.558-1.633 4.558-4.87v-5.786H33.34v5.956zm-23.43 9.02l.432-1.285c.088-.27.16-.54.224-.8h.016c.063.26.13.52.223.81l.44 1.28H9.907zm.335-2.59l-1.505 4.43h.59l.457-1.394h1.57l.476 1.395h.61l-1.51-4.432h-.69zm2.79-8.248c-1.323-.5-1.88-.7-1.88-1.23 0-.466.463-.78 1.322-.78 1.04 0 1.817.297 2.27.5l.592-2.254c-.69-.3-1.59-.53-2.837-.53-2.645 0-4.22 1.43-4.22 3.28 0 1.557 1.186 2.523 2.96 3.162 1.178.4 1.646.685 1.646 1.192 0 .53-.465.86-1.43.86-1.054 0-2.083-.33-2.72-.657l-.53 2.315c.59.312 1.82.637 3.083.637 3.062 0 4.46-1.54 4.46-3.344.003-1.464-.835-2.46-2.718-3.16"/></g><path clip-path="url(#b)" fill="#FFF" d="M0 29.715l8.74 26.89 14.673-9.17v-15.46h19.173v22.818l11.732 4.504L66 34.247 29.373 11.36"/><path clip-path="url(#b)" fill="#FFF" d="M41.082 54.215V33.48h-16.16v14.532l.964.37V35.634h11.747v17.26"/><path clip-path="url(#b)" fill="#FFF" d="M36.13 52.312V37.144h-8.742v2.15h5.94v11.944"/><g clip-path="url(#b)"><defs><path id="k" d="M0 10.296h66V79H0z"/></defs><clipPath id="l"><use xlink:href="#k" overflow="visible"/></clipPath><g opacity=".8" clip-path="url(#l)"><defs><path id="m" d="M38.382 9.274h36.822V35.27H38.382z"/></defs><clipPath id="n"><use xlink:href="#m" overflow="visible"/></clipPath><path opacity=".5" clip-path="url(#n)" fill="#FFF" d="M47.586 22.74L66 34.246l-11.682-23.95"/></g></g><g fill="#FFF"><path d="M65.343 35.354l-36.26-22.652L0 30.875 8.658 57.49l14.525-9.075V33.11H42.16v22.587l11.603 4.464"/><path d="M40.672 34.605H24.675V48.98l.946.374V36.73h11.65v17.082l3.41 1.31"/><path d="M27.116 38.222v2.13h5.873V52.18l2.77 1.06V38.222"/><path opacity=".75" d="M53.763 11.65l-6.657 12.313 18.237 11.39"/></g></svg>