<svg xmlns="http://www.w3.org/2000/svg" width="753.64" height="498.38" viewBox="0 0 753.64 498.38"><title>escape-to-the-gaol</title><path d="M43.65,117,48,167.86q29.4-1.62,67-6,3.31,8.41,3.36,9c.31,1.33.39,4.61.26,9.83q0,14.19-14.41,14.55-9,.18-47.31,2.27l-5.76.48q.87,6.88,2,30,1,18.47,3.4,29.84,7.54.22,7.84.21,38.63-2.11,51.74-4.68,10.27-1.74,14.85,11.2l-.47,4.67q-.42,12.21-12.78,13.25,8.91-.75-41,4.35-30.15,3.13-41.08,4.06-12.1.74-13.1-11.06l-3.73-44q-5.73-64.11-9-98.89-.39-4.59-1.82-14.61-1.41-9.74-1.82-14.62-1.65-19.56,18.22-21,16.13-1.08,60.44-4.55,10.63-.9,21-2.06,6-.8,6.5,5,.81,13,.63,21.09,0,6.38-9,6.85c-2.68.22-7.3.43-13.85.59q-9,.18-13.85.6Z" transform="translate(-5.95 -80.03)" fill="#5d2b2c"/><path d="M200.93,126.52q10.57,1.71,9.23,13.12c-.53,5.26-.79,7.79-.81,7.6q-1.51,9.4-11.35,9.65-15,.41-25.38,1.28-9.21.78-10,8.38-.95,9.36,6.3,12.79,3.63,1.72,23.41,9.61a63,63,0,0,0,6.28,2.36c2.61,1.13,4.61,2,6,2.68q26.7,10.77,22.23,43.59-3.73,27.55-32.87,39.28-17.4,6.69-46.72,2.51-16.14-2.39-13.4-18a5,5,0,0,0,.12-2,8.44,8.44,0,0,1,.43-1.77c1.22-6.09,1.91-9.33,2.07-9.74q2.13-2.21,11,.23,15.7,4.17,38.2-3.82,6.19-2,7.08-8.71a12.5,12.5,0,0,0-4.45-11.5,41.28,41.28,0,0,0-8.85-5.33q-31.91-14.1-25.86-11.14A81.78,81.78,0,0,1,134.9,195q-6-5.28-8.44-17.53-5.42-29.67,20.6-44a82.26,82.26,0,0,1,29.59-9.75Q199.15,126.1,200.93,126.52Z" transform="translate(-5.95 -80.03)" fill="#5d2b2c"/><path d="M248.28,249.38a46,46,0,0,1-12-18.68q-15-40.44-3.38-74.16a46.13,46.13,0,0,1,11.19-18.33q25.51-23.59,55.1-23.2,6.66,0,19.18,4.16,7.74,2.53,5.91,11.67c-.14.59-.36,1.48-.64,2.66a19.33,19.33,0,0,1-.33,2.93q-2.43,12.36-14.28,9.32a33.42,33.42,0,0,0-17.71-.53q-12.18,3.36-19.75,16.45-15.14,26.47,1.76,58.36,4.53,9.18,13.15,11.63,20.21,6.1,32.29,1.61.57,0,5.7-1.06,12.27-2.19,13.61,10.14a26.71,26.71,0,0,1-.16,8.42q-1,8.78-7.82,10.22-2,.45-24.32,7Q267.5,267.73,248.28,249.38Z" transform="translate(-5.95 -80.03)" fill="#5d2b2c"/><path d="M406.59,147.62s-.14-.47-.41-1.42q-1.31-5.1-8.5-8-17.91-6.3-38.46,4.13-9.45,4.86-15.6,3.93-1-1.93-4.32-20.2,11-9.91,30.32-14.73,23.22-6.31,43.84-2.27,25.05,5.11,30.34,29.87,8.59,39.84,9.74,91l1.77,14q.93,7.75-6.46,9.24a86.05,86.05,0,0,1-14.91,1.84q-11.22,1-14.83-10.91c-4,3.24-6.05,5-6.22,5.17q-12.9,11.8-27.1,11.85-11.28.09-17.71-.53-21.66-2.51-31.77-22.79-9.78-19.74-.86-37.59,7.46-14.53,28.37-24.13,23.12-10.93,42.38-12.57l3.67-1.18Q406.59,147.63,406.59,147.62Zm6.78,52.72-.57,0L411.92,190c-.49-3.44-2.37-5.11-5.64-5q-16.51,0-27.25,6.65-8,5-9.46,18.19-1.23,12.85,4.19,18.76,9.27,10.23,23.12,6.15,15-4.45,16.47-17.62.21-.88.6-16.85Z" transform="translate(-5.95 -80.03)" fill="#5d2b2c"/><path d="M513.74,283.08q0,3.19-1.34,21.84-.3,6.69-7.18,7.56-14.09,1.2-20.51.58-12-1-13.28-13.07-1.23-14.67-2.42-38.9-.39-4.6-1.68-36.93-2.43-59.46-2.49-63.52-.27-6.63-1.34-19.29-1.12-13.23-1.35-19.3-.81-13,2.42-15.84,1.88-1.9,13.83-4.36l6.61-.56q10.71,0,10.49,11l.73,8.62q3.74-3.78,3.71-4.07,27.38-35.92,68.42-9.57,11.37,7.72,18.31,28c.28,1.13.58,2.36.89,3.69q5.84,45,3.78,65.14-3,33-27.4,45.77-18.6,9.69-37.78-1.43-.92-.51-14.21-10.38Q513.41,279,513.74,283.08ZM502.9,175.67a116.91,116.91,0,0,0,3.28,19.85,56.79,56.79,0,0,0,6.21,15.26,27.68,27.68,0,0,0,9.37,9.63,21,21,0,0,0,13,2.67q14.94-1.26,19.72-15.14t2.88-36q-2.19-25.87-8.6-38.23t-21.93-11a21.77,21.77,0,0,0-12.89,5.15,28.68,28.68,0,0,0-7.85,11.67A58.28,58.28,0,0,0,502.68,156,127.66,127.66,0,0,0,502.9,175.67Z" transform="translate(-5.95 -80.03)" fill="#5d2b2c"/><path d="M645,202.73q4.24,5.73,12.64,5.6,24.95.49,38.91-9.09a27.17,27.17,0,0,1,5.51-3.37q10.8-5.84,12.88,5a159.89,159.89,0,0,1,1.32,22.49c.16,1.92-1.05,3.56-3.64,4.94q-10.2,6.08-15,7.64-24.52,7.88-41,2l-25.42-9.43q-7.28-3.72-15-12.63Q599.79,196.14,597,169.44q-4.43-41.92,25.88-70.56Q644,78.56,674,87.88q29.76,9.36,36.41,36.6,4.37,17.31,6.18,28.44,1.43,10-9.55,13.85a44.17,44.17,0,0,1-8.22,2.14q-11.16,1.53-63.55,8.86Q635.81,190.48,645,202.73Zm35.68-57.48q-2.37-14.28-2.44-15.14Q674.83,117.64,660,114q-11.5-2.51-17.59,4.39a45.11,45.11,0,0,0-11.65,33.43Q674.05,146.1,680.64,145.25Z" transform="translate(-5.95 -80.03)" fill="#5d2b2c"/><path d="M120.76,329.54q15.4-.15,16.52-.21,5.81.14,6.36,6.14c.08,1.63.1,3.34.05,5.13q-.74,7.41-8,8.7a45.72,45.72,0,0,1-7.1.82q-.45,0-6.71-.09.24,29.48.38,32.15,0,4.69,1.33,24.95c.26,2.08.58,4,1,5.76q2.05,9.27,11.37,7.88-3.12.39,4.42-.9,7.08-1.28,7.9,5.83a56.16,56.16,0,0,1-.58,10.08q-.83,5.42-7,6.63a51.41,51.41,0,0,1-25.29-.88Q100.35,437,98,422.35a359.22,359.22,0,0,1-4-36.87q-.12-2.24-.38-32.15-2.54-1.65-10.09-.8-8.22.89-8.88-7.35-.95-9.1.32-10.74,1.45-1.86,10.34-3c.14,0,2.36-.27,6.66-.8l-.86-16c-.24-4.46,1.6-7.6,5.52-9.46q5.27-2.06,14.23-5.45,6.58-2.35,7.82,4.05A107.91,107.91,0,0,1,120,314.61Z" transform="translate(-5.95 -80.03)" fill="#5d2b2c"/><path d="M166.41,438.13q-13.26-9.79-16.75-25-4-16.75-5.24-22.73-4-21.22,2.28-36.76,8.49-21,30.76-26.44,15-3.71,24.64-2.88c3.29.27,5.17.47,5.62.59a60.21,60.21,0,0,1,23.63,15.72q1.67,2.14,5.25,10.44,7.71,18.81,7.89,26.39a82.54,82.54,0,0,1-5.17,32.89q-3.56,8.69-6.95,16.23a28,28,0,0,1-18.2,14.83q-1.54.3-20.76,4.46Q179.43,447.71,166.41,438.13Zm45.79-67q-3.45-14.34-12.3-21.24-11-8.79-18.55-.12a28.24,28.24,0,0,0-5.17,7.87q-9.65,28.44-.37,51.63a29.59,29.59,0,0,0,4.9,8q7.13,7.89,16.85,6,10-1.87,13.45-11.67,3.87-11.14,3.44-27.66Q212.47,372,212.2,371.12Z" transform="translate(-5.95 -80.03)" fill="#5d2b2c"/><path d="M60.72,477.68q11.13-.85,11.93-1,4.21-.18,4.9,4.14c.14,1.17.23,2.41.28,3.71a6.45,6.45,0,0,1-5.38,6.67,33,33,0,0,1-5.1.94c-.21,0-1.83.12-4.85.26q1.59,21.3,1.83,23.23.24,3.39,2.17,18,.44,2.22,1,4.11,1.94,6.62,8.6,5.15-2.24.44,3.15-.87,5.06-1.26,6,3.84a41.07,41.07,0,0,1,.07,7.31q-.34,4-4.75,5.14a37.29,37.29,0,0,1-18.33.58q-11.07-2.56-13.46-13a259.63,259.63,0,0,1-4.67-26.46q-.2-1.6-1.83-23.23-1.92-1.06-7.34-.09-5.89,1-6.77-4.88c-.75-4.36-.84-7-.29-7.78s3.09-1.84,7.33-2.68l4.77-.9L38.58,468.3a6.56,6.56,0,0,1,3.54-7.1q3.69-1.76,10-4.63,4.63-2,5.84,2.55a76.44,76.44,0,0,1,1.44,7.8Z" transform="translate(-5.95 -80.03)" fill="#5d2b2c"/><path d="M102.1,479.35a49.54,49.54,0,0,1,3.66-3.37q10.3-10.37,25.9-6.71,11.21,2.55,13.21,15,1.13,8,4.4,31.06,4.22,29.46,4.08,28.33,1.18,7.19-6.31,8.42a38.25,38.25,0,0,1-5.8.53q-4.2.35-5.8.54-2.88.35-3.9-2.62a12.13,12.13,0,0,1-1-4.12q-.47-6.45-2-27.12-1.07-17-1.26-18.57a40.45,40.45,0,0,0-2.34-8.51q-2.37-6.23-9.8-5.65c-4.43.21-7.49,2.2-9.21,6a23.31,23.31,0,0,0-1.53,12.89Q105.24,512,107,525q1.89,13,2.67,19.38,1.05,7.36-.34,9.33-1.25,1.77-8.57,3.15-4.31.84-1.59.35-8.76,1.54-10.28-6.9-.45-2.39-.81-6.74c-.3-3.33-.52-5.63-.67-6.92q-.5-4-3-20.32Q82.6,504,81.66,496.15q-2-16.2-5.82-52.22-.66-5.44,4.77-6.27a73.21,73.21,0,0,1,9-.93q5.53,0,7,5.19a58.72,58.72,0,0,1,2.06,10.33Z" transform="translate(-5.95 -80.03)" fill="#5d2b2c"/><path d="M182,528q2.49,3.12,7.19,2.88,14-.23,21.6-5.87a14.58,14.58,0,0,1,3-2q5.94-3.49,7.31,2.53a89.79,89.79,0,0,1,1.19,12.56c.13,1.07-.51,2-1.93,2.84a49.69,49.69,0,0,1-8.24,4.58q-13.57,4.89-22.89,2l-14.42-4.77a29.36,29.36,0,0,1-8.63-6.78,47.61,47.61,0,0,1-11.73-25.61q-3.31-23.37,13.08-40,11.43-11.81,28.44-7.18,16.85,4.64,21.11,19.75,2.79,9.6,4,15.8,1,5.58-5.07,7.94a24.69,24.69,0,0,1-4.55,1.37q-6.22,1.08-35.4,6.23Q176.59,521.32,182,528Zm18.82-32.89q-1.6-8-1.67-8.43-2.13-6.9-10.49-8.66-6.49-1.17-9.76,2.8A25.28,25.28,0,0,0,173,499.77Z" transform="translate(-5.95 -80.03)" fill="#5d2b2c"/><path d="M368.23,351.5q-.33-12.72,11.75-13.38l1,.33q15,0,18.6,3.59,3.92,3.91,3.91,18.93-.64,78-.65,80.27-.66,10.45,0,27.74.33,21.21.33,27.74Q402.82,528,394.34,546q-11.43,23.82-35.57,29.7-27.09,6.52-75.39-2.61-11.75-2.3-13.38-9.14-3.58-14,1.31-23.17,2.94-5.22,10.12-3.91,9.12,1.62,32.63,6.2,25.13,4.89,38.51-9.47,5.54-5.55,6.2-9.79,4.56-20.88,2.93-33.93-24.79,11.75-26.43,12.4-24.15,9.45-44.71-5.55-22.51-16.32-29-47-2.94-14.36.33-38.51,3.25-25.46,10.44-42.42Q281.1,348.9,304.92,342q34.92-10.11,57.76,17.29l5.55,5.22ZM307.53,453q7.83,30.67,38.18,16.64,11.43-5.2,13.71-16.64,2.94-12.72,5.55-36.87,2.28-19.59-13.06-37.21-12.07-14-26.43-10.11-13.71,3.58-17.3,17.62-.31,1.95-5.22,30Q307.21,451,307.53,453Z" transform="translate(-5.95 -80.03)" fill="#5d2b2c"/><path d="M500.13,382.83l-.33-1.63q-1-5.88-8.81-9.79-19.58-8.82-43.73,1-11.1,4.58-17.95,2.93-1-2.28-2.93-23.16Q439.75,342,462,338.45q26.74-4.89,49.6,1.63,27.73,8.16,31.33,36.55,5.86,45.69,2.28,103.45l.65,16q.33,8.81-8.15,9.79a98.14,98.14,0,0,1-17,.65Q508,506.51,505,492.8q-7.18,4.9-7.5,5.22-15.67,12.09-31.66,10.77-12.72-1-19.9-2.28-24.16-4.89-33.62-28.72-9.13-23.16,2.62-42.42,9.78-15.66,34.26-24.48,27.09-10.11,48.95-10.11l4.24-1Zm2.61,60h-.65V431.13q-.33-5.88-5.88-6.2-18.6-1.64-31.33,4.89-9.47,4.89-12.4,19.58-2.61,14.37,2.94,21.54,9.46,12.4,25.45,9.14,17.29-3.6,20.24-18.28.31-1,2.28-18.93Z" transform="translate(-5.95 -80.03)" fill="#5d2b2c"/><path d="M586.54,499.66Q567.94,484.32,564,461.8q-4.57-24.8-5.87-33.61-4.24-31.33,6.2-53.52,14-30,47-36.22,22.18-4.24,36.22-2.28c4.79.65,7.51,1.09,8.16,1.3q20.56,9.13,33.29,24.8,2.28,3.27,6.85,15.66,9.79,28.08,9.46,39.16a120.78,120.78,0,0,1-10.11,47.65q-5.88,12.4-11.42,23.17-9.15,16-27.74,20.23-2.29.32-30.68,4.9Q604.82,514.66,586.54,499.66Zm72.12-94.31q-3.92-21.21-16.32-32-15.35-13.71-27.08-1.64-6.21,6.54-8.16,11.1-16.32,40.8-4.57,75.38a43.14,43.14,0,0,0,6.53,12.08q9.78,12.07,24.14,10.11,14.68-1.95,20.56-16,6.53-16,7.18-40.14Q659,406.66,658.66,405.35Z" transform="translate(-5.95 -80.03)" fill="#5d2b2c"/><path d="M719.78,382.83V307.77c0-3.47-.12-8.81-.33-16-.22-7-.33-12.28-.33-16q0-12.72,13.06-11.74,14.36,1.31,16,1.63,10.77,1.31,11.42,11.75v20.23q-1,120.4-1,129.55-.33,31.34-1.31,66.25,0,10.44-10.76,11.74a71,71,0,0,1-17.95-.32q-10.12-1.31-10.12-14,.64-64.6.65-61v-47Z" transform="translate(-5.95 -80.03)" fill="#5d2b2c"/></svg>